G04 #@! TF.GenerationSoftware,KiCad,Pcbnew,(5.0.2)-1*
G04 #@! TF.CreationDate,2019-06-27T16:40:18+05:30*
G04 #@! TF.ProjectId,mAhTime,6d416854-696d-4652-9e6b-696361645f70,rev?*
G04 #@! TF.SameCoordinates,Original*
G04 #@! TF.FileFunction,Soldermask,Top*
G04 #@! TF.FilePolarity,Negative*
%FSLAX46Y46*%
G04 Gerber Fmt 4.6, Leading zero omitted, Abs format (unit mm)*
G04 Created by KiCad (PCBNEW (5.0.2)-1) date 06/27/19 16:40:18*
%MOMM*%
%LPD*%
G01*
G04 APERTURE LIST*
%ADD10C,0.100000*%
G04 APERTURE END LIST*
D10*
G36*
X41995703Y-65771486D02*
X42286883Y-65892097D01*
X42548944Y-66067201D01*
X42771799Y-66290056D01*
X42946903Y-66552117D01*
X43067514Y-66843297D01*
X43129000Y-67152412D01*
X43129000Y-67467588D01*
X43067514Y-67776703D01*
X42946903Y-68067883D01*
X42771799Y-68329944D01*
X42548944Y-68552799D01*
X42286883Y-68727903D01*
X41995703Y-68848514D01*
X41686588Y-68910000D01*
X41371412Y-68910000D01*
X41062297Y-68848514D01*
X40771117Y-68727903D01*
X40509056Y-68552799D01*
X40286201Y-68329944D01*
X40111097Y-68067883D01*
X39990486Y-67776703D01*
X39929000Y-67467588D01*
X39929000Y-67152412D01*
X39990486Y-66843297D01*
X40111097Y-66552117D01*
X40286201Y-66290056D01*
X40509056Y-66067201D01*
X40771117Y-65892097D01*
X41062297Y-65771486D01*
X41371412Y-65710000D01*
X41686588Y-65710000D01*
X41995703Y-65771486D01*
X41995703Y-65771486D01*
G37*
G36*
X16595703Y-65771486D02*
X16886883Y-65892097D01*
X17148944Y-66067201D01*
X17371799Y-66290056D01*
X17546903Y-66552117D01*
X17667514Y-66843297D01*
X17729000Y-67152412D01*
X17729000Y-67467588D01*
X17667514Y-67776703D01*
X17546903Y-68067883D01*
X17371799Y-68329944D01*
X17148944Y-68552799D01*
X16886883Y-68727903D01*
X16595703Y-68848514D01*
X16286588Y-68910000D01*
X15971412Y-68910000D01*
X15662297Y-68848514D01*
X15371117Y-68727903D01*
X15109056Y-68552799D01*
X14886201Y-68329944D01*
X14711097Y-68067883D01*
X14590486Y-67776703D01*
X14529000Y-67467588D01*
X14529000Y-67152412D01*
X14590486Y-66843297D01*
X14711097Y-66552117D01*
X14886201Y-66290056D01*
X15109056Y-66067201D01*
X15371117Y-65892097D01*
X15662297Y-65771486D01*
X15971412Y-65710000D01*
X16286588Y-65710000D01*
X16595703Y-65771486D01*
X16595703Y-65771486D01*
G37*
G36*
X33440630Y-62027299D02*
X33600855Y-62075903D01*
X33748520Y-62154831D01*
X33877949Y-62261051D01*
X33984169Y-62390480D01*
X34063097Y-62538145D01*
X34111701Y-62698370D01*
X34128112Y-62865000D01*
X34111701Y-63031630D01*
X34063097Y-63191855D01*
X33984169Y-63339520D01*
X33877949Y-63468949D01*
X33748520Y-63575169D01*
X33600855Y-63654097D01*
X33440630Y-63702701D01*
X33315752Y-63715000D01*
X33232248Y-63715000D01*
X33107370Y-63702701D01*
X32947145Y-63654097D01*
X32799480Y-63575169D01*
X32670051Y-63468949D01*
X32563831Y-63339520D01*
X32484903Y-63191855D01*
X32436299Y-63031630D01*
X32419888Y-62865000D01*
X32436299Y-62698370D01*
X32484903Y-62538145D01*
X32563831Y-62390480D01*
X32670051Y-62261051D01*
X32799480Y-62154831D01*
X32947145Y-62075903D01*
X33107370Y-62027299D01*
X33232248Y-62015000D01*
X33315752Y-62015000D01*
X33440630Y-62027299D01*
X33440630Y-62027299D01*
G37*
G36*
X36664000Y-63715000D02*
X34964000Y-63715000D01*
X34964000Y-62015000D01*
X36664000Y-62015000D01*
X36664000Y-63715000D01*
X36664000Y-63715000D01*
G37*
G36*
X21210000Y-62650000D02*
X19510000Y-62650000D01*
X19510000Y-60950000D01*
X21210000Y-60950000D01*
X21210000Y-62650000D01*
X21210000Y-62650000D01*
G37*
G36*
X23066630Y-60962299D02*
X23226855Y-61010903D01*
X23374520Y-61089831D01*
X23503949Y-61196051D01*
X23610169Y-61325480D01*
X23689097Y-61473145D01*
X23737701Y-61633370D01*
X23754112Y-61800000D01*
X23737701Y-61966630D01*
X23689097Y-62126855D01*
X23610169Y-62274520D01*
X23503949Y-62403949D01*
X23374520Y-62510169D01*
X23226855Y-62589097D01*
X23066630Y-62637701D01*
X22941752Y-62650000D01*
X22858248Y-62650000D01*
X22733370Y-62637701D01*
X22573145Y-62589097D01*
X22425480Y-62510169D01*
X22296051Y-62403949D01*
X22189831Y-62274520D01*
X22110903Y-62126855D01*
X22062299Y-61966630D01*
X22045888Y-61800000D01*
X22062299Y-61633370D01*
X22110903Y-61473145D01*
X22189831Y-61325480D01*
X22296051Y-61196051D01*
X22425480Y-61089831D01*
X22573145Y-61010903D01*
X22733370Y-60962299D01*
X22858248Y-60950000D01*
X22941752Y-60950000D01*
X23066630Y-60962299D01*
X23066630Y-60962299D01*
G37*
G36*
X25606630Y-60962299D02*
X25766855Y-61010903D01*
X25914520Y-61089831D01*
X26043949Y-61196051D01*
X26150169Y-61325480D01*
X26229097Y-61473145D01*
X26277701Y-61633370D01*
X26294112Y-61800000D01*
X26277701Y-61966630D01*
X26229097Y-62126855D01*
X26150169Y-62274520D01*
X26043949Y-62403949D01*
X25914520Y-62510169D01*
X25766855Y-62589097D01*
X25606630Y-62637701D01*
X25481752Y-62650000D01*
X25398248Y-62650000D01*
X25273370Y-62637701D01*
X25113145Y-62589097D01*
X24965480Y-62510169D01*
X24836051Y-62403949D01*
X24729831Y-62274520D01*
X24650903Y-62126855D01*
X24602299Y-61966630D01*
X24585888Y-61800000D01*
X24602299Y-61633370D01*
X24650903Y-61473145D01*
X24729831Y-61325480D01*
X24836051Y-61196051D01*
X24965480Y-61089831D01*
X25113145Y-61010903D01*
X25273370Y-60962299D01*
X25398248Y-60950000D01*
X25481752Y-60950000D01*
X25606630Y-60962299D01*
X25606630Y-60962299D01*
G37*
G36*
X28146630Y-60962299D02*
X28306855Y-61010903D01*
X28454520Y-61089831D01*
X28583949Y-61196051D01*
X28690169Y-61325480D01*
X28769097Y-61473145D01*
X28817701Y-61633370D01*
X28834112Y-61800000D01*
X28817701Y-61966630D01*
X28769097Y-62126855D01*
X28690169Y-62274520D01*
X28583949Y-62403949D01*
X28454520Y-62510169D01*
X28306855Y-62589097D01*
X28146630Y-62637701D01*
X28021752Y-62650000D01*
X27938248Y-62650000D01*
X27813370Y-62637701D01*
X27653145Y-62589097D01*
X27505480Y-62510169D01*
X27376051Y-62403949D01*
X27269831Y-62274520D01*
X27190903Y-62126855D01*
X27142299Y-61966630D01*
X27125888Y-61800000D01*
X27142299Y-61633370D01*
X27190903Y-61473145D01*
X27269831Y-61325480D01*
X27376051Y-61196051D01*
X27505480Y-61089831D01*
X27653145Y-61010903D01*
X27813370Y-60962299D01*
X27938248Y-60950000D01*
X28021752Y-60950000D01*
X28146630Y-60962299D01*
X28146630Y-60962299D01*
G37*
G36*
X15003195Y-57697522D02*
X15052267Y-57707283D01*
X15190942Y-57764724D01*
X15315750Y-57848118D01*
X15421882Y-57954250D01*
X15505276Y-58079058D01*
X15562717Y-58217734D01*
X15592000Y-58364948D01*
X15592000Y-58515052D01*
X15562717Y-58662266D01*
X15505276Y-58800942D01*
X15421882Y-58925750D01*
X15315750Y-59031882D01*
X15315747Y-59031884D01*
X15190942Y-59115276D01*
X15052267Y-59172717D01*
X15003195Y-59182478D01*
X14905052Y-59202000D01*
X14754948Y-59202000D01*
X14656805Y-59182478D01*
X14607733Y-59172717D01*
X14469058Y-59115276D01*
X14344253Y-59031884D01*
X14344250Y-59031882D01*
X14238118Y-58925750D01*
X14154724Y-58800942D01*
X14097283Y-58662266D01*
X14068000Y-58515052D01*
X14068000Y-58364948D01*
X14097283Y-58217734D01*
X14154724Y-58079058D01*
X14238118Y-57954250D01*
X14344250Y-57848118D01*
X14469058Y-57764724D01*
X14607733Y-57707283D01*
X14656805Y-57697522D01*
X14754948Y-57678000D01*
X14905052Y-57678000D01*
X15003195Y-57697522D01*
X15003195Y-57697522D01*
G37*
G36*
X42943195Y-57697522D02*
X42992267Y-57707283D01*
X43130942Y-57764724D01*
X43255750Y-57848118D01*
X43361882Y-57954250D01*
X43445276Y-58079058D01*
X43502717Y-58217734D01*
X43532000Y-58364948D01*
X43532000Y-58515052D01*
X43502717Y-58662266D01*
X43445276Y-58800942D01*
X43361882Y-58925750D01*
X43255750Y-59031882D01*
X43255747Y-59031884D01*
X43130942Y-59115276D01*
X42992267Y-59172717D01*
X42943195Y-59182478D01*
X42845052Y-59202000D01*
X42694948Y-59202000D01*
X42596805Y-59182478D01*
X42547733Y-59172717D01*
X42409058Y-59115276D01*
X42284253Y-59031884D01*
X42284250Y-59031882D01*
X42178118Y-58925750D01*
X42094724Y-58800942D01*
X42037283Y-58662266D01*
X42008000Y-58515052D01*
X42008000Y-58364948D01*
X42037283Y-58217734D01*
X42094724Y-58079058D01*
X42178118Y-57954250D01*
X42284250Y-57848118D01*
X42409058Y-57764724D01*
X42547733Y-57707283D01*
X42596805Y-57697522D01*
X42694948Y-57678000D01*
X42845052Y-57678000D01*
X42943195Y-57697522D01*
X42943195Y-57697522D01*
G37*
G36*
X15003195Y-55157522D02*
X15052267Y-55167283D01*
X15190942Y-55224724D01*
X15315750Y-55308118D01*
X15421882Y-55414250D01*
X15505276Y-55539058D01*
X15562717Y-55677734D01*
X15592000Y-55824948D01*
X15592000Y-55975052D01*
X15562717Y-56122266D01*
X15505276Y-56260942D01*
X15421882Y-56385750D01*
X15315750Y-56491882D01*
X15315747Y-56491884D01*
X15190942Y-56575276D01*
X15052267Y-56632717D01*
X15003195Y-56642478D01*
X14905052Y-56662000D01*
X14754948Y-56662000D01*
X14656805Y-56642478D01*
X14607733Y-56632717D01*
X14469058Y-56575276D01*
X14344253Y-56491884D01*
X14344250Y-56491882D01*
X14238118Y-56385750D01*
X14154724Y-56260942D01*
X14097283Y-56122266D01*
X14068000Y-55975052D01*
X14068000Y-55824948D01*
X14097283Y-55677734D01*
X14154724Y-55539058D01*
X14238118Y-55414250D01*
X14344250Y-55308118D01*
X14469058Y-55224724D01*
X14607733Y-55167283D01*
X14656805Y-55157522D01*
X14754948Y-55138000D01*
X14905052Y-55138000D01*
X15003195Y-55157522D01*
X15003195Y-55157522D01*
G37*
G36*
X42943195Y-55157522D02*
X42992267Y-55167283D01*
X43130942Y-55224724D01*
X43255750Y-55308118D01*
X43361882Y-55414250D01*
X43445276Y-55539058D01*
X43502717Y-55677734D01*
X43532000Y-55824948D01*
X43532000Y-55975052D01*
X43502717Y-56122266D01*
X43445276Y-56260942D01*
X43361882Y-56385750D01*
X43255750Y-56491882D01*
X43255747Y-56491884D01*
X43130942Y-56575276D01*
X42992267Y-56632717D01*
X42943195Y-56642478D01*
X42845052Y-56662000D01*
X42694948Y-56662000D01*
X42596805Y-56642478D01*
X42547733Y-56632717D01*
X42409058Y-56575276D01*
X42284253Y-56491884D01*
X42284250Y-56491882D01*
X42178118Y-56385750D01*
X42094724Y-56260942D01*
X42037283Y-56122266D01*
X42008000Y-55975052D01*
X42008000Y-55824948D01*
X42037283Y-55677734D01*
X42094724Y-55539058D01*
X42178118Y-55414250D01*
X42284250Y-55308118D01*
X42409058Y-55224724D01*
X42547733Y-55167283D01*
X42596805Y-55157522D01*
X42694948Y-55138000D01*
X42845052Y-55138000D01*
X42943195Y-55157522D01*
X42943195Y-55157522D01*
G37*
G36*
X42943195Y-52617522D02*
X42992267Y-52627283D01*
X43121961Y-52681004D01*
X43130942Y-52684724D01*
X43255750Y-52768118D01*
X43361882Y-52874250D01*
X43445276Y-52999058D01*
X43502717Y-53137734D01*
X43532000Y-53284948D01*
X43532000Y-53435052D01*
X43502717Y-53582266D01*
X43445276Y-53720942D01*
X43361882Y-53845750D01*
X43255750Y-53951882D01*
X43255747Y-53951884D01*
X43130942Y-54035276D01*
X42992267Y-54092717D01*
X42943195Y-54102478D01*
X42845052Y-54122000D01*
X42694948Y-54122000D01*
X42596805Y-54102478D01*
X42547733Y-54092717D01*
X42409058Y-54035276D01*
X42284253Y-53951884D01*
X42284250Y-53951882D01*
X42178118Y-53845750D01*
X42094724Y-53720942D01*
X42037283Y-53582266D01*
X42008000Y-53435052D01*
X42008000Y-53284948D01*
X42037283Y-53137734D01*
X42094724Y-52999058D01*
X42178118Y-52874250D01*
X42284250Y-52768118D01*
X42409058Y-52684724D01*
X42418039Y-52681004D01*
X42547733Y-52627283D01*
X42596805Y-52617522D01*
X42694948Y-52598000D01*
X42845052Y-52598000D01*
X42943195Y-52617522D01*
X42943195Y-52617522D01*
G37*
G36*
X15003195Y-52617522D02*
X15052267Y-52627283D01*
X15181961Y-52681004D01*
X15190942Y-52684724D01*
X15315750Y-52768118D01*
X15421882Y-52874250D01*
X15505276Y-52999058D01*
X15562717Y-53137734D01*
X15592000Y-53284948D01*
X15592000Y-53435052D01*
X15562717Y-53582266D01*
X15505276Y-53720942D01*
X15421882Y-53845750D01*
X15315750Y-53951882D01*
X15315747Y-53951884D01*
X15190942Y-54035276D01*
X15052267Y-54092717D01*
X15003195Y-54102478D01*
X14905052Y-54122000D01*
X14754948Y-54122000D01*
X14656805Y-54102478D01*
X14607733Y-54092717D01*
X14469058Y-54035276D01*
X14344253Y-53951884D01*
X14344250Y-53951882D01*
X14238118Y-53845750D01*
X14154724Y-53720942D01*
X14097283Y-53582266D01*
X14068000Y-53435052D01*
X14068000Y-53284948D01*
X14097283Y-53137734D01*
X14154724Y-52999058D01*
X14238118Y-52874250D01*
X14344250Y-52768118D01*
X14469058Y-52684724D01*
X14478039Y-52681004D01*
X14607733Y-52627283D01*
X14656805Y-52617522D01*
X14754948Y-52598000D01*
X14905052Y-52598000D01*
X15003195Y-52617522D01*
X15003195Y-52617522D01*
G37*
G36*
X30800000Y-53420000D02*
X29900000Y-53420000D01*
X29900000Y-52620000D01*
X30800000Y-52620000D01*
X30800000Y-53420000D01*
X30800000Y-53420000D01*
G37*
G36*
X23725960Y-51304028D02*
X23759396Y-51314170D01*
X23790199Y-51330636D01*
X23817203Y-51352797D01*
X23839364Y-51379801D01*
X23855830Y-51410604D01*
X23865972Y-51444040D01*
X23870000Y-51484938D01*
X23870000Y-52515062D01*
X23865972Y-52555960D01*
X23855830Y-52589396D01*
X23839364Y-52620199D01*
X23817203Y-52647203D01*
X23790199Y-52669364D01*
X23759396Y-52685830D01*
X23725960Y-52695972D01*
X23685062Y-52700000D01*
X22904938Y-52700000D01*
X22864040Y-52695972D01*
X22830604Y-52685830D01*
X22799801Y-52669364D01*
X22772797Y-52647203D01*
X22750636Y-52620199D01*
X22734170Y-52589396D01*
X22724028Y-52555960D01*
X22720000Y-52515062D01*
X22720000Y-51484938D01*
X22724028Y-51444040D01*
X22734170Y-51410604D01*
X22750636Y-51379801D01*
X22772797Y-51352797D01*
X22799801Y-51330636D01*
X22830604Y-51314170D01*
X22864040Y-51304028D01*
X22904938Y-51300000D01*
X23685062Y-51300000D01*
X23725960Y-51304028D01*
X23725960Y-51304028D01*
G37*
G36*
X25775960Y-51304028D02*
X25809396Y-51314170D01*
X25840199Y-51330636D01*
X25867203Y-51352797D01*
X25889364Y-51379801D01*
X25905830Y-51410604D01*
X25915972Y-51444040D01*
X25920000Y-51484938D01*
X25920000Y-52515062D01*
X25915972Y-52555960D01*
X25905830Y-52589396D01*
X25889364Y-52620199D01*
X25867203Y-52647203D01*
X25840199Y-52669364D01*
X25809396Y-52685830D01*
X25775960Y-52695972D01*
X25735062Y-52700000D01*
X24954938Y-52700000D01*
X24914040Y-52695972D01*
X24880604Y-52685830D01*
X24849801Y-52669364D01*
X24822797Y-52647203D01*
X24800636Y-52620199D01*
X24784170Y-52589396D01*
X24774028Y-52555960D01*
X24770000Y-52515062D01*
X24770000Y-51484938D01*
X24774028Y-51444040D01*
X24784170Y-51410604D01*
X24800636Y-51379801D01*
X24822797Y-51352797D01*
X24849801Y-51330636D01*
X24880604Y-51314170D01*
X24914040Y-51304028D01*
X24954938Y-51300000D01*
X25735062Y-51300000D01*
X25775960Y-51304028D01*
X25775960Y-51304028D01*
G37*
G36*
X28800000Y-52470000D02*
X27900000Y-52470000D01*
X27900000Y-51670000D01*
X28800000Y-51670000D01*
X28800000Y-52470000D01*
X28800000Y-52470000D01*
G37*
G36*
X42943195Y-50077522D02*
X42992267Y-50087283D01*
X43130942Y-50144724D01*
X43255750Y-50228118D01*
X43361882Y-50334250D01*
X43445276Y-50459058D01*
X43502717Y-50597734D01*
X43532000Y-50744948D01*
X43532000Y-50895052D01*
X43502717Y-51042266D01*
X43445276Y-51180942D01*
X43361882Y-51305750D01*
X43255750Y-51411882D01*
X43255747Y-51411884D01*
X43130942Y-51495276D01*
X42992267Y-51552717D01*
X42943195Y-51562478D01*
X42845052Y-51582000D01*
X42694948Y-51582000D01*
X42596805Y-51562478D01*
X42547733Y-51552717D01*
X42409058Y-51495276D01*
X42284253Y-51411884D01*
X42284250Y-51411882D01*
X42178118Y-51305750D01*
X42094724Y-51180942D01*
X42037283Y-51042266D01*
X42008000Y-50895052D01*
X42008000Y-50744948D01*
X42037283Y-50597734D01*
X42094724Y-50459058D01*
X42178118Y-50334250D01*
X42284250Y-50228118D01*
X42409058Y-50144724D01*
X42547733Y-50087283D01*
X42596805Y-50077522D01*
X42694948Y-50058000D01*
X42845052Y-50058000D01*
X42943195Y-50077522D01*
X42943195Y-50077522D01*
G37*
G36*
X15003195Y-50077522D02*
X15052267Y-50087283D01*
X15190942Y-50144724D01*
X15315750Y-50228118D01*
X15421882Y-50334250D01*
X15505276Y-50459058D01*
X15562717Y-50597734D01*
X15592000Y-50744948D01*
X15592000Y-50895052D01*
X15562717Y-51042266D01*
X15505276Y-51180942D01*
X15421882Y-51305750D01*
X15315750Y-51411882D01*
X15315747Y-51411884D01*
X15190942Y-51495276D01*
X15052267Y-51552717D01*
X15003195Y-51562478D01*
X14905052Y-51582000D01*
X14754948Y-51582000D01*
X14656805Y-51562478D01*
X14607733Y-51552717D01*
X14469058Y-51495276D01*
X14344253Y-51411884D01*
X14344250Y-51411882D01*
X14238118Y-51305750D01*
X14154724Y-51180942D01*
X14097283Y-51042266D01*
X14068000Y-50895052D01*
X14068000Y-50744948D01*
X14097283Y-50597734D01*
X14154724Y-50459058D01*
X14238118Y-50334250D01*
X14344250Y-50228118D01*
X14469058Y-50144724D01*
X14607733Y-50087283D01*
X14656805Y-50077522D01*
X14754948Y-50058000D01*
X14905052Y-50058000D01*
X15003195Y-50077522D01*
X15003195Y-50077522D01*
G37*
G36*
X30800000Y-51520000D02*
X29900000Y-51520000D01*
X29900000Y-50720000D01*
X30800000Y-50720000D01*
X30800000Y-51520000D01*
X30800000Y-51520000D01*
G37*
G36*
X25775960Y-49004028D02*
X25809396Y-49014170D01*
X25840199Y-49030636D01*
X25867203Y-49052797D01*
X25889364Y-49079801D01*
X25905830Y-49110604D01*
X25915972Y-49144040D01*
X25920000Y-49184938D01*
X25920000Y-50215062D01*
X25915972Y-50255960D01*
X25905830Y-50289396D01*
X25889364Y-50320199D01*
X25867203Y-50347203D01*
X25840199Y-50369364D01*
X25809396Y-50385830D01*
X25775960Y-50395972D01*
X25735062Y-50400000D01*
X24954938Y-50400000D01*
X24914040Y-50395972D01*
X24880604Y-50385830D01*
X24849801Y-50369364D01*
X24822797Y-50347203D01*
X24800636Y-50320199D01*
X24784170Y-50289396D01*
X24774028Y-50255960D01*
X24770000Y-50215062D01*
X24770000Y-49184938D01*
X24774028Y-49144040D01*
X24784170Y-49110604D01*
X24800636Y-49079801D01*
X24822797Y-49052797D01*
X24849801Y-49030636D01*
X24880604Y-49014170D01*
X24914040Y-49004028D01*
X24954938Y-49000000D01*
X25735062Y-49000000D01*
X25775960Y-49004028D01*
X25775960Y-49004028D01*
G37*
G36*
X23725960Y-49004028D02*
X23759396Y-49014170D01*
X23790199Y-49030636D01*
X23817203Y-49052797D01*
X23839364Y-49079801D01*
X23855830Y-49110604D01*
X23865972Y-49144040D01*
X23870000Y-49184938D01*
X23870000Y-50215062D01*
X23865972Y-50255960D01*
X23855830Y-50289396D01*
X23839364Y-50320199D01*
X23817203Y-50347203D01*
X23790199Y-50369364D01*
X23759396Y-50385830D01*
X23725960Y-50395972D01*
X23685062Y-50400000D01*
X22904938Y-50400000D01*
X22864040Y-50395972D01*
X22830604Y-50385830D01*
X22799801Y-50369364D01*
X22772797Y-50347203D01*
X22750636Y-50320199D01*
X22734170Y-50289396D01*
X22724028Y-50255960D01*
X22720000Y-50215062D01*
X22720000Y-49184938D01*
X22724028Y-49144040D01*
X22734170Y-49110604D01*
X22750636Y-49079801D01*
X22772797Y-49052797D01*
X22799801Y-49030636D01*
X22830604Y-49014170D01*
X22864040Y-49004028D01*
X22904938Y-49000000D01*
X23685062Y-49000000D01*
X23725960Y-49004028D01*
X23725960Y-49004028D01*
G37*
G36*
X15003195Y-47537522D02*
X15052267Y-47547283D01*
X15190942Y-47604724D01*
X15315750Y-47688118D01*
X15421882Y-47794250D01*
X15483161Y-47885960D01*
X15505276Y-47919058D01*
X15551230Y-48030000D01*
X15562717Y-48057734D01*
X15592000Y-48204948D01*
X15592000Y-48355052D01*
X15562717Y-48502266D01*
X15505276Y-48640942D01*
X15421882Y-48765750D01*
X15315750Y-48871882D01*
X15315747Y-48871884D01*
X15190942Y-48955276D01*
X15052267Y-49012717D01*
X15020700Y-49018996D01*
X14905052Y-49042000D01*
X14754948Y-49042000D01*
X14639300Y-49018996D01*
X14607733Y-49012717D01*
X14469058Y-48955276D01*
X14344253Y-48871884D01*
X14344250Y-48871882D01*
X14238118Y-48765750D01*
X14154724Y-48640942D01*
X14097283Y-48502266D01*
X14068000Y-48355052D01*
X14068000Y-48204948D01*
X14097283Y-48057734D01*
X14108771Y-48030000D01*
X14154724Y-47919058D01*
X14176839Y-47885960D01*
X14238118Y-47794250D01*
X14344250Y-47688118D01*
X14469058Y-47604724D01*
X14607733Y-47547283D01*
X14656805Y-47537522D01*
X14754948Y-47518000D01*
X14905052Y-47518000D01*
X15003195Y-47537522D01*
X15003195Y-47537522D01*
G37*
G36*
X42943195Y-47537522D02*
X42992267Y-47547283D01*
X43130942Y-47604724D01*
X43255750Y-47688118D01*
X43361882Y-47794250D01*
X43423161Y-47885960D01*
X43445276Y-47919058D01*
X43491230Y-48030000D01*
X43502717Y-48057734D01*
X43532000Y-48204948D01*
X43532000Y-48355052D01*
X43502717Y-48502266D01*
X43445276Y-48640942D01*
X43361882Y-48765750D01*
X43255750Y-48871882D01*
X43255747Y-48871884D01*
X43130942Y-48955276D01*
X42992267Y-49012717D01*
X42960700Y-49018996D01*
X42845052Y-49042000D01*
X42694948Y-49042000D01*
X42579300Y-49018996D01*
X42547733Y-49012717D01*
X42409058Y-48955276D01*
X42284253Y-48871884D01*
X42284250Y-48871882D01*
X42178118Y-48765750D01*
X42094724Y-48640942D01*
X42037283Y-48502266D01*
X42008000Y-48355052D01*
X42008000Y-48204948D01*
X42037283Y-48057734D01*
X42048771Y-48030000D01*
X42094724Y-47919058D01*
X42116839Y-47885960D01*
X42178118Y-47794250D01*
X42284250Y-47688118D01*
X42409058Y-47604724D01*
X42547733Y-47547283D01*
X42596805Y-47537522D01*
X42694948Y-47518000D01*
X42845052Y-47518000D01*
X42943195Y-47537522D01*
X42943195Y-47537522D01*
G37*
G36*
X30800000Y-48340000D02*
X29900000Y-48340000D01*
X29900000Y-47540000D01*
X30800000Y-47540000D01*
X30800000Y-48340000D01*
X30800000Y-48340000D01*
G37*
G36*
X25785960Y-46634028D02*
X25819396Y-46644170D01*
X25850199Y-46660636D01*
X25877203Y-46682797D01*
X25899364Y-46709801D01*
X25915830Y-46740604D01*
X25925972Y-46774040D01*
X25930000Y-46814938D01*
X25930000Y-47845062D01*
X25925972Y-47885960D01*
X25915830Y-47919396D01*
X25899364Y-47950199D01*
X25877203Y-47977203D01*
X25850199Y-47999364D01*
X25819396Y-48015830D01*
X25785960Y-48025972D01*
X25745062Y-48030000D01*
X24964938Y-48030000D01*
X24924040Y-48025972D01*
X24890604Y-48015830D01*
X24859801Y-47999364D01*
X24832797Y-47977203D01*
X24810636Y-47950199D01*
X24794170Y-47919396D01*
X24784028Y-47885960D01*
X24780000Y-47845062D01*
X24780000Y-46814938D01*
X24784028Y-46774040D01*
X24794170Y-46740604D01*
X24810636Y-46709801D01*
X24832797Y-46682797D01*
X24859801Y-46660636D01*
X24890604Y-46644170D01*
X24924040Y-46634028D01*
X24964938Y-46630000D01*
X25745062Y-46630000D01*
X25785960Y-46634028D01*
X25785960Y-46634028D01*
G37*
G36*
X23735960Y-46634028D02*
X23769396Y-46644170D01*
X23800199Y-46660636D01*
X23827203Y-46682797D01*
X23849364Y-46709801D01*
X23865830Y-46740604D01*
X23875972Y-46774040D01*
X23880000Y-46814938D01*
X23880000Y-47845062D01*
X23875972Y-47885960D01*
X23865830Y-47919396D01*
X23849364Y-47950199D01*
X23827203Y-47977203D01*
X23800199Y-47999364D01*
X23769396Y-48015830D01*
X23735960Y-48025972D01*
X23695062Y-48030000D01*
X22914938Y-48030000D01*
X22874040Y-48025972D01*
X22840604Y-48015830D01*
X22809801Y-47999364D01*
X22782797Y-47977203D01*
X22760636Y-47950199D01*
X22744170Y-47919396D01*
X22734028Y-47885960D01*
X22730000Y-47845062D01*
X22730000Y-46814938D01*
X22734028Y-46774040D01*
X22744170Y-46740604D01*
X22760636Y-46709801D01*
X22782797Y-46682797D01*
X22809801Y-46660636D01*
X22840604Y-46644170D01*
X22874040Y-46634028D01*
X22914938Y-46630000D01*
X23695062Y-46630000D01*
X23735960Y-46634028D01*
X23735960Y-46634028D01*
G37*
G36*
X28800000Y-47390000D02*
X27900000Y-47390000D01*
X27900000Y-46590000D01*
X28800000Y-46590000D01*
X28800000Y-47390000D01*
X28800000Y-47390000D01*
G37*
G36*
X42943195Y-44997522D02*
X42992267Y-45007283D01*
X43130942Y-45064724D01*
X43255750Y-45148118D01*
X43361882Y-45254250D01*
X43361884Y-45254253D01*
X43445276Y-45379058D01*
X43501983Y-45515960D01*
X43502717Y-45517734D01*
X43532000Y-45664948D01*
X43532000Y-45815052D01*
X43502717Y-45962266D01*
X43445276Y-46100942D01*
X43361882Y-46225750D01*
X43255750Y-46331882D01*
X43255747Y-46331884D01*
X43130942Y-46415276D01*
X42992267Y-46472717D01*
X42943195Y-46482478D01*
X42845052Y-46502000D01*
X42694948Y-46502000D01*
X42596805Y-46482478D01*
X42547733Y-46472717D01*
X42409058Y-46415276D01*
X42284253Y-46331884D01*
X42284250Y-46331882D01*
X42178118Y-46225750D01*
X42094724Y-46100942D01*
X42037283Y-45962266D01*
X42008000Y-45815052D01*
X42008000Y-45664948D01*
X42037283Y-45517734D01*
X42038018Y-45515960D01*
X42094724Y-45379058D01*
X42178116Y-45254253D01*
X42178118Y-45254250D01*
X42284250Y-45148118D01*
X42409058Y-45064724D01*
X42547733Y-45007283D01*
X42596805Y-44997522D01*
X42694948Y-44978000D01*
X42845052Y-44978000D01*
X42943195Y-44997522D01*
X42943195Y-44997522D01*
G37*
G36*
X15003195Y-44997522D02*
X15052267Y-45007283D01*
X15190942Y-45064724D01*
X15315750Y-45148118D01*
X15421882Y-45254250D01*
X15421884Y-45254253D01*
X15505276Y-45379058D01*
X15561983Y-45515960D01*
X15562717Y-45517734D01*
X15592000Y-45664948D01*
X15592000Y-45815052D01*
X15562717Y-45962266D01*
X15505276Y-46100942D01*
X15421882Y-46225750D01*
X15315750Y-46331882D01*
X15315747Y-46331884D01*
X15190942Y-46415276D01*
X15052267Y-46472717D01*
X15003195Y-46482478D01*
X14905052Y-46502000D01*
X14754948Y-46502000D01*
X14656805Y-46482478D01*
X14607733Y-46472717D01*
X14469058Y-46415276D01*
X14344253Y-46331884D01*
X14344250Y-46331882D01*
X14238118Y-46225750D01*
X14154724Y-46100942D01*
X14097283Y-45962266D01*
X14068000Y-45815052D01*
X14068000Y-45664948D01*
X14097283Y-45517734D01*
X14098018Y-45515960D01*
X14154724Y-45379058D01*
X14238116Y-45254253D01*
X14238118Y-45254250D01*
X14344250Y-45148118D01*
X14469058Y-45064724D01*
X14607733Y-45007283D01*
X14656805Y-44997522D01*
X14754948Y-44978000D01*
X14905052Y-44978000D01*
X15003195Y-44997522D01*
X15003195Y-44997522D01*
G37*
G36*
X30800000Y-46440000D02*
X29900000Y-46440000D01*
X29900000Y-45640000D01*
X30800000Y-45640000D01*
X30800000Y-46440000D01*
X30800000Y-46440000D01*
G37*
G36*
X23735960Y-44264028D02*
X23769396Y-44274170D01*
X23800199Y-44290636D01*
X23827203Y-44312797D01*
X23849364Y-44339801D01*
X23865830Y-44370604D01*
X23875972Y-44404040D01*
X23880000Y-44444938D01*
X23880000Y-45475062D01*
X23875972Y-45515960D01*
X23865830Y-45549396D01*
X23849364Y-45580199D01*
X23827203Y-45607203D01*
X23800199Y-45629364D01*
X23769396Y-45645830D01*
X23735960Y-45655972D01*
X23695062Y-45660000D01*
X22914938Y-45660000D01*
X22874040Y-45655972D01*
X22840604Y-45645830D01*
X22809801Y-45629364D01*
X22782797Y-45607203D01*
X22760636Y-45580199D01*
X22744170Y-45549396D01*
X22734028Y-45515960D01*
X22730000Y-45475062D01*
X22730000Y-44444938D01*
X22734028Y-44404040D01*
X22744170Y-44370604D01*
X22760636Y-44339801D01*
X22782797Y-44312797D01*
X22809801Y-44290636D01*
X22840604Y-44274170D01*
X22874040Y-44264028D01*
X22914938Y-44260000D01*
X23695062Y-44260000D01*
X23735960Y-44264028D01*
X23735960Y-44264028D01*
G37*
G36*
X25785960Y-44264028D02*
X25819396Y-44274170D01*
X25850199Y-44290636D01*
X25877203Y-44312797D01*
X25899364Y-44339801D01*
X25915830Y-44370604D01*
X25925972Y-44404040D01*
X25930000Y-44444938D01*
X25930000Y-45475062D01*
X25925972Y-45515960D01*
X25915830Y-45549396D01*
X25899364Y-45580199D01*
X25877203Y-45607203D01*
X25850199Y-45629364D01*
X25819396Y-45645830D01*
X25785960Y-45655972D01*
X25745062Y-45660000D01*
X24964938Y-45660000D01*
X24924040Y-45655972D01*
X24890604Y-45645830D01*
X24859801Y-45629364D01*
X24832797Y-45607203D01*
X24810636Y-45580199D01*
X24794170Y-45549396D01*
X24784028Y-45515960D01*
X24780000Y-45475062D01*
X24780000Y-44444938D01*
X24784028Y-44404040D01*
X24794170Y-44370604D01*
X24810636Y-44339801D01*
X24832797Y-44312797D01*
X24859801Y-44290636D01*
X24890604Y-44274170D01*
X24924040Y-44264028D01*
X24964938Y-44260000D01*
X25745062Y-44260000D01*
X25785960Y-44264028D01*
X25785960Y-44264028D01*
G37*
G36*
X34105960Y-44104028D02*
X34139396Y-44114170D01*
X34170199Y-44130636D01*
X34197203Y-44152797D01*
X34219364Y-44179801D01*
X34235830Y-44210604D01*
X34245972Y-44244040D01*
X34250000Y-44284938D01*
X34250000Y-45315062D01*
X34245972Y-45355960D01*
X34235830Y-45389396D01*
X34219364Y-45420199D01*
X34197203Y-45447203D01*
X34170199Y-45469364D01*
X34139396Y-45485830D01*
X34105960Y-45495972D01*
X34065062Y-45500000D01*
X33284938Y-45500000D01*
X33244040Y-45495972D01*
X33210604Y-45485830D01*
X33179801Y-45469364D01*
X33152797Y-45447203D01*
X33130636Y-45420199D01*
X33114170Y-45389396D01*
X33104028Y-45355960D01*
X33100000Y-45315062D01*
X33100000Y-44284938D01*
X33104028Y-44244040D01*
X33114170Y-44210604D01*
X33130636Y-44179801D01*
X33152797Y-44152797D01*
X33179801Y-44130636D01*
X33210604Y-44114170D01*
X33244040Y-44104028D01*
X33284938Y-44100000D01*
X34065062Y-44100000D01*
X34105960Y-44104028D01*
X34105960Y-44104028D01*
G37*
G36*
X36155960Y-44104028D02*
X36189396Y-44114170D01*
X36220199Y-44130636D01*
X36247203Y-44152797D01*
X36269364Y-44179801D01*
X36285830Y-44210604D01*
X36295972Y-44244040D01*
X36300000Y-44284938D01*
X36300000Y-45315062D01*
X36295972Y-45355960D01*
X36285830Y-45389396D01*
X36269364Y-45420199D01*
X36247203Y-45447203D01*
X36220199Y-45469364D01*
X36189396Y-45485830D01*
X36155960Y-45495972D01*
X36115062Y-45500000D01*
X35334938Y-45500000D01*
X35294040Y-45495972D01*
X35260604Y-45485830D01*
X35229801Y-45469364D01*
X35202797Y-45447203D01*
X35180636Y-45420199D01*
X35164170Y-45389396D01*
X35154028Y-45355960D01*
X35150000Y-45315062D01*
X35150000Y-44284938D01*
X35154028Y-44244040D01*
X35164170Y-44210604D01*
X35180636Y-44179801D01*
X35202797Y-44152797D01*
X35229801Y-44130636D01*
X35260604Y-44114170D01*
X35294040Y-44104028D01*
X35334938Y-44100000D01*
X36115062Y-44100000D01*
X36155960Y-44104028D01*
X36155960Y-44104028D01*
G37*
G36*
X15003195Y-42457522D02*
X15052267Y-42467283D01*
X15190942Y-42524724D01*
X15315750Y-42608118D01*
X15421882Y-42714250D01*
X15421884Y-42714253D01*
X15505276Y-42839058D01*
X15561611Y-42975062D01*
X15562717Y-42977734D01*
X15592000Y-43124948D01*
X15592000Y-43275052D01*
X15562717Y-43422266D01*
X15505276Y-43560942D01*
X15421882Y-43685750D01*
X15315750Y-43791882D01*
X15315747Y-43791884D01*
X15190942Y-43875276D01*
X15052267Y-43932717D01*
X15003195Y-43942478D01*
X14905052Y-43962000D01*
X14754948Y-43962000D01*
X14656805Y-43942478D01*
X14607733Y-43932717D01*
X14469058Y-43875276D01*
X14344253Y-43791884D01*
X14344250Y-43791882D01*
X14238118Y-43685750D01*
X14154724Y-43560942D01*
X14097283Y-43422266D01*
X14068000Y-43275052D01*
X14068000Y-43124948D01*
X14097283Y-42977734D01*
X14098390Y-42975062D01*
X14154724Y-42839058D01*
X14238116Y-42714253D01*
X14238118Y-42714250D01*
X14344250Y-42608118D01*
X14469058Y-42524724D01*
X14607733Y-42467283D01*
X14656805Y-42457522D01*
X14754948Y-42438000D01*
X14905052Y-42438000D01*
X15003195Y-42457522D01*
X15003195Y-42457522D01*
G37*
G36*
X42943195Y-42457522D02*
X42992267Y-42467283D01*
X43130942Y-42524724D01*
X43255750Y-42608118D01*
X43361882Y-42714250D01*
X43361884Y-42714253D01*
X43445276Y-42839058D01*
X43501611Y-42975062D01*
X43502717Y-42977734D01*
X43532000Y-43124948D01*
X43532000Y-43275052D01*
X43502717Y-43422266D01*
X43445276Y-43560942D01*
X43361882Y-43685750D01*
X43255750Y-43791882D01*
X43255747Y-43791884D01*
X43130942Y-43875276D01*
X42992267Y-43932717D01*
X42943195Y-43942478D01*
X42845052Y-43962000D01*
X42694948Y-43962000D01*
X42596805Y-43942478D01*
X42547733Y-43932717D01*
X42409058Y-43875276D01*
X42284253Y-43791884D01*
X42284250Y-43791882D01*
X42178118Y-43685750D01*
X42094724Y-43560942D01*
X42037283Y-43422266D01*
X42008000Y-43275052D01*
X42008000Y-43124948D01*
X42037283Y-42977734D01*
X42038390Y-42975062D01*
X42094724Y-42839058D01*
X42178116Y-42714253D01*
X42178118Y-42714250D01*
X42284250Y-42608118D01*
X42409058Y-42524724D01*
X42547733Y-42467283D01*
X42596805Y-42457522D01*
X42694948Y-42438000D01*
X42845052Y-42438000D01*
X42943195Y-42457522D01*
X42943195Y-42457522D01*
G37*
G36*
X23725960Y-41894028D02*
X23759396Y-41904170D01*
X23790199Y-41920636D01*
X23817203Y-41942797D01*
X23839364Y-41969801D01*
X23855830Y-42000604D01*
X23865972Y-42034040D01*
X23870000Y-42074938D01*
X23870000Y-43105062D01*
X23865972Y-43145960D01*
X23855830Y-43179396D01*
X23839364Y-43210199D01*
X23817203Y-43237203D01*
X23790199Y-43259364D01*
X23759396Y-43275830D01*
X23725960Y-43285972D01*
X23685062Y-43290000D01*
X22904938Y-43290000D01*
X22864040Y-43285972D01*
X22830604Y-43275830D01*
X22799801Y-43259364D01*
X22772797Y-43237203D01*
X22750636Y-43210199D01*
X22734170Y-43179396D01*
X22724028Y-43145960D01*
X22720000Y-43105062D01*
X22720000Y-42074938D01*
X22724028Y-42034040D01*
X22734170Y-42000604D01*
X22750636Y-41969801D01*
X22772797Y-41942797D01*
X22799801Y-41920636D01*
X22830604Y-41904170D01*
X22864040Y-41894028D01*
X22904938Y-41890000D01*
X23685062Y-41890000D01*
X23725960Y-41894028D01*
X23725960Y-41894028D01*
G37*
G36*
X25775960Y-41894028D02*
X25809396Y-41904170D01*
X25840199Y-41920636D01*
X25867203Y-41942797D01*
X25889364Y-41969801D01*
X25905830Y-42000604D01*
X25915972Y-42034040D01*
X25920000Y-42074938D01*
X25920000Y-43105062D01*
X25915972Y-43145960D01*
X25905830Y-43179396D01*
X25889364Y-43210199D01*
X25867203Y-43237203D01*
X25840199Y-43259364D01*
X25809396Y-43275830D01*
X25775960Y-43285972D01*
X25735062Y-43290000D01*
X24954938Y-43290000D01*
X24914040Y-43285972D01*
X24880604Y-43275830D01*
X24849801Y-43259364D01*
X24822797Y-43237203D01*
X24800636Y-43210199D01*
X24784170Y-43179396D01*
X24774028Y-43145960D01*
X24770000Y-43105062D01*
X24770000Y-42074938D01*
X24774028Y-42034040D01*
X24784170Y-42000604D01*
X24800636Y-41969801D01*
X24822797Y-41942797D01*
X24849801Y-41920636D01*
X24880604Y-41904170D01*
X24914040Y-41894028D01*
X24954938Y-41890000D01*
X25735062Y-41890000D01*
X25775960Y-41894028D01*
X25775960Y-41894028D01*
G37*
G36*
X30800000Y-43260000D02*
X29900000Y-43260000D01*
X29900000Y-42460000D01*
X30800000Y-42460000D01*
X30800000Y-43260000D01*
X30800000Y-43260000D01*
G37*
G36*
X36165960Y-41764028D02*
X36199396Y-41774170D01*
X36230199Y-41790636D01*
X36257203Y-41812797D01*
X36279364Y-41839801D01*
X36295830Y-41870604D01*
X36305972Y-41904040D01*
X36310000Y-41944938D01*
X36310000Y-42975062D01*
X36305972Y-43015960D01*
X36295830Y-43049396D01*
X36279364Y-43080199D01*
X36257203Y-43107203D01*
X36230199Y-43129364D01*
X36199396Y-43145830D01*
X36165960Y-43155972D01*
X36125062Y-43160000D01*
X35344938Y-43160000D01*
X35304040Y-43155972D01*
X35270604Y-43145830D01*
X35239801Y-43129364D01*
X35212797Y-43107203D01*
X35190636Y-43080199D01*
X35174170Y-43049396D01*
X35164028Y-43015960D01*
X35160000Y-42975062D01*
X35160000Y-41944938D01*
X35164028Y-41904040D01*
X35174170Y-41870604D01*
X35190636Y-41839801D01*
X35212797Y-41812797D01*
X35239801Y-41790636D01*
X35270604Y-41774170D01*
X35304040Y-41764028D01*
X35344938Y-41760000D01*
X36125062Y-41760000D01*
X36165960Y-41764028D01*
X36165960Y-41764028D01*
G37*
G36*
X34115960Y-41764028D02*
X34149396Y-41774170D01*
X34180199Y-41790636D01*
X34207203Y-41812797D01*
X34229364Y-41839801D01*
X34245830Y-41870604D01*
X34255972Y-41904040D01*
X34260000Y-41944938D01*
X34260000Y-42975062D01*
X34255972Y-43015960D01*
X34245830Y-43049396D01*
X34229364Y-43080199D01*
X34207203Y-43107203D01*
X34180199Y-43129364D01*
X34149396Y-43145830D01*
X34115960Y-43155972D01*
X34075062Y-43160000D01*
X33294938Y-43160000D01*
X33254040Y-43155972D01*
X33220604Y-43145830D01*
X33189801Y-43129364D01*
X33162797Y-43107203D01*
X33140636Y-43080199D01*
X33124170Y-43049396D01*
X33114028Y-43015960D01*
X33110000Y-42975062D01*
X33110000Y-41944938D01*
X33114028Y-41904040D01*
X33124170Y-41870604D01*
X33140636Y-41839801D01*
X33162797Y-41812797D01*
X33189801Y-41790636D01*
X33220604Y-41774170D01*
X33254040Y-41764028D01*
X33294938Y-41760000D01*
X34075062Y-41760000D01*
X34115960Y-41764028D01*
X34115960Y-41764028D01*
G37*
G36*
X28800000Y-42310000D02*
X27900000Y-42310000D01*
X27900000Y-41510000D01*
X28800000Y-41510000D01*
X28800000Y-42310000D01*
X28800000Y-42310000D01*
G37*
G36*
X15003195Y-39917522D02*
X15052267Y-39927283D01*
X15190942Y-39984724D01*
X15315750Y-40068118D01*
X15421882Y-40174250D01*
X15505276Y-40299058D01*
X15562717Y-40437734D01*
X15592000Y-40584948D01*
X15592000Y-40735052D01*
X15562717Y-40882266D01*
X15505276Y-41020942D01*
X15421882Y-41145750D01*
X15315750Y-41251882D01*
X15315747Y-41251884D01*
X15190942Y-41335276D01*
X15052267Y-41392717D01*
X15003195Y-41402478D01*
X14905052Y-41422000D01*
X14754948Y-41422000D01*
X14656805Y-41402478D01*
X14607733Y-41392717D01*
X14469058Y-41335276D01*
X14344253Y-41251884D01*
X14344250Y-41251882D01*
X14238118Y-41145750D01*
X14154724Y-41020942D01*
X14097283Y-40882266D01*
X14068000Y-40735052D01*
X14068000Y-40584948D01*
X14097283Y-40437734D01*
X14154724Y-40299058D01*
X14238118Y-40174250D01*
X14344250Y-40068118D01*
X14469058Y-39984724D01*
X14607733Y-39927283D01*
X14656805Y-39917522D01*
X14754948Y-39898000D01*
X14905052Y-39898000D01*
X15003195Y-39917522D01*
X15003195Y-39917522D01*
G37*
G36*
X42943195Y-39917522D02*
X42992267Y-39927283D01*
X43130942Y-39984724D01*
X43255750Y-40068118D01*
X43361882Y-40174250D01*
X43445276Y-40299058D01*
X43502717Y-40437734D01*
X43532000Y-40584948D01*
X43532000Y-40735052D01*
X43502717Y-40882266D01*
X43445276Y-41020942D01*
X43361882Y-41145750D01*
X43255750Y-41251882D01*
X43255747Y-41251884D01*
X43130942Y-41335276D01*
X42992267Y-41392717D01*
X42943195Y-41402478D01*
X42845052Y-41422000D01*
X42694948Y-41422000D01*
X42596805Y-41402478D01*
X42547733Y-41392717D01*
X42409058Y-41335276D01*
X42284253Y-41251884D01*
X42284250Y-41251882D01*
X42178118Y-41145750D01*
X42094724Y-41020942D01*
X42037283Y-40882266D01*
X42008000Y-40735052D01*
X42008000Y-40584948D01*
X42037283Y-40437734D01*
X42094724Y-40299058D01*
X42178118Y-40174250D01*
X42284250Y-40068118D01*
X42409058Y-39984724D01*
X42547733Y-39927283D01*
X42596805Y-39917522D01*
X42694948Y-39898000D01*
X42845052Y-39898000D01*
X42943195Y-39917522D01*
X42943195Y-39917522D01*
G37*
G36*
X30800000Y-41360000D02*
X29900000Y-41360000D01*
X29900000Y-40560000D01*
X30800000Y-40560000D01*
X30800000Y-41360000D01*
X30800000Y-41360000D01*
G37*
G36*
X34115960Y-39404028D02*
X34149396Y-39414170D01*
X34180199Y-39430636D01*
X34207203Y-39452797D01*
X34229364Y-39479801D01*
X34245830Y-39510604D01*
X34255972Y-39544040D01*
X34260000Y-39584938D01*
X34260000Y-40615062D01*
X34255972Y-40655960D01*
X34245830Y-40689396D01*
X34229364Y-40720199D01*
X34207203Y-40747203D01*
X34180199Y-40769364D01*
X34149396Y-40785830D01*
X34115960Y-40795972D01*
X34075062Y-40800000D01*
X33294938Y-40800000D01*
X33254040Y-40795972D01*
X33220604Y-40785830D01*
X33189801Y-40769364D01*
X33162797Y-40747203D01*
X33140636Y-40720199D01*
X33124170Y-40689396D01*
X33114028Y-40655960D01*
X33110000Y-40615062D01*
X33110000Y-39584938D01*
X33114028Y-39544040D01*
X33124170Y-39510604D01*
X33140636Y-39479801D01*
X33162797Y-39452797D01*
X33189801Y-39430636D01*
X33220604Y-39414170D01*
X33254040Y-39404028D01*
X33294938Y-39400000D01*
X34075062Y-39400000D01*
X34115960Y-39404028D01*
X34115960Y-39404028D01*
G37*
G36*
X36165960Y-39404028D02*
X36199396Y-39414170D01*
X36230199Y-39430636D01*
X36257203Y-39452797D01*
X36279364Y-39479801D01*
X36295830Y-39510604D01*
X36305972Y-39544040D01*
X36310000Y-39584938D01*
X36310000Y-40615062D01*
X36305972Y-40655960D01*
X36295830Y-40689396D01*
X36279364Y-40720199D01*
X36257203Y-40747203D01*
X36230199Y-40769364D01*
X36199396Y-40785830D01*
X36165960Y-40795972D01*
X36125062Y-40800000D01*
X35344938Y-40800000D01*
X35304040Y-40795972D01*
X35270604Y-40785830D01*
X35239801Y-40769364D01*
X35212797Y-40747203D01*
X35190636Y-40720199D01*
X35174170Y-40689396D01*
X35164028Y-40655960D01*
X35160000Y-40615062D01*
X35160000Y-39584938D01*
X35164028Y-39544040D01*
X35174170Y-39510604D01*
X35190636Y-39479801D01*
X35212797Y-39452797D01*
X35239801Y-39430636D01*
X35270604Y-39414170D01*
X35304040Y-39404028D01*
X35344938Y-39400000D01*
X36125062Y-39400000D01*
X36165960Y-39404028D01*
X36165960Y-39404028D01*
G37*
G36*
X42943195Y-37377522D02*
X42992267Y-37387283D01*
X43130942Y-37444724D01*
X43255750Y-37528118D01*
X43361882Y-37634250D01*
X43361884Y-37634253D01*
X43445276Y-37759058D01*
X43502717Y-37897733D01*
X43532000Y-38044950D01*
X43532000Y-38195050D01*
X43502717Y-38342267D01*
X43470103Y-38421004D01*
X43445276Y-38480942D01*
X43361882Y-38605750D01*
X43255750Y-38711882D01*
X43255747Y-38711884D01*
X43130942Y-38795276D01*
X42992267Y-38852717D01*
X42943195Y-38862478D01*
X42845052Y-38882000D01*
X42694948Y-38882000D01*
X42596805Y-38862478D01*
X42547733Y-38852717D01*
X42409058Y-38795276D01*
X42284253Y-38711884D01*
X42284250Y-38711882D01*
X42178118Y-38605750D01*
X42094724Y-38480942D01*
X42069897Y-38421004D01*
X42037283Y-38342267D01*
X42008000Y-38195050D01*
X42008000Y-38044950D01*
X42037283Y-37897733D01*
X42094724Y-37759058D01*
X42178116Y-37634253D01*
X42178118Y-37634250D01*
X42284250Y-37528118D01*
X42409058Y-37444724D01*
X42547733Y-37387283D01*
X42596805Y-37377522D01*
X42694948Y-37358000D01*
X42845052Y-37358000D01*
X42943195Y-37377522D01*
X42943195Y-37377522D01*
G37*
G36*
X15003195Y-37377522D02*
X15052267Y-37387283D01*
X15190942Y-37444724D01*
X15315750Y-37528118D01*
X15421882Y-37634250D01*
X15421884Y-37634253D01*
X15505276Y-37759058D01*
X15562717Y-37897733D01*
X15592000Y-38044950D01*
X15592000Y-38195050D01*
X15562717Y-38342267D01*
X15530103Y-38421004D01*
X15505276Y-38480942D01*
X15421882Y-38605750D01*
X15315750Y-38711882D01*
X15315747Y-38711884D01*
X15190942Y-38795276D01*
X15052267Y-38852717D01*
X15003195Y-38862478D01*
X14905052Y-38882000D01*
X14754948Y-38882000D01*
X14656805Y-38862478D01*
X14607733Y-38852717D01*
X14469058Y-38795276D01*
X14344253Y-38711884D01*
X14344250Y-38711882D01*
X14238118Y-38605750D01*
X14154724Y-38480942D01*
X14129897Y-38421004D01*
X14097283Y-38342267D01*
X14068000Y-38195050D01*
X14068000Y-38044950D01*
X14097283Y-37897733D01*
X14154724Y-37759058D01*
X14238116Y-37634253D01*
X14238118Y-37634250D01*
X14344250Y-37528118D01*
X14469058Y-37444724D01*
X14607733Y-37387283D01*
X14656805Y-37377522D01*
X14754948Y-37358000D01*
X14905052Y-37358000D01*
X15003195Y-37377522D01*
X15003195Y-37377522D01*
G37*
G36*
X36165960Y-37044028D02*
X36199396Y-37054170D01*
X36230199Y-37070636D01*
X36257203Y-37092797D01*
X36279364Y-37119801D01*
X36295830Y-37150604D01*
X36305972Y-37184040D01*
X36310000Y-37224938D01*
X36310000Y-38255062D01*
X36305972Y-38295960D01*
X36295830Y-38329396D01*
X36279364Y-38360199D01*
X36257203Y-38387203D01*
X36230199Y-38409364D01*
X36199396Y-38425830D01*
X36165960Y-38435972D01*
X36125062Y-38440000D01*
X35344938Y-38440000D01*
X35304040Y-38435972D01*
X35270604Y-38425830D01*
X35239801Y-38409364D01*
X35212797Y-38387203D01*
X35190636Y-38360199D01*
X35174170Y-38329396D01*
X35164028Y-38295960D01*
X35160000Y-38255062D01*
X35160000Y-37224938D01*
X35164028Y-37184040D01*
X35174170Y-37150604D01*
X35190636Y-37119801D01*
X35212797Y-37092797D01*
X35239801Y-37070636D01*
X35270604Y-37054170D01*
X35304040Y-37044028D01*
X35344938Y-37040000D01*
X36125062Y-37040000D01*
X36165960Y-37044028D01*
X36165960Y-37044028D01*
G37*
G36*
X34115960Y-37044028D02*
X34149396Y-37054170D01*
X34180199Y-37070636D01*
X34207203Y-37092797D01*
X34229364Y-37119801D01*
X34245830Y-37150604D01*
X34255972Y-37184040D01*
X34260000Y-37224938D01*
X34260000Y-38255062D01*
X34255972Y-38295960D01*
X34245830Y-38329396D01*
X34229364Y-38360199D01*
X34207203Y-38387203D01*
X34180199Y-38409364D01*
X34149396Y-38425830D01*
X34115960Y-38435972D01*
X34075062Y-38440000D01*
X33294938Y-38440000D01*
X33254040Y-38435972D01*
X33220604Y-38425830D01*
X33189801Y-38409364D01*
X33162797Y-38387203D01*
X33140636Y-38360199D01*
X33124170Y-38329396D01*
X33114028Y-38295960D01*
X33110000Y-38255062D01*
X33110000Y-37224938D01*
X33114028Y-37184040D01*
X33124170Y-37150604D01*
X33140636Y-37119801D01*
X33162797Y-37092797D01*
X33189801Y-37070636D01*
X33220604Y-37054170D01*
X33254040Y-37044028D01*
X33294938Y-37040000D01*
X34075062Y-37040000D01*
X34115960Y-37044028D01*
X34115960Y-37044028D01*
G37*
G36*
X31080000Y-38180000D02*
X30180000Y-38180000D01*
X30180000Y-37380000D01*
X31080000Y-37380000D01*
X31080000Y-38180000D01*
X31080000Y-38180000D01*
G37*
G36*
X29080000Y-37230000D02*
X28180000Y-37230000D01*
X28180000Y-36430000D01*
X29080000Y-36430000D01*
X29080000Y-37230000D01*
X29080000Y-37230000D01*
G37*
G36*
X15003195Y-34837522D02*
X15052267Y-34847283D01*
X15190942Y-34904724D01*
X15315750Y-34988118D01*
X15421882Y-35094250D01*
X15505276Y-35219058D01*
X15562717Y-35357734D01*
X15592000Y-35504948D01*
X15592000Y-35655052D01*
X15562717Y-35802266D01*
X15505276Y-35940942D01*
X15421882Y-36065750D01*
X15315750Y-36171882D01*
X15315747Y-36171884D01*
X15190942Y-36255276D01*
X15052267Y-36312717D01*
X15003195Y-36322478D01*
X14905052Y-36342000D01*
X14754948Y-36342000D01*
X14656805Y-36322478D01*
X14607733Y-36312717D01*
X14469058Y-36255276D01*
X14344253Y-36171884D01*
X14344250Y-36171882D01*
X14238118Y-36065750D01*
X14154724Y-35940942D01*
X14097283Y-35802266D01*
X14068000Y-35655052D01*
X14068000Y-35504948D01*
X14097283Y-35357734D01*
X14154724Y-35219058D01*
X14238118Y-35094250D01*
X14344250Y-34988118D01*
X14469058Y-34904724D01*
X14607733Y-34847283D01*
X14656805Y-34837522D01*
X14754948Y-34818000D01*
X14905052Y-34818000D01*
X15003195Y-34837522D01*
X15003195Y-34837522D01*
G37*
G36*
X42943195Y-34837522D02*
X42992267Y-34847283D01*
X43130942Y-34904724D01*
X43255750Y-34988118D01*
X43361882Y-35094250D01*
X43445276Y-35219058D01*
X43502717Y-35357734D01*
X43532000Y-35504948D01*
X43532000Y-35655052D01*
X43502717Y-35802266D01*
X43445276Y-35940942D01*
X43361882Y-36065750D01*
X43255750Y-36171882D01*
X43255747Y-36171884D01*
X43130942Y-36255276D01*
X42992267Y-36312717D01*
X42943195Y-36322478D01*
X42845052Y-36342000D01*
X42694948Y-36342000D01*
X42596805Y-36322478D01*
X42547733Y-36312717D01*
X42409058Y-36255276D01*
X42284253Y-36171884D01*
X42284250Y-36171882D01*
X42178118Y-36065750D01*
X42094724Y-35940942D01*
X42037283Y-35802266D01*
X42008000Y-35655052D01*
X42008000Y-35504948D01*
X42037283Y-35357734D01*
X42094724Y-35219058D01*
X42178118Y-35094250D01*
X42284250Y-34988118D01*
X42409058Y-34904724D01*
X42547733Y-34847283D01*
X42596805Y-34837522D01*
X42694948Y-34818000D01*
X42845052Y-34818000D01*
X42943195Y-34837522D01*
X42943195Y-34837522D01*
G37*
G36*
X31080000Y-36280000D02*
X30180000Y-36280000D01*
X30180000Y-35480000D01*
X31080000Y-35480000D01*
X31080000Y-36280000D01*
X31080000Y-36280000D01*
G37*
G36*
X36155960Y-34704028D02*
X36189396Y-34714170D01*
X36220199Y-34730636D01*
X36247203Y-34752797D01*
X36269364Y-34779801D01*
X36285830Y-34810604D01*
X36295972Y-34844040D01*
X36300000Y-34884938D01*
X36300000Y-35915062D01*
X36295972Y-35955960D01*
X36285830Y-35989396D01*
X36269364Y-36020199D01*
X36247203Y-36047203D01*
X36220199Y-36069364D01*
X36189396Y-36085830D01*
X36155960Y-36095972D01*
X36115062Y-36100000D01*
X35334938Y-36100000D01*
X35294040Y-36095972D01*
X35260604Y-36085830D01*
X35229801Y-36069364D01*
X35202797Y-36047203D01*
X35180636Y-36020199D01*
X35164170Y-35989396D01*
X35154028Y-35955960D01*
X35150000Y-35915062D01*
X35150000Y-34884938D01*
X35154028Y-34844040D01*
X35164170Y-34810604D01*
X35180636Y-34779801D01*
X35202797Y-34752797D01*
X35229801Y-34730636D01*
X35260604Y-34714170D01*
X35294040Y-34704028D01*
X35334938Y-34700000D01*
X36115062Y-34700000D01*
X36155960Y-34704028D01*
X36155960Y-34704028D01*
G37*
G36*
X34105960Y-34704028D02*
X34139396Y-34714170D01*
X34170199Y-34730636D01*
X34197203Y-34752797D01*
X34219364Y-34779801D01*
X34235830Y-34810604D01*
X34245972Y-34844040D01*
X34250000Y-34884938D01*
X34250000Y-35915062D01*
X34245972Y-35955960D01*
X34235830Y-35989396D01*
X34219364Y-36020199D01*
X34197203Y-36047203D01*
X34170199Y-36069364D01*
X34139396Y-36085830D01*
X34105960Y-36095972D01*
X34065062Y-36100000D01*
X33284938Y-36100000D01*
X33244040Y-36095972D01*
X33210604Y-36085830D01*
X33179801Y-36069364D01*
X33152797Y-36047203D01*
X33130636Y-36020199D01*
X33114170Y-35989396D01*
X33104028Y-35955960D01*
X33100000Y-35915062D01*
X33100000Y-34884938D01*
X33104028Y-34844040D01*
X33114170Y-34810604D01*
X33130636Y-34779801D01*
X33152797Y-34752797D01*
X33179801Y-34730636D01*
X33210604Y-34714170D01*
X33244040Y-34704028D01*
X33284938Y-34700000D01*
X34065062Y-34700000D01*
X34105960Y-34704028D01*
X34105960Y-34704028D01*
G37*
G36*
X15003195Y-32297522D02*
X15052267Y-32307283D01*
X15190942Y-32364724D01*
X15315750Y-32448118D01*
X15421882Y-32554250D01*
X15505276Y-32679058D01*
X15562717Y-32817734D01*
X15592000Y-32964948D01*
X15592000Y-33115052D01*
X15562717Y-33262266D01*
X15505276Y-33400942D01*
X15421882Y-33525750D01*
X15315750Y-33631882D01*
X15315747Y-33631884D01*
X15190942Y-33715276D01*
X15052267Y-33772717D01*
X15010605Y-33781004D01*
X14905052Y-33802000D01*
X14754948Y-33802000D01*
X14649395Y-33781004D01*
X14607733Y-33772717D01*
X14469058Y-33715276D01*
X14344253Y-33631884D01*
X14344250Y-33631882D01*
X14238118Y-33525750D01*
X14154724Y-33400942D01*
X14097283Y-33262266D01*
X14068000Y-33115052D01*
X14068000Y-32964948D01*
X14097283Y-32817734D01*
X14154724Y-32679058D01*
X14238118Y-32554250D01*
X14344250Y-32448118D01*
X14469058Y-32364724D01*
X14607733Y-32307283D01*
X14656805Y-32297522D01*
X14754948Y-32278000D01*
X14905052Y-32278000D01*
X15003195Y-32297522D01*
X15003195Y-32297522D01*
G37*
G36*
X42943195Y-32297522D02*
X42992267Y-32307283D01*
X43130942Y-32364724D01*
X43255750Y-32448118D01*
X43361882Y-32554250D01*
X43445276Y-32679058D01*
X43502717Y-32817734D01*
X43532000Y-32964948D01*
X43532000Y-33115052D01*
X43502717Y-33262266D01*
X43445276Y-33400942D01*
X43361882Y-33525750D01*
X43255750Y-33631882D01*
X43255747Y-33631884D01*
X43130942Y-33715276D01*
X42992267Y-33772717D01*
X42950605Y-33781004D01*
X42845052Y-33802000D01*
X42694948Y-33802000D01*
X42589395Y-33781004D01*
X42547733Y-33772717D01*
X42409058Y-33715276D01*
X42284253Y-33631884D01*
X42284250Y-33631882D01*
X42178118Y-33525750D01*
X42094724Y-33400942D01*
X42037283Y-33262266D01*
X42008000Y-33115052D01*
X42008000Y-32964948D01*
X42037283Y-32817734D01*
X42094724Y-32679058D01*
X42178118Y-32554250D01*
X42284250Y-32448118D01*
X42409058Y-32364724D01*
X42547733Y-32307283D01*
X42596805Y-32297522D01*
X42694948Y-32278000D01*
X42845052Y-32278000D01*
X42943195Y-32297522D01*
X42943195Y-32297522D01*
G37*
G36*
X36155960Y-32404028D02*
X36189396Y-32414170D01*
X36220199Y-32430636D01*
X36247203Y-32452797D01*
X36269364Y-32479801D01*
X36285830Y-32510604D01*
X36295972Y-32544040D01*
X36300000Y-32584938D01*
X36300000Y-33615062D01*
X36295972Y-33655960D01*
X36285830Y-33689396D01*
X36269364Y-33720199D01*
X36247203Y-33747203D01*
X36220199Y-33769364D01*
X36189396Y-33785830D01*
X36155960Y-33795972D01*
X36115062Y-33800000D01*
X35334938Y-33800000D01*
X35294040Y-33795972D01*
X35260604Y-33785830D01*
X35229801Y-33769364D01*
X35202797Y-33747203D01*
X35180636Y-33720199D01*
X35164170Y-33689396D01*
X35154028Y-33655960D01*
X35150000Y-33615062D01*
X35150000Y-32584938D01*
X35154028Y-32544040D01*
X35164170Y-32510604D01*
X35180636Y-32479801D01*
X35202797Y-32452797D01*
X35229801Y-32430636D01*
X35260604Y-32414170D01*
X35294040Y-32404028D01*
X35334938Y-32400000D01*
X36115062Y-32400000D01*
X36155960Y-32404028D01*
X36155960Y-32404028D01*
G37*
G36*
X34105960Y-32404028D02*
X34139396Y-32414170D01*
X34170199Y-32430636D01*
X34197203Y-32452797D01*
X34219364Y-32479801D01*
X34235830Y-32510604D01*
X34245972Y-32544040D01*
X34250000Y-32584938D01*
X34250000Y-33615062D01*
X34245972Y-33655960D01*
X34235830Y-33689396D01*
X34219364Y-33720199D01*
X34197203Y-33747203D01*
X34170199Y-33769364D01*
X34139396Y-33785830D01*
X34105960Y-33795972D01*
X34065062Y-33800000D01*
X33284938Y-33800000D01*
X33244040Y-33795972D01*
X33210604Y-33785830D01*
X33179801Y-33769364D01*
X33152797Y-33747203D01*
X33130636Y-33720199D01*
X33114170Y-33689396D01*
X33104028Y-33655960D01*
X33100000Y-33615062D01*
X33100000Y-32584938D01*
X33104028Y-32544040D01*
X33114170Y-32510604D01*
X33130636Y-32479801D01*
X33152797Y-32452797D01*
X33179801Y-32430636D01*
X33210604Y-32414170D01*
X33244040Y-32404028D01*
X33284938Y-32400000D01*
X34065062Y-32400000D01*
X34105960Y-32404028D01*
X34105960Y-32404028D01*
G37*
G36*
X31080000Y-33110000D02*
X30180000Y-33110000D01*
X30180000Y-32310000D01*
X31080000Y-32310000D01*
X31080000Y-33110000D01*
X31080000Y-33110000D01*
G37*
G36*
X29080000Y-32160000D02*
X28180000Y-32160000D01*
X28180000Y-31360000D01*
X29080000Y-31360000D01*
X29080000Y-32160000D01*
X29080000Y-32160000D01*
G37*
G36*
X23429024Y-30708955D02*
X23461736Y-30718879D01*
X23491890Y-30734997D01*
X23518316Y-30756684D01*
X23540003Y-30783110D01*
X23556121Y-30813264D01*
X23566045Y-30845976D01*
X23570000Y-30886138D01*
X23570000Y-31473862D01*
X23566045Y-31514024D01*
X23556121Y-31546736D01*
X23540003Y-31576890D01*
X23518316Y-31603316D01*
X23491890Y-31625003D01*
X23461736Y-31641121D01*
X23429024Y-31651045D01*
X23388862Y-31655000D01*
X22701138Y-31655000D01*
X22660976Y-31651045D01*
X22628264Y-31641121D01*
X22598110Y-31625003D01*
X22571684Y-31603316D01*
X22549997Y-31576890D01*
X22533879Y-31546736D01*
X22523955Y-31514024D01*
X22520000Y-31473862D01*
X22520000Y-30886138D01*
X22523955Y-30845976D01*
X22533879Y-30813264D01*
X22549997Y-30783110D01*
X22571684Y-30756684D01*
X22598110Y-30734997D01*
X22628264Y-30718879D01*
X22660976Y-30708955D01*
X22701138Y-30705000D01*
X23388862Y-30705000D01*
X23429024Y-30708955D01*
X23429024Y-30708955D01*
G37*
G36*
X25179024Y-30708955D02*
X25211736Y-30718879D01*
X25241890Y-30734997D01*
X25268316Y-30756684D01*
X25290003Y-30783110D01*
X25306121Y-30813264D01*
X25316045Y-30845976D01*
X25320000Y-30886138D01*
X25320000Y-31473862D01*
X25316045Y-31514024D01*
X25306121Y-31546736D01*
X25290003Y-31576890D01*
X25268316Y-31603316D01*
X25241890Y-31625003D01*
X25211736Y-31641121D01*
X25179024Y-31651045D01*
X25138862Y-31655000D01*
X24451138Y-31655000D01*
X24410976Y-31651045D01*
X24378264Y-31641121D01*
X24348110Y-31625003D01*
X24321684Y-31603316D01*
X24299997Y-31576890D01*
X24283879Y-31546736D01*
X24273955Y-31514024D01*
X24270000Y-31473862D01*
X24270000Y-30886138D01*
X24273955Y-30845976D01*
X24283879Y-30813264D01*
X24299997Y-30783110D01*
X24321684Y-30756684D01*
X24348110Y-30734997D01*
X24378264Y-30718879D01*
X24410976Y-30708955D01*
X24451138Y-30705000D01*
X25138862Y-30705000D01*
X25179024Y-30708955D01*
X25179024Y-30708955D01*
G37*
G36*
X42930516Y-29755000D02*
X42992267Y-29767283D01*
X43130942Y-29824724D01*
X43255750Y-29908118D01*
X43361882Y-30014250D01*
X43445276Y-30139058D01*
X43502717Y-30277734D01*
X43532000Y-30424948D01*
X43532000Y-30575052D01*
X43531662Y-30576751D01*
X43502717Y-30722267D01*
X43477515Y-30783110D01*
X43445276Y-30860942D01*
X43361882Y-30985750D01*
X43255750Y-31091882D01*
X43255747Y-31091884D01*
X43130942Y-31175276D01*
X42992267Y-31232717D01*
X42943195Y-31242478D01*
X42845052Y-31262000D01*
X42694948Y-31262000D01*
X42596805Y-31242478D01*
X42547733Y-31232717D01*
X42409058Y-31175276D01*
X42284253Y-31091884D01*
X42284250Y-31091882D01*
X42178118Y-30985750D01*
X42094724Y-30860942D01*
X42062485Y-30783110D01*
X42037283Y-30722267D01*
X42008338Y-30576751D01*
X42008000Y-30575052D01*
X42008000Y-30424948D01*
X42037283Y-30277734D01*
X42094724Y-30139058D01*
X42178118Y-30014250D01*
X42284250Y-29908118D01*
X42409058Y-29824724D01*
X42547733Y-29767283D01*
X42609484Y-29755000D01*
X42694948Y-29738000D01*
X42845052Y-29738000D01*
X42930516Y-29755000D01*
X42930516Y-29755000D01*
G37*
G36*
X14990516Y-29755000D02*
X15052267Y-29767283D01*
X15190942Y-29824724D01*
X15315750Y-29908118D01*
X15421882Y-30014250D01*
X15505276Y-30139058D01*
X15562717Y-30277734D01*
X15592000Y-30424948D01*
X15592000Y-30575052D01*
X15591662Y-30576751D01*
X15562717Y-30722267D01*
X15537515Y-30783110D01*
X15505276Y-30860942D01*
X15421882Y-30985750D01*
X15315750Y-31091882D01*
X15315747Y-31091884D01*
X15190942Y-31175276D01*
X15052267Y-31232717D01*
X15003195Y-31242478D01*
X14905052Y-31262000D01*
X14754948Y-31262000D01*
X14656805Y-31242478D01*
X14607733Y-31232717D01*
X14469058Y-31175276D01*
X14344253Y-31091884D01*
X14344250Y-31091882D01*
X14238118Y-30985750D01*
X14154724Y-30860942D01*
X14122485Y-30783110D01*
X14097283Y-30722267D01*
X14068338Y-30576751D01*
X14068000Y-30575052D01*
X14068000Y-30424948D01*
X14097283Y-30277734D01*
X14154724Y-30139058D01*
X14238118Y-30014250D01*
X14344250Y-29908118D01*
X14469058Y-29824724D01*
X14607733Y-29767283D01*
X14669484Y-29755000D01*
X14754948Y-29738000D01*
X14905052Y-29738000D01*
X14990516Y-29755000D01*
X14990516Y-29755000D01*
G37*
G36*
X31080000Y-31210000D02*
X30180000Y-31210000D01*
X30180000Y-30410000D01*
X31080000Y-30410000D01*
X31080000Y-31210000D01*
X31080000Y-31210000D01*
G37*
G36*
X33775770Y-28815372D02*
X33891689Y-28838429D01*
X34073678Y-28913811D01*
X34237463Y-29023249D01*
X34376751Y-29162537D01*
X34486189Y-29326322D01*
X34561571Y-29508311D01*
X34581477Y-29608387D01*
X34600000Y-29701507D01*
X34600000Y-29898493D01*
X34598085Y-29908118D01*
X34561571Y-30091689D01*
X34486189Y-30273678D01*
X34376751Y-30437463D01*
X34237463Y-30576751D01*
X34073678Y-30686189D01*
X33891689Y-30761571D01*
X33783404Y-30783110D01*
X33698493Y-30800000D01*
X33501507Y-30800000D01*
X33416596Y-30783110D01*
X33308311Y-30761571D01*
X33126322Y-30686189D01*
X32962537Y-30576751D01*
X32823249Y-30437463D01*
X32713811Y-30273678D01*
X32638429Y-30091689D01*
X32601915Y-29908118D01*
X32600000Y-29898493D01*
X32600000Y-29701507D01*
X32618523Y-29608387D01*
X32638429Y-29508311D01*
X32713811Y-29326322D01*
X32823249Y-29162537D01*
X32962537Y-29023249D01*
X33126322Y-28913811D01*
X33308311Y-28838429D01*
X33424230Y-28815372D01*
X33501507Y-28800000D01*
X33698493Y-28800000D01*
X33775770Y-28815372D01*
X33775770Y-28815372D01*
G37*
G36*
X38275770Y-28815372D02*
X38391689Y-28838429D01*
X38573678Y-28913811D01*
X38737463Y-29023249D01*
X38876751Y-29162537D01*
X38986189Y-29326322D01*
X39061571Y-29508311D01*
X39081477Y-29608387D01*
X39100000Y-29701507D01*
X39100000Y-29898493D01*
X39098085Y-29908118D01*
X39061571Y-30091689D01*
X38986189Y-30273678D01*
X38876751Y-30437463D01*
X38737463Y-30576751D01*
X38573678Y-30686189D01*
X38391689Y-30761571D01*
X38283404Y-30783110D01*
X38198493Y-30800000D01*
X38001507Y-30800000D01*
X37916596Y-30783110D01*
X37808311Y-30761571D01*
X37626322Y-30686189D01*
X37462537Y-30576751D01*
X37323249Y-30437463D01*
X37213811Y-30273678D01*
X37138429Y-30091689D01*
X37101915Y-29908118D01*
X37100000Y-29898493D01*
X37100000Y-29701507D01*
X37118523Y-29608387D01*
X37138429Y-29508311D01*
X37213811Y-29326322D01*
X37323249Y-29162537D01*
X37462537Y-29023249D01*
X37626322Y-28913811D01*
X37808311Y-28838429D01*
X37924230Y-28815372D01*
X38001507Y-28800000D01*
X38198493Y-28800000D01*
X38275770Y-28815372D01*
X38275770Y-28815372D01*
G37*
G36*
X23429024Y-28808955D02*
X23461736Y-28818879D01*
X23491890Y-28834997D01*
X23518316Y-28856684D01*
X23540003Y-28883110D01*
X23556121Y-28913264D01*
X23566045Y-28945976D01*
X23570000Y-28986138D01*
X23570000Y-29573862D01*
X23566045Y-29614024D01*
X23556121Y-29646736D01*
X23540003Y-29676890D01*
X23518316Y-29703316D01*
X23491890Y-29725003D01*
X23461736Y-29741121D01*
X23429024Y-29751045D01*
X23388862Y-29755000D01*
X22701138Y-29755000D01*
X22660976Y-29751045D01*
X22628264Y-29741121D01*
X22598110Y-29725003D01*
X22571684Y-29703316D01*
X22549997Y-29676890D01*
X22533879Y-29646736D01*
X22523955Y-29614024D01*
X22520000Y-29573862D01*
X22520000Y-28986138D01*
X22523955Y-28945976D01*
X22533879Y-28913264D01*
X22549997Y-28883110D01*
X22571684Y-28856684D01*
X22598110Y-28834997D01*
X22628264Y-28818879D01*
X22660976Y-28808955D01*
X22701138Y-28805000D01*
X23388862Y-28805000D01*
X23429024Y-28808955D01*
X23429024Y-28808955D01*
G37*
G36*
X25179024Y-28808955D02*
X25211736Y-28818879D01*
X25241890Y-28834997D01*
X25268316Y-28856684D01*
X25290003Y-28883110D01*
X25306121Y-28913264D01*
X25316045Y-28945976D01*
X25320000Y-28986138D01*
X25320000Y-29573862D01*
X25316045Y-29614024D01*
X25306121Y-29646736D01*
X25290003Y-29676890D01*
X25268316Y-29703316D01*
X25241890Y-29725003D01*
X25211736Y-29741121D01*
X25179024Y-29751045D01*
X25138862Y-29755000D01*
X24451138Y-29755000D01*
X24410976Y-29751045D01*
X24378264Y-29741121D01*
X24348110Y-29725003D01*
X24321684Y-29703316D01*
X24299997Y-29676890D01*
X24283879Y-29646736D01*
X24273955Y-29614024D01*
X24270000Y-29573862D01*
X24270000Y-28986138D01*
X24273955Y-28945976D01*
X24283879Y-28913264D01*
X24299997Y-28883110D01*
X24321684Y-28856684D01*
X24348110Y-28834997D01*
X24378264Y-28818879D01*
X24410976Y-28808955D01*
X24451138Y-28805000D01*
X25138862Y-28805000D01*
X25179024Y-28808955D01*
X25179024Y-28808955D01*
G37*
G36*
X15003195Y-27217522D02*
X15052267Y-27227283D01*
X15190942Y-27284724D01*
X15315750Y-27368118D01*
X15421882Y-27474250D01*
X15421884Y-27474253D01*
X15505276Y-27599058D01*
X15557039Y-27724024D01*
X15562717Y-27737734D01*
X15592000Y-27884948D01*
X15592000Y-28035052D01*
X15562717Y-28182266D01*
X15505276Y-28320942D01*
X15421882Y-28445750D01*
X15315750Y-28551882D01*
X15315747Y-28551884D01*
X15190942Y-28635276D01*
X15052267Y-28692717D01*
X15003195Y-28702478D01*
X14905052Y-28722000D01*
X14754948Y-28722000D01*
X14656805Y-28702478D01*
X14607733Y-28692717D01*
X14469058Y-28635276D01*
X14344253Y-28551884D01*
X14344250Y-28551882D01*
X14238118Y-28445750D01*
X14154724Y-28320942D01*
X14097283Y-28182266D01*
X14068000Y-28035052D01*
X14068000Y-27884948D01*
X14097283Y-27737734D01*
X14102962Y-27724024D01*
X14154724Y-27599058D01*
X14238116Y-27474253D01*
X14238118Y-27474250D01*
X14344250Y-27368118D01*
X14469058Y-27284724D01*
X14607733Y-27227283D01*
X14656805Y-27217522D01*
X14754948Y-27198000D01*
X14905052Y-27198000D01*
X15003195Y-27217522D01*
X15003195Y-27217522D01*
G37*
G36*
X42943195Y-27217522D02*
X42992267Y-27227283D01*
X43130942Y-27284724D01*
X43255750Y-27368118D01*
X43361882Y-27474250D01*
X43361884Y-27474253D01*
X43445276Y-27599058D01*
X43497039Y-27724024D01*
X43502717Y-27737734D01*
X43532000Y-27884948D01*
X43532000Y-28035052D01*
X43502717Y-28182266D01*
X43445276Y-28320942D01*
X43361882Y-28445750D01*
X43255750Y-28551882D01*
X43255747Y-28551884D01*
X43130942Y-28635276D01*
X42992267Y-28692717D01*
X42943195Y-28702478D01*
X42845052Y-28722000D01*
X42694948Y-28722000D01*
X42596805Y-28702478D01*
X42547733Y-28692717D01*
X42409058Y-28635276D01*
X42284253Y-28551884D01*
X42284250Y-28551882D01*
X42178118Y-28445750D01*
X42094724Y-28320942D01*
X42037283Y-28182266D01*
X42008000Y-28035052D01*
X42008000Y-27884948D01*
X42037283Y-27737734D01*
X42042962Y-27724024D01*
X42094724Y-27599058D01*
X42178116Y-27474253D01*
X42178118Y-27474250D01*
X42284250Y-27368118D01*
X42409058Y-27284724D01*
X42547733Y-27227283D01*
X42596805Y-27217522D01*
X42694948Y-27198000D01*
X42845052Y-27198000D01*
X42943195Y-27217522D01*
X42943195Y-27217522D01*
G37*
G36*
X23429024Y-26918955D02*
X23461736Y-26928879D01*
X23491890Y-26944997D01*
X23518316Y-26966684D01*
X23540003Y-26993110D01*
X23556121Y-27023264D01*
X23566045Y-27055976D01*
X23570000Y-27096138D01*
X23570000Y-27683862D01*
X23566045Y-27724024D01*
X23556121Y-27756736D01*
X23540003Y-27786890D01*
X23518316Y-27813316D01*
X23491890Y-27835003D01*
X23461736Y-27851121D01*
X23429024Y-27861045D01*
X23388862Y-27865000D01*
X22701138Y-27865000D01*
X22660976Y-27861045D01*
X22628264Y-27851121D01*
X22598110Y-27835003D01*
X22571684Y-27813316D01*
X22549997Y-27786890D01*
X22533879Y-27756736D01*
X22523955Y-27724024D01*
X22520000Y-27683862D01*
X22520000Y-27096138D01*
X22523955Y-27055976D01*
X22533879Y-27023264D01*
X22549997Y-26993110D01*
X22571684Y-26966684D01*
X22598110Y-26944997D01*
X22628264Y-26928879D01*
X22660976Y-26918955D01*
X22701138Y-26915000D01*
X23388862Y-26915000D01*
X23429024Y-26918955D01*
X23429024Y-26918955D01*
G37*
G36*
X25179024Y-26918955D02*
X25211736Y-26928879D01*
X25241890Y-26944997D01*
X25268316Y-26966684D01*
X25290003Y-26993110D01*
X25306121Y-27023264D01*
X25316045Y-27055976D01*
X25320000Y-27096138D01*
X25320000Y-27683862D01*
X25316045Y-27724024D01*
X25306121Y-27756736D01*
X25290003Y-27786890D01*
X25268316Y-27813316D01*
X25241890Y-27835003D01*
X25211736Y-27851121D01*
X25179024Y-27861045D01*
X25138862Y-27865000D01*
X24451138Y-27865000D01*
X24410976Y-27861045D01*
X24378264Y-27851121D01*
X24348110Y-27835003D01*
X24321684Y-27813316D01*
X24299997Y-27786890D01*
X24283879Y-27756736D01*
X24273955Y-27724024D01*
X24270000Y-27683862D01*
X24270000Y-27096138D01*
X24273955Y-27055976D01*
X24283879Y-27023264D01*
X24299997Y-26993110D01*
X24321684Y-26966684D01*
X24348110Y-26944997D01*
X24378264Y-26928879D01*
X24410976Y-26918955D01*
X24451138Y-26915000D01*
X25138862Y-26915000D01*
X25179024Y-26918955D01*
X25179024Y-26918955D01*
G37*
G36*
X15003195Y-24677522D02*
X15052267Y-24687283D01*
X15190942Y-24744724D01*
X15315750Y-24828118D01*
X15421882Y-24934250D01*
X15505276Y-25059058D01*
X15562717Y-25197734D01*
X15592000Y-25344948D01*
X15592000Y-25495052D01*
X15562717Y-25642266D01*
X15505276Y-25780942D01*
X15421882Y-25905750D01*
X15315750Y-26011882D01*
X15315747Y-26011884D01*
X15190942Y-26095276D01*
X15052267Y-26152717D01*
X15003195Y-26162478D01*
X14905052Y-26182000D01*
X14754948Y-26182000D01*
X14656805Y-26162478D01*
X14607733Y-26152717D01*
X14469058Y-26095276D01*
X14344253Y-26011884D01*
X14344250Y-26011882D01*
X14238118Y-25905750D01*
X14154724Y-25780942D01*
X14097283Y-25642266D01*
X14068000Y-25495052D01*
X14068000Y-25344948D01*
X14097283Y-25197734D01*
X14154724Y-25059058D01*
X14238118Y-24934250D01*
X14344250Y-24828118D01*
X14469058Y-24744724D01*
X14607733Y-24687283D01*
X14656805Y-24677522D01*
X14754948Y-24658000D01*
X14905052Y-24658000D01*
X15003195Y-24677522D01*
X15003195Y-24677522D01*
G37*
G36*
X42943195Y-24677522D02*
X42992267Y-24687283D01*
X43130942Y-24744724D01*
X43255750Y-24828118D01*
X43361882Y-24934250D01*
X43445276Y-25059058D01*
X43502717Y-25197734D01*
X43532000Y-25344948D01*
X43532000Y-25495052D01*
X43502717Y-25642266D01*
X43445276Y-25780942D01*
X43361882Y-25905750D01*
X43255750Y-26011882D01*
X43255747Y-26011884D01*
X43130942Y-26095276D01*
X42992267Y-26152717D01*
X42943195Y-26162478D01*
X42845052Y-26182000D01*
X42694948Y-26182000D01*
X42596805Y-26162478D01*
X42547733Y-26152717D01*
X42409058Y-26095276D01*
X42284253Y-26011884D01*
X42284250Y-26011882D01*
X42178118Y-25905750D01*
X42094724Y-25780942D01*
X42037283Y-25642266D01*
X42008000Y-25495052D01*
X42008000Y-25344948D01*
X42037283Y-25197734D01*
X42094724Y-25059058D01*
X42178118Y-24934250D01*
X42284250Y-24828118D01*
X42409058Y-24744724D01*
X42547733Y-24687283D01*
X42596805Y-24677522D01*
X42694948Y-24658000D01*
X42845052Y-24658000D01*
X42943195Y-24677522D01*
X42943195Y-24677522D01*
G37*
G36*
X33775770Y-22315372D02*
X33891689Y-22338429D01*
X34073678Y-22413811D01*
X34237463Y-22523249D01*
X34376751Y-22662537D01*
X34486189Y-22826322D01*
X34561571Y-23008311D01*
X34600000Y-23201509D01*
X34600000Y-23398491D01*
X34561571Y-23591689D01*
X34486189Y-23773678D01*
X34376751Y-23937463D01*
X34237463Y-24076751D01*
X34073678Y-24186189D01*
X33891689Y-24261571D01*
X33775770Y-24284628D01*
X33698493Y-24300000D01*
X33501507Y-24300000D01*
X33424230Y-24284628D01*
X33308311Y-24261571D01*
X33126322Y-24186189D01*
X32962537Y-24076751D01*
X32823249Y-23937463D01*
X32713811Y-23773678D01*
X32638429Y-23591689D01*
X32600000Y-23398491D01*
X32600000Y-23201509D01*
X32638429Y-23008311D01*
X32713811Y-22826322D01*
X32823249Y-22662537D01*
X32962537Y-22523249D01*
X33126322Y-22413811D01*
X33308311Y-22338429D01*
X33424230Y-22315372D01*
X33501507Y-22300000D01*
X33698493Y-22300000D01*
X33775770Y-22315372D01*
X33775770Y-22315372D01*
G37*
G36*
X38275770Y-22315372D02*
X38391689Y-22338429D01*
X38573678Y-22413811D01*
X38737463Y-22523249D01*
X38876751Y-22662537D01*
X38986189Y-22826322D01*
X39061571Y-23008311D01*
X39100000Y-23201509D01*
X39100000Y-23398491D01*
X39061571Y-23591689D01*
X38986189Y-23773678D01*
X38876751Y-23937463D01*
X38737463Y-24076751D01*
X38573678Y-24186189D01*
X38391689Y-24261571D01*
X38275770Y-24284628D01*
X38198493Y-24300000D01*
X38001507Y-24300000D01*
X37924230Y-24284628D01*
X37808311Y-24261571D01*
X37626322Y-24186189D01*
X37462537Y-24076751D01*
X37323249Y-23937463D01*
X37213811Y-23773678D01*
X37138429Y-23591689D01*
X37100000Y-23398491D01*
X37100000Y-23201509D01*
X37138429Y-23008311D01*
X37213811Y-22826322D01*
X37323249Y-22662537D01*
X37462537Y-22523249D01*
X37626322Y-22413811D01*
X37808311Y-22338429D01*
X37924230Y-22315372D01*
X38001507Y-22300000D01*
X38198493Y-22300000D01*
X38275770Y-22315372D01*
X38275770Y-22315372D01*
G37*
G36*
X42943195Y-22137522D02*
X42992267Y-22147283D01*
X43130942Y-22204724D01*
X43255750Y-22288118D01*
X43361882Y-22394250D01*
X43361884Y-22394253D01*
X43445276Y-22519058D01*
X43502717Y-22657733D01*
X43512478Y-22706805D01*
X43532000Y-22804948D01*
X43532000Y-22955052D01*
X43502717Y-23102266D01*
X43445276Y-23240942D01*
X43361882Y-23365750D01*
X43255750Y-23471882D01*
X43255747Y-23471884D01*
X43130942Y-23555276D01*
X42992267Y-23612717D01*
X42943195Y-23622478D01*
X42845052Y-23642000D01*
X42694948Y-23642000D01*
X42596805Y-23622478D01*
X42547733Y-23612717D01*
X42409058Y-23555276D01*
X42284253Y-23471884D01*
X42284250Y-23471882D01*
X42178118Y-23365750D01*
X42094724Y-23240942D01*
X42037283Y-23102266D01*
X42008000Y-22955052D01*
X42008000Y-22804948D01*
X42027522Y-22706805D01*
X42037283Y-22657733D01*
X42094724Y-22519058D01*
X42178116Y-22394253D01*
X42178118Y-22394250D01*
X42284250Y-22288118D01*
X42409058Y-22204724D01*
X42547733Y-22147283D01*
X42596805Y-22137522D01*
X42694948Y-22118000D01*
X42845052Y-22118000D01*
X42943195Y-22137522D01*
X42943195Y-22137522D01*
G37*
G36*
X15003195Y-22137522D02*
X15052267Y-22147283D01*
X15190942Y-22204724D01*
X15315750Y-22288118D01*
X15421882Y-22394250D01*
X15421884Y-22394253D01*
X15505276Y-22519058D01*
X15562717Y-22657733D01*
X15572478Y-22706805D01*
X15592000Y-22804948D01*
X15592000Y-22955052D01*
X15562717Y-23102266D01*
X15505276Y-23240942D01*
X15421882Y-23365750D01*
X15315750Y-23471882D01*
X15315747Y-23471884D01*
X15190942Y-23555276D01*
X15052267Y-23612717D01*
X15003195Y-23622478D01*
X14905052Y-23642000D01*
X14754948Y-23642000D01*
X14656805Y-23622478D01*
X14607733Y-23612717D01*
X14469058Y-23555276D01*
X14344253Y-23471884D01*
X14344250Y-23471882D01*
X14238118Y-23365750D01*
X14154724Y-23240942D01*
X14097283Y-23102266D01*
X14068000Y-22955052D01*
X14068000Y-22804948D01*
X14087522Y-22706805D01*
X14097283Y-22657733D01*
X14154724Y-22519058D01*
X14238116Y-22394253D01*
X14238118Y-22394250D01*
X14344250Y-22288118D01*
X14469058Y-22204724D01*
X14607733Y-22147283D01*
X14656805Y-22137522D01*
X14754948Y-22118000D01*
X14905052Y-22118000D01*
X15003195Y-22137522D01*
X15003195Y-22137522D01*
G37*
G36*
X34124000Y-20500000D02*
X32424000Y-20500000D01*
X32424000Y-18800000D01*
X34124000Y-18800000D01*
X34124000Y-20500000D01*
X34124000Y-20500000D01*
G37*
G36*
X35980630Y-18812299D02*
X36140855Y-18860903D01*
X36288520Y-18939831D01*
X36417949Y-19046051D01*
X36524169Y-19175480D01*
X36603097Y-19323145D01*
X36651701Y-19483370D01*
X36668112Y-19650000D01*
X36651701Y-19816630D01*
X36603097Y-19976855D01*
X36524169Y-20124520D01*
X36417949Y-20253949D01*
X36288520Y-20360169D01*
X36140855Y-20439097D01*
X35980630Y-20487701D01*
X35855752Y-20500000D01*
X35772248Y-20500000D01*
X35647370Y-20487701D01*
X35487145Y-20439097D01*
X35339480Y-20360169D01*
X35210051Y-20253949D01*
X35103831Y-20124520D01*
X35024903Y-19976855D01*
X34976299Y-19816630D01*
X34959888Y-19650000D01*
X34976299Y-19483370D01*
X35024903Y-19323145D01*
X35103831Y-19175480D01*
X35210051Y-19046051D01*
X35339480Y-18939831D01*
X35487145Y-18860903D01*
X35647370Y-18812299D01*
X35772248Y-18800000D01*
X35855752Y-18800000D01*
X35980630Y-18812299D01*
X35980630Y-18812299D01*
G37*
G36*
X41995703Y-13701486D02*
X42286883Y-13822097D01*
X42548944Y-13997201D01*
X42771799Y-14220056D01*
X42946903Y-14482117D01*
X43067514Y-14773297D01*
X43129000Y-15082412D01*
X43129000Y-15397588D01*
X43067514Y-15706703D01*
X42946903Y-15997883D01*
X42771799Y-16259944D01*
X42548944Y-16482799D01*
X42286883Y-16657903D01*
X41995703Y-16778514D01*
X41686588Y-16840000D01*
X41371412Y-16840000D01*
X41062297Y-16778514D01*
X40771117Y-16657903D01*
X40509056Y-16482799D01*
X40286201Y-16259944D01*
X40111097Y-15997883D01*
X39990486Y-15706703D01*
X39929000Y-15397588D01*
X39929000Y-15082412D01*
X39990486Y-14773297D01*
X40111097Y-14482117D01*
X40286201Y-14220056D01*
X40509056Y-13997201D01*
X40771117Y-13822097D01*
X41062297Y-13701486D01*
X41371412Y-13640000D01*
X41686588Y-13640000D01*
X41995703Y-13701486D01*
X41995703Y-13701486D01*
G37*
G36*
X16595703Y-13701486D02*
X16886883Y-13822097D01*
X17148944Y-13997201D01*
X17371799Y-14220056D01*
X17546903Y-14482117D01*
X17667514Y-14773297D01*
X17729000Y-15082412D01*
X17729000Y-15397588D01*
X17667514Y-15706703D01*
X17546903Y-15997883D01*
X17371799Y-16259944D01*
X17148944Y-16482799D01*
X16886883Y-16657903D01*
X16595703Y-16778514D01*
X16286588Y-16840000D01*
X15971412Y-16840000D01*
X15662297Y-16778514D01*
X15371117Y-16657903D01*
X15109056Y-16482799D01*
X14886201Y-16259944D01*
X14711097Y-15997883D01*
X14590486Y-15706703D01*
X14529000Y-15397588D01*
X14529000Y-15082412D01*
X14590486Y-14773297D01*
X14711097Y-14482117D01*
X14886201Y-14220056D01*
X15109056Y-13997201D01*
X15371117Y-13822097D01*
X15662297Y-13701486D01*
X15971412Y-13640000D01*
X16286588Y-13640000D01*
X16595703Y-13701486D01*
X16595703Y-13701486D01*
G37*
M02*
