M48
;DRILL file {KiCad (5.0.2)-1} date 06/25/19 19:05:57
;FORMAT={-:-/ absolute / metric / decimal}
FMAT,2
METRIC,TZ
T1C0.400
T2C0.762
T3C1.000
T4C1.100
%
G90
G05
T1
X26.89Y-35.12
X26.9Y-40.17
X26.9Y-45.27
X26.9Y-50.31
X27.94Y-38.59
X29.Y-26.5
X30.1Y-27.5
X30.7Y-34.3
X31.9Y-47.09
X31.92Y-51.5
X32.Y-34.3
X32.1Y-38.93
X32.16Y-41.1
X35.7Y-47.1
X37.2Y-46.2
T2
X14.83Y-22.88
X14.83Y-25.42
X14.83Y-27.96
X14.83Y-30.5
X14.83Y-33.04
X14.83Y-35.58
X14.83Y-38.12
X14.83Y-40.66
X14.83Y-43.2
X14.83Y-45.74
X14.83Y-48.28
X14.83Y-50.82
X14.83Y-53.36
X14.83Y-55.9
X14.83Y-58.44
X42.77Y-22.88
X42.77Y-25.42
X42.77Y-27.96
X42.77Y-30.5
X42.77Y-33.04
X42.77Y-35.58
X42.77Y-38.12
X42.77Y-40.66
X42.77Y-43.2
X42.77Y-45.74
X42.77Y-48.28
X42.77Y-50.82
X42.77Y-53.36
X42.77Y-55.9
X42.77Y-58.44
T3
X33.274Y-62.865
X35.814Y-62.865
X33.274Y-19.65
X35.814Y-19.65
X20.36Y-61.8
X22.9Y-61.8
X25.44Y-61.8
X27.98Y-61.8
T4
X33.6Y-23.3
X33.6Y-29.8
X38.1Y-23.3
X38.1Y-29.8
T0
M30
