G04 #@! TF.GenerationSoftware,KiCad,Pcbnew,(5.0.2)-1*
G04 #@! TF.CreationDate,2019-06-27T16:40:19+05:30*
G04 #@! TF.ProjectId,mAhTime,6d416854-696d-4652-9e6b-696361645f70,rev?*
G04 #@! TF.SameCoordinates,Original*
G04 #@! TF.FileFunction,Other,Fab,Bot*
%FSLAX46Y46*%
G04 Gerber Fmt 4.6, Leading zero omitted, Abs format (unit mm)*
G04 Created by KiCad (PCBNEW (5.0.2)-1) date 06/27/19 16:40:19*
%MOMM*%
%LPD*%
G01*
G04 APERTURE LIST*
%ADD10C,0.100000*%
%ADD11C,0.150000*%
G04 APERTURE END LIST*
D10*
G04 #@! TO.C,J3*
X19725000Y-60530000D02*
X19090000Y-61165000D01*
X29250000Y-60530000D02*
X19725000Y-60530000D01*
X29250000Y-63070000D02*
X29250000Y-60530000D01*
X19090000Y-63070000D02*
X29250000Y-63070000D01*
X19090000Y-61165000D02*
X19090000Y-63070000D01*
G04 #@! TO.C,SW1*
X37865564Y-26550000D02*
G75*
G03X37865564Y-26550000I-2015564J0D01*
G01*
X38850000Y-29550000D02*
X38850000Y-26550000D01*
X32850000Y-29550000D02*
X38850000Y-29550000D01*
X32850000Y-23550000D02*
X32850000Y-29550000D01*
X38850000Y-23550000D02*
X32850000Y-23550000D01*
X38850000Y-26550000D02*
X38850000Y-23550000D01*
G04 #@! TD*
G04 #@! TO.C,J3*
D11*
X29117142Y-41461904D02*
X29164761Y-41414285D01*
X29212380Y-41271428D01*
X29212380Y-41176190D01*
X29164761Y-41033333D01*
X29069523Y-40938095D01*
X28974285Y-40890476D01*
X28783809Y-40842857D01*
X28640952Y-40842857D01*
X28450476Y-40890476D01*
X28355238Y-40938095D01*
X28260000Y-41033333D01*
X28212380Y-41176190D01*
X28212380Y-41271428D01*
X28260000Y-41414285D01*
X28307619Y-41461904D01*
X29212380Y-42033333D02*
X29164761Y-41938095D01*
X29117142Y-41890476D01*
X29021904Y-41842857D01*
X28736190Y-41842857D01*
X28640952Y-41890476D01*
X28593333Y-41938095D01*
X28545714Y-42033333D01*
X28545714Y-42176190D01*
X28593333Y-42271428D01*
X28640952Y-42319047D01*
X28736190Y-42366666D01*
X29021904Y-42366666D01*
X29117142Y-42319047D01*
X29164761Y-42271428D01*
X29212380Y-42176190D01*
X29212380Y-42033333D01*
X28545714Y-42795238D02*
X29212380Y-42795238D01*
X28640952Y-42795238D02*
X28593333Y-42842857D01*
X28545714Y-42938095D01*
X28545714Y-43080952D01*
X28593333Y-43176190D01*
X28688571Y-43223809D01*
X29212380Y-43223809D01*
X28545714Y-43700000D02*
X29212380Y-43700000D01*
X28640952Y-43700000D02*
X28593333Y-43747619D01*
X28545714Y-43842857D01*
X28545714Y-43985714D01*
X28593333Y-44080952D01*
X28688571Y-44128571D01*
X29212380Y-44128571D01*
X29307619Y-44366666D02*
X29307619Y-45128571D01*
X28212380Y-45557142D02*
X28212380Y-45652380D01*
X28260000Y-45747619D01*
X28307619Y-45795238D01*
X28402857Y-45842857D01*
X28593333Y-45890476D01*
X28831428Y-45890476D01*
X29021904Y-45842857D01*
X29117142Y-45795238D01*
X29164761Y-45747619D01*
X29212380Y-45652380D01*
X29212380Y-45557142D01*
X29164761Y-45461904D01*
X29117142Y-45414285D01*
X29021904Y-45366666D01*
X28831428Y-45319047D01*
X28593333Y-45319047D01*
X28402857Y-45366666D01*
X28307619Y-45414285D01*
X28260000Y-45461904D01*
X28212380Y-45557142D01*
X29212380Y-46842857D02*
X29212380Y-46271428D01*
X29212380Y-46557142D02*
X28212380Y-46557142D01*
X28355238Y-46461904D01*
X28450476Y-46366666D01*
X28498095Y-46271428D01*
X29212380Y-47176190D02*
X28545714Y-47700000D01*
X28545714Y-47176190D02*
X29212380Y-47700000D01*
X28212380Y-48271428D02*
X28212380Y-48366666D01*
X28260000Y-48461904D01*
X28307619Y-48509523D01*
X28402857Y-48557142D01*
X28593333Y-48604761D01*
X28831428Y-48604761D01*
X29021904Y-48557142D01*
X29117142Y-48509523D01*
X29164761Y-48461904D01*
X29212380Y-48366666D01*
X29212380Y-48271428D01*
X29164761Y-48176190D01*
X29117142Y-48128571D01*
X29021904Y-48080952D01*
X28831428Y-48033333D01*
X28593333Y-48033333D01*
X28402857Y-48080952D01*
X28307619Y-48128571D01*
X28260000Y-48176190D01*
X28212380Y-48271428D01*
X28545714Y-49461904D02*
X29212380Y-49461904D01*
X28164761Y-49223809D02*
X28879047Y-48985714D01*
X28879047Y-49604761D01*
X24503333Y-61252380D02*
X24503333Y-61966666D01*
X24550952Y-62109523D01*
X24646190Y-62204761D01*
X24789047Y-62252380D01*
X24884285Y-62252380D01*
X24122380Y-61252380D02*
X23503333Y-61252380D01*
X23836666Y-61633333D01*
X23693809Y-61633333D01*
X23598571Y-61680952D01*
X23550952Y-61728571D01*
X23503333Y-61823809D01*
X23503333Y-62061904D01*
X23550952Y-62157142D01*
X23598571Y-62204761D01*
X23693809Y-62252380D01*
X23979523Y-62252380D01*
X24074761Y-62204761D01*
X24122380Y-62157142D01*
G04 #@! TO.C,SW1*
X31804761Y-23002380D02*
X31852380Y-23145238D01*
X31852380Y-23383333D01*
X31804761Y-23478571D01*
X31757142Y-23526190D01*
X31661904Y-23573809D01*
X31566666Y-23573809D01*
X31471428Y-23526190D01*
X31423809Y-23478571D01*
X31376190Y-23383333D01*
X31328571Y-23192857D01*
X31280952Y-23097619D01*
X31233333Y-23050000D01*
X31138095Y-23002380D01*
X31042857Y-23002380D01*
X30947619Y-23050000D01*
X30900000Y-23097619D01*
X30852380Y-23192857D01*
X30852380Y-23430952D01*
X30900000Y-23573809D01*
X30852380Y-23907142D02*
X31852380Y-24145238D01*
X31138095Y-24335714D01*
X31852380Y-24526190D01*
X30852380Y-24764285D01*
X31947619Y-24907142D02*
X31947619Y-25669047D01*
X31852380Y-25907142D02*
X30852380Y-25907142D01*
X30852380Y-26288095D01*
X30900000Y-26383333D01*
X30947619Y-26430952D01*
X31042857Y-26478571D01*
X31185714Y-26478571D01*
X31280952Y-26430952D01*
X31328571Y-26383333D01*
X31376190Y-26288095D01*
X31376190Y-25907142D01*
X31185714Y-27335714D02*
X31852380Y-27335714D01*
X31185714Y-26907142D02*
X31709523Y-26907142D01*
X31804761Y-26954761D01*
X31852380Y-27050000D01*
X31852380Y-27192857D01*
X31804761Y-27288095D01*
X31757142Y-27335714D01*
X31804761Y-27764285D02*
X31852380Y-27859523D01*
X31852380Y-28050000D01*
X31804761Y-28145238D01*
X31709523Y-28192857D01*
X31661904Y-28192857D01*
X31566666Y-28145238D01*
X31519047Y-28050000D01*
X31519047Y-27907142D01*
X31471428Y-27811904D01*
X31376190Y-27764285D01*
X31328571Y-27764285D01*
X31233333Y-27811904D01*
X31185714Y-27907142D01*
X31185714Y-28050000D01*
X31233333Y-28145238D01*
X31852380Y-28621428D02*
X30852380Y-28621428D01*
X31852380Y-29050000D02*
X31328571Y-29050000D01*
X31233333Y-29002380D01*
X31185714Y-28907142D01*
X31185714Y-28764285D01*
X31233333Y-28669047D01*
X31280952Y-28621428D01*
X36254761Y-25216666D02*
X36302380Y-25359523D01*
X36302380Y-25597619D01*
X36254761Y-25692857D01*
X36207142Y-25740476D01*
X36111904Y-25788095D01*
X36016666Y-25788095D01*
X35921428Y-25740476D01*
X35873809Y-25692857D01*
X35826190Y-25597619D01*
X35778571Y-25407142D01*
X35730952Y-25311904D01*
X35683333Y-25264285D01*
X35588095Y-25216666D01*
X35492857Y-25216666D01*
X35397619Y-25264285D01*
X35350000Y-25311904D01*
X35302380Y-25407142D01*
X35302380Y-25645238D01*
X35350000Y-25788095D01*
X35302380Y-26121428D02*
X36302380Y-26359523D01*
X35588095Y-26550000D01*
X36302380Y-26740476D01*
X35302380Y-26978571D01*
X36302380Y-27883333D02*
X36302380Y-27311904D01*
X36302380Y-27597619D02*
X35302380Y-27597619D01*
X35445238Y-27502380D01*
X35540476Y-27407142D01*
X35588095Y-27311904D01*
G04 #@! TD*
M02*
