G04 #@! TF.GenerationSoftware,KiCad,Pcbnew,(5.0.2)-1*
G04 #@! TF.CreationDate,2019-06-27T16:40:18+05:30*
G04 #@! TF.ProjectId,mAhTime,6d416854-696d-4652-9e6b-696361645f70,rev?*
G04 #@! TF.SameCoordinates,Original*
G04 #@! TF.FileFunction,Copper,L2,Bot*
G04 #@! TF.FilePolarity,Positive*
%FSLAX46Y46*%
G04 Gerber Fmt 4.6, Leading zero omitted, Abs format (unit mm)*
G04 Created by KiCad (PCBNEW (5.0.2)-1) date 06/27/19 16:40:18*
%MOMM*%
%LPD*%
G01*
G04 APERTURE LIST*
G04 #@! TA.AperFunction,ComponentPad*
%ADD10O,1.700000X1.700000*%
G04 #@! TD*
G04 #@! TA.AperFunction,ComponentPad*
%ADD11R,1.700000X1.700000*%
G04 #@! TD*
G04 #@! TA.AperFunction,ComponentPad*
%ADD12C,1.524000*%
G04 #@! TD*
G04 #@! TA.AperFunction,ComponentPad*
%ADD13C,2.000000*%
G04 #@! TD*
G04 #@! TA.AperFunction,ViaPad*
%ADD14C,0.800000*%
G04 #@! TD*
G04 #@! TA.AperFunction,Conductor*
%ADD15C,0.250000*%
G04 #@! TD*
G04 #@! TA.AperFunction,Conductor*
%ADD16C,0.254000*%
G04 #@! TD*
G04 APERTURE END LIST*
D10*
G04 #@! TO.P,J3,4*
G04 #@! TO.N,/SDA*
X27980000Y-61800000D03*
G04 #@! TO.P,J3,3*
G04 #@! TO.N,/SCL*
X25440000Y-61800000D03*
G04 #@! TO.P,J3,2*
G04 #@! TO.N,/Vcc*
X22900000Y-61800000D03*
D11*
G04 #@! TO.P,J3,1*
G04 #@! TO.N,GND*
X20360000Y-61800000D03*
G04 #@! TD*
D12*
G04 #@! TO.P,U1,1*
G04 #@! TO.N,/Vin*
X14830000Y-22880000D03*
G04 #@! TO.P,U1,2*
G04 #@! TO.N,GND*
X14830000Y-25420000D03*
G04 #@! TO.P,U1,3*
G04 #@! TO.N,Net-(U1-Pad3)*
X14830000Y-27960000D03*
G04 #@! TO.P,U1,4*
G04 #@! TO.N,Net-(U1-Pad4)*
X14830000Y-30500000D03*
G04 #@! TO.P,U1,5*
G04 #@! TO.N,Net-(U1-Pad5)*
X14830000Y-33040000D03*
G04 #@! TO.P,U1,6*
G04 #@! TO.N,Net-(U1-Pad6)*
X14830000Y-35580000D03*
G04 #@! TO.P,U1,7*
G04 #@! TO.N,Net-(U1-Pad7)*
X14830000Y-38120000D03*
G04 #@! TO.P,U1,8*
G04 #@! TO.N,Net-(U1-Pad8)*
X14830000Y-40660000D03*
G04 #@! TO.P,U1,9*
G04 #@! TO.N,Net-(U1-Pad9)*
X14830000Y-43200000D03*
G04 #@! TO.P,U1,10*
G04 #@! TO.N,GND*
X14830000Y-45740000D03*
G04 #@! TO.P,U1,11*
G04 #@! TO.N,/Vcc*
X14830000Y-48280000D03*
G04 #@! TO.P,U1,12*
G04 #@! TO.N,Net-(U1-Pad12)*
X14830000Y-50820000D03*
G04 #@! TO.P,U1,13*
G04 #@! TO.N,Net-(U1-Pad13)*
X14830000Y-53360000D03*
G04 #@! TO.P,U1,14*
G04 #@! TO.N,GND*
X14830000Y-55900000D03*
G04 #@! TO.P,U1,15*
G04 #@! TO.N,Net-(U1-Pad15)*
X14830000Y-58440000D03*
G04 #@! TO.P,U1,16*
G04 #@! TO.N,/Vcc*
X42770000Y-58440000D03*
G04 #@! TO.P,U1,17*
G04 #@! TO.N,GND*
X42770000Y-55900000D03*
G04 #@! TO.P,U1,18*
G04 #@! TO.N,Net-(U1-Pad18)*
X42770000Y-53360000D03*
G04 #@! TO.P,U1,19*
G04 #@! TO.N,Net-(U1-Pad19)*
X42770000Y-50820000D03*
G04 #@! TO.P,U1,20*
G04 #@! TO.N,Net-(U1-Pad20)*
X42770000Y-48280000D03*
G04 #@! TO.P,U1,21*
G04 #@! TO.N,/Ctrl4*
X42770000Y-45740000D03*
G04 #@! TO.P,U1,22*
G04 #@! TO.N,/En_VD*
X42770000Y-43200000D03*
G04 #@! TO.P,U1,23*
G04 #@! TO.N,/SCL*
X42770000Y-40660000D03*
G04 #@! TO.P,U1,24*
G04 #@! TO.N,GND*
X42770000Y-38120000D03*
G04 #@! TO.P,U1,25*
G04 #@! TO.N,/Vcc*
X42770000Y-35580000D03*
G04 #@! TO.P,U1,26*
G04 #@! TO.N,/SDA*
X42770000Y-33040000D03*
G04 #@! TO.P,U1,27*
G04 #@! TO.N,/SW*
X42770000Y-30500000D03*
G04 #@! TO.P,U1,28*
G04 #@! TO.N,/Ctrl3*
X42770000Y-27960000D03*
G04 #@! TO.P,U1,29*
G04 #@! TO.N,/Ctrl2*
X42770000Y-25420000D03*
G04 #@! TO.P,U1,30*
G04 #@! TO.N,/Ctrl1*
X42770000Y-22880000D03*
G04 #@! TD*
D10*
G04 #@! TO.P,J1,2*
G04 #@! TO.N,/Vbat*
X35814000Y-19650000D03*
D11*
G04 #@! TO.P,J1,1*
G04 #@! TO.N,GND*
X33274000Y-19650000D03*
G04 #@! TD*
G04 #@! TO.P,J2,1*
G04 #@! TO.N,GND*
X35814000Y-62865000D03*
D10*
G04 #@! TO.P,J2,2*
G04 #@! TO.N,/dut*
X33274000Y-62865000D03*
G04 #@! TD*
D13*
G04 #@! TO.P,SW1,1*
G04 #@! TO.N,/SW*
X38100000Y-23300000D03*
G04 #@! TO.P,SW1,2*
G04 #@! TO.N,GND*
X33600000Y-23300000D03*
G04 #@! TO.P,SW1,1*
G04 #@! TO.N,/SW*
X38100000Y-29800000D03*
G04 #@! TO.P,SW1,2*
G04 #@! TO.N,GND*
X33600000Y-29800000D03*
G04 #@! TD*
D14*
G04 #@! TO.N,/Ctrl1*
X31920000Y-51500000D03*
X29000000Y-26500000D03*
G04 #@! TO.N,/Ctrl2*
X30100000Y-27500000D03*
X31900000Y-47090000D03*
G04 #@! TO.N,/Ctrl3*
X32160000Y-41100000D03*
X37200000Y-46200000D03*
G04 #@! TO.N,/Ctrl4*
X32100000Y-38930000D03*
G04 #@! TO.N,/Vcc*
X35700000Y-47100000D03*
G04 #@! TO.N,/Vbat*
X26900000Y-40170000D03*
X26900000Y-45270000D03*
X26900000Y-50310000D03*
X26890000Y-35120000D03*
G04 #@! TO.N,/SW*
X32000000Y-34300000D03*
G04 #@! TO.N,/En_VD*
X30700000Y-34300000D03*
G04 #@! TO.N,/dut*
X27940000Y-38590000D03*
G04 #@! TD*
D15*
G04 #@! TO.N,/Ctrl1*
X31920000Y-50934315D02*
X31920000Y-51500000D01*
X29000000Y-26500000D02*
X29000000Y-48014315D01*
X29000000Y-48014315D02*
X31920000Y-50934315D01*
G04 #@! TO.N,/Ctrl2*
X29700001Y-27899999D02*
X30100000Y-27500000D01*
X29700001Y-44324316D02*
X29700001Y-27899999D01*
X31900000Y-46524315D02*
X29700001Y-44324316D01*
X31900000Y-47090000D02*
X31900000Y-46524315D01*
G04 #@! TO.N,/Ctrl3*
X37200000Y-46140000D02*
X37200000Y-46200000D01*
X32160000Y-41100000D02*
X37200000Y-46140000D01*
G04 #@! TO.N,/Ctrl4*
X32100000Y-38930000D02*
X38890000Y-45720000D01*
X38890000Y-45720000D02*
X42810000Y-45720000D01*
G04 #@! TO.N,/Vcc*
X35700000Y-51370000D02*
X42770000Y-58440000D01*
X35700000Y-47100000D02*
X35700000Y-51370000D01*
G04 #@! TO.N,/Vbat*
X26890000Y-40160000D02*
X26900000Y-40170000D01*
X26890000Y-35120000D02*
X26890000Y-40160000D01*
X26900000Y-40735685D02*
X26900000Y-45270000D01*
X26900000Y-40170000D02*
X26900000Y-40735685D01*
X26900000Y-45835685D02*
X26900000Y-50310000D01*
X26900000Y-45270000D02*
X26900000Y-45835685D01*
X35814000Y-18014000D02*
X35814000Y-19650000D01*
X34400000Y-16600000D02*
X35814000Y-18014000D01*
X29100000Y-16600000D02*
X34400000Y-16600000D01*
X26890000Y-35120000D02*
X26890000Y-18810000D01*
X26890000Y-18810000D02*
X29100000Y-16600000D01*
G04 #@! TO.N,/SW*
X38100000Y-24714213D02*
X38100000Y-29800000D01*
X38100000Y-23300000D02*
X38100000Y-24714213D01*
X42070000Y-29800000D02*
X42770000Y-30500000D01*
X38100000Y-29800000D02*
X42070000Y-29800000D01*
X33600000Y-34300000D02*
X38100000Y-29800000D01*
X32000000Y-34300000D02*
X33600000Y-34300000D01*
G04 #@! TO.N,/En_VD*
X41732370Y-43180000D02*
X42810000Y-43180000D01*
X30700000Y-34300000D02*
X30700000Y-35127002D01*
X30700000Y-35127002D02*
X38752998Y-43180000D01*
X38752998Y-43180000D02*
X41732370Y-43180000D01*
G04 #@! TO.N,/dut*
X27940000Y-38590000D02*
X27940000Y-48133000D01*
X27940000Y-48133000D02*
X27940000Y-48260000D01*
X27940000Y-57531000D02*
X33274000Y-62865000D01*
X27940000Y-48133000D02*
X27940000Y-57531000D01*
G04 #@! TO.N,Net-(U1-Pad19)*
X41732370Y-50800000D02*
X42810000Y-50800000D01*
G04 #@! TD*
D16*
G04 #@! TO.N,GND*
G36*
X40262974Y-13345259D02*
X39634259Y-13973974D01*
X39294000Y-14795431D01*
X39294000Y-15684569D01*
X39634259Y-16506026D01*
X40262974Y-17134741D01*
X41084431Y-17475000D01*
X41973569Y-17475000D01*
X42795026Y-17134741D01*
X43423741Y-16506026D01*
X43715000Y-15802865D01*
X43715000Y-21849343D01*
X43561337Y-21695680D01*
X43047881Y-21483000D01*
X42492119Y-21483000D01*
X41978663Y-21695680D01*
X41585680Y-22088663D01*
X41373000Y-22602119D01*
X41373000Y-23157881D01*
X41585680Y-23671337D01*
X41978663Y-24064320D01*
X42185513Y-24150000D01*
X41978663Y-24235680D01*
X41585680Y-24628663D01*
X41373000Y-25142119D01*
X41373000Y-25697881D01*
X41585680Y-26211337D01*
X41978663Y-26604320D01*
X42185513Y-26690000D01*
X41978663Y-26775680D01*
X41585680Y-27168663D01*
X41373000Y-27682119D01*
X41373000Y-28237881D01*
X41585680Y-28751337D01*
X41874343Y-29040000D01*
X39554909Y-29040000D01*
X39486086Y-28873847D01*
X39026153Y-28413914D01*
X38860000Y-28345091D01*
X38860000Y-24754909D01*
X39026153Y-24686086D01*
X39486086Y-24226153D01*
X39735000Y-23625222D01*
X39735000Y-22974778D01*
X39486086Y-22373847D01*
X39026153Y-21913914D01*
X38425222Y-21665000D01*
X37774778Y-21665000D01*
X37173847Y-21913914D01*
X36713914Y-22373847D01*
X36465000Y-22974778D01*
X36465000Y-23625222D01*
X36713914Y-24226153D01*
X37173847Y-24686086D01*
X37340000Y-24754909D01*
X37340001Y-28345091D01*
X37173847Y-28413914D01*
X36713914Y-28873847D01*
X36465000Y-29474778D01*
X36465000Y-30125222D01*
X36533823Y-30291375D01*
X33285199Y-33540000D01*
X32703711Y-33540000D01*
X32586280Y-33422569D01*
X32205874Y-33265000D01*
X31794126Y-33265000D01*
X31413720Y-33422569D01*
X31350000Y-33486289D01*
X31286280Y-33422569D01*
X30905874Y-33265000D01*
X30494126Y-33265000D01*
X30460001Y-33279135D01*
X30460001Y-30952532D01*
X32627073Y-30952532D01*
X32725736Y-31219387D01*
X33335461Y-31445908D01*
X33985460Y-31421856D01*
X34474264Y-31219387D01*
X34572927Y-30952532D01*
X33600000Y-29979605D01*
X32627073Y-30952532D01*
X30460001Y-30952532D01*
X30460001Y-29535461D01*
X31954092Y-29535461D01*
X31978144Y-30185460D01*
X32180613Y-30674264D01*
X32447468Y-30772927D01*
X33420395Y-29800000D01*
X33779605Y-29800000D01*
X34752532Y-30772927D01*
X35019387Y-30674264D01*
X35245908Y-30064539D01*
X35221856Y-29414540D01*
X35019387Y-28925736D01*
X34752532Y-28827073D01*
X33779605Y-29800000D01*
X33420395Y-29800000D01*
X32447468Y-28827073D01*
X32180613Y-28925736D01*
X31954092Y-29535461D01*
X30460001Y-29535461D01*
X30460001Y-28647468D01*
X32627073Y-28647468D01*
X33600000Y-29620395D01*
X34572927Y-28647468D01*
X34474264Y-28380613D01*
X33864539Y-28154092D01*
X33214540Y-28178144D01*
X32725736Y-28380613D01*
X32627073Y-28647468D01*
X30460001Y-28647468D01*
X30460001Y-28471159D01*
X30686280Y-28377431D01*
X30977431Y-28086280D01*
X31135000Y-27705874D01*
X31135000Y-27294126D01*
X30977431Y-26913720D01*
X30686280Y-26622569D01*
X30305874Y-26465000D01*
X30035000Y-26465000D01*
X30035000Y-26294126D01*
X29877431Y-25913720D01*
X29586280Y-25622569D01*
X29205874Y-25465000D01*
X28794126Y-25465000D01*
X28413720Y-25622569D01*
X28122569Y-25913720D01*
X27965000Y-26294126D01*
X27965000Y-26705874D01*
X28122569Y-27086280D01*
X28240000Y-27203711D01*
X28240001Y-37593988D01*
X28145874Y-37555000D01*
X27734126Y-37555000D01*
X27650000Y-37589846D01*
X27650000Y-35823711D01*
X27767431Y-35706280D01*
X27925000Y-35325874D01*
X27925000Y-34914126D01*
X27767431Y-34533720D01*
X27650000Y-34416289D01*
X27650000Y-24452532D01*
X32627073Y-24452532D01*
X32725736Y-24719387D01*
X33335461Y-24945908D01*
X33985460Y-24921856D01*
X34474264Y-24719387D01*
X34572927Y-24452532D01*
X33600000Y-23479605D01*
X32627073Y-24452532D01*
X27650000Y-24452532D01*
X27650000Y-23035461D01*
X31954092Y-23035461D01*
X31978144Y-23685460D01*
X32180613Y-24174264D01*
X32447468Y-24272927D01*
X33420395Y-23300000D01*
X33779605Y-23300000D01*
X34752532Y-24272927D01*
X35019387Y-24174264D01*
X35245908Y-23564539D01*
X35221856Y-22914540D01*
X35019387Y-22425736D01*
X34752532Y-22327073D01*
X33779605Y-23300000D01*
X33420395Y-23300000D01*
X32447468Y-22327073D01*
X32180613Y-22425736D01*
X31954092Y-23035461D01*
X27650000Y-23035461D01*
X27650000Y-22147468D01*
X32627073Y-22147468D01*
X33600000Y-23120395D01*
X34572927Y-22147468D01*
X34474264Y-21880613D01*
X33864539Y-21654092D01*
X33214540Y-21678144D01*
X32725736Y-21880613D01*
X32627073Y-22147468D01*
X27650000Y-22147468D01*
X27650000Y-19935750D01*
X31789000Y-19935750D01*
X31789000Y-20626309D01*
X31885673Y-20859698D01*
X32064301Y-21038327D01*
X32297690Y-21135000D01*
X32988250Y-21135000D01*
X33147000Y-20976250D01*
X33147000Y-19777000D01*
X31947750Y-19777000D01*
X31789000Y-19935750D01*
X27650000Y-19935750D01*
X27650000Y-19124801D01*
X28101110Y-18673691D01*
X31789000Y-18673691D01*
X31789000Y-19364250D01*
X31947750Y-19523000D01*
X33147000Y-19523000D01*
X33147000Y-18323750D01*
X32988250Y-18165000D01*
X32297690Y-18165000D01*
X32064301Y-18261673D01*
X31885673Y-18440302D01*
X31789000Y-18673691D01*
X28101110Y-18673691D01*
X29414802Y-17360000D01*
X34085199Y-17360000D01*
X35054000Y-18328802D01*
X35054000Y-18371822D01*
X34743375Y-18579375D01*
X34728904Y-18601033D01*
X34662327Y-18440302D01*
X34483699Y-18261673D01*
X34250310Y-18165000D01*
X33559750Y-18165000D01*
X33401000Y-18323750D01*
X33401000Y-19523000D01*
X33421000Y-19523000D01*
X33421000Y-19777000D01*
X33401000Y-19777000D01*
X33401000Y-20976250D01*
X33559750Y-21135000D01*
X34250310Y-21135000D01*
X34483699Y-21038327D01*
X34662327Y-20859698D01*
X34728904Y-20698967D01*
X34743375Y-20720625D01*
X35234582Y-21048839D01*
X35667744Y-21135000D01*
X35960256Y-21135000D01*
X36393418Y-21048839D01*
X36884625Y-20720625D01*
X37212839Y-20229418D01*
X37328092Y-19650000D01*
X37212839Y-19070582D01*
X36884625Y-18579375D01*
X36574000Y-18371822D01*
X36574000Y-18088847D01*
X36588888Y-18014000D01*
X36574000Y-17939153D01*
X36574000Y-17939148D01*
X36529904Y-17717463D01*
X36361929Y-17466071D01*
X36298473Y-17423671D01*
X34990331Y-16115530D01*
X34947929Y-16052071D01*
X34696537Y-15884096D01*
X34474852Y-15840000D01*
X34474847Y-15840000D01*
X34400000Y-15825112D01*
X34325153Y-15840000D01*
X29174847Y-15840000D01*
X29100000Y-15825112D01*
X29025153Y-15840000D01*
X29025148Y-15840000D01*
X28803463Y-15884096D01*
X28552071Y-16052071D01*
X28509671Y-16115527D01*
X26405528Y-18219671D01*
X26342072Y-18262071D01*
X26299672Y-18325527D01*
X26299671Y-18325528D01*
X26174097Y-18513463D01*
X26115112Y-18810000D01*
X26130001Y-18884852D01*
X26130000Y-34416289D01*
X26012569Y-34533720D01*
X25855000Y-34914126D01*
X25855000Y-35325874D01*
X26012569Y-35706280D01*
X26130000Y-35823711D01*
X26130001Y-39476288D01*
X26022569Y-39583720D01*
X25865000Y-39964126D01*
X25865000Y-40375874D01*
X26022569Y-40756280D01*
X26140000Y-40873711D01*
X26140001Y-44566288D01*
X26022569Y-44683720D01*
X25865000Y-45064126D01*
X25865000Y-45475874D01*
X26022569Y-45856280D01*
X26140000Y-45973711D01*
X26140001Y-49606288D01*
X26022569Y-49723720D01*
X25865000Y-50104126D01*
X25865000Y-50515874D01*
X26022569Y-50896280D01*
X26313720Y-51187431D01*
X26694126Y-51345000D01*
X27105874Y-51345000D01*
X27180000Y-51314296D01*
X27180001Y-57456148D01*
X27165112Y-57531000D01*
X27180001Y-57605852D01*
X27224097Y-57827537D01*
X27392072Y-58078929D01*
X27455528Y-58121329D01*
X31832791Y-62498593D01*
X31759908Y-62865000D01*
X31875161Y-63444418D01*
X32203375Y-63935625D01*
X32694582Y-64263839D01*
X33127744Y-64350000D01*
X33420256Y-64350000D01*
X33853418Y-64263839D01*
X34344625Y-63935625D01*
X34359096Y-63913967D01*
X34425673Y-64074698D01*
X34604301Y-64253327D01*
X34837690Y-64350000D01*
X35528250Y-64350000D01*
X35687000Y-64191250D01*
X35687000Y-62992000D01*
X35941000Y-62992000D01*
X35941000Y-64191250D01*
X36099750Y-64350000D01*
X36790310Y-64350000D01*
X37023699Y-64253327D01*
X37202327Y-64074698D01*
X37299000Y-63841309D01*
X37299000Y-63150750D01*
X37140250Y-62992000D01*
X35941000Y-62992000D01*
X35687000Y-62992000D01*
X35667000Y-62992000D01*
X35667000Y-62738000D01*
X35687000Y-62738000D01*
X35687000Y-61538750D01*
X35941000Y-61538750D01*
X35941000Y-62738000D01*
X37140250Y-62738000D01*
X37299000Y-62579250D01*
X37299000Y-61888691D01*
X37202327Y-61655302D01*
X37023699Y-61476673D01*
X36790310Y-61380000D01*
X36099750Y-61380000D01*
X35941000Y-61538750D01*
X35687000Y-61538750D01*
X35528250Y-61380000D01*
X34837690Y-61380000D01*
X34604301Y-61476673D01*
X34425673Y-61655302D01*
X34359096Y-61816033D01*
X34344625Y-61794375D01*
X33853418Y-61466161D01*
X33420256Y-61380000D01*
X33127744Y-61380000D01*
X32907593Y-61423791D01*
X28700000Y-57216199D01*
X28700000Y-48789116D01*
X30978728Y-51067845D01*
X30885000Y-51294126D01*
X30885000Y-51705874D01*
X31042569Y-52086280D01*
X31333720Y-52377431D01*
X31714126Y-52535000D01*
X32125874Y-52535000D01*
X32506280Y-52377431D01*
X32797431Y-52086280D01*
X32955000Y-51705874D01*
X32955000Y-51294126D01*
X32797431Y-50913720D01*
X32664314Y-50780603D01*
X32635904Y-50637778D01*
X32467929Y-50386386D01*
X32404473Y-50343986D01*
X29760000Y-47699514D01*
X29760000Y-45459117D01*
X30958728Y-46657846D01*
X30865000Y-46884126D01*
X30865000Y-47295874D01*
X31022569Y-47676280D01*
X31313720Y-47967431D01*
X31694126Y-48125000D01*
X32105874Y-48125000D01*
X32486280Y-47967431D01*
X32777431Y-47676280D01*
X32935000Y-47295874D01*
X32935000Y-46884126D01*
X32777431Y-46503720D01*
X32644314Y-46370603D01*
X32615904Y-46227778D01*
X32557252Y-46139999D01*
X32490329Y-46039841D01*
X32490327Y-46039839D01*
X32447929Y-45976386D01*
X32384476Y-45933988D01*
X30460001Y-44009515D01*
X30460001Y-35961804D01*
X32454943Y-37956746D01*
X32305874Y-37895000D01*
X31894126Y-37895000D01*
X31513720Y-38052569D01*
X31222569Y-38343720D01*
X31065000Y-38724126D01*
X31065000Y-39135874D01*
X31222569Y-39516280D01*
X31513720Y-39807431D01*
X31894126Y-39965000D01*
X32060199Y-39965000D01*
X32160199Y-40065000D01*
X31954126Y-40065000D01*
X31573720Y-40222569D01*
X31282569Y-40513720D01*
X31125000Y-40894126D01*
X31125000Y-41305874D01*
X31282569Y-41686280D01*
X31573720Y-41977431D01*
X31954126Y-42135000D01*
X32120199Y-42135000D01*
X36152249Y-46167052D01*
X35905874Y-46065000D01*
X35494126Y-46065000D01*
X35113720Y-46222569D01*
X34822569Y-46513720D01*
X34665000Y-46894126D01*
X34665000Y-47305874D01*
X34822569Y-47686280D01*
X34940000Y-47803711D01*
X34940001Y-51295148D01*
X34925112Y-51370000D01*
X34984097Y-51666537D01*
X35012606Y-51709203D01*
X35152072Y-51917929D01*
X35215528Y-51960329D01*
X41385980Y-58130782D01*
X41373000Y-58162119D01*
X41373000Y-58717881D01*
X41585680Y-59231337D01*
X41978663Y-59624320D01*
X42492119Y-59837000D01*
X43047881Y-59837000D01*
X43561337Y-59624320D01*
X43715001Y-59470656D01*
X43715001Y-66747137D01*
X43423741Y-66043974D01*
X42795026Y-65415259D01*
X41973569Y-65075000D01*
X41084431Y-65075000D01*
X40262974Y-65415259D01*
X39634259Y-66043974D01*
X39294000Y-66865431D01*
X39294000Y-67754569D01*
X39634259Y-68576026D01*
X40262974Y-69204741D01*
X40529162Y-69315000D01*
X17128838Y-69315000D01*
X17395026Y-69204741D01*
X18023741Y-68576026D01*
X18364000Y-67754569D01*
X18364000Y-66865431D01*
X18023741Y-66043974D01*
X17395026Y-65415259D01*
X16573569Y-65075000D01*
X15684431Y-65075000D01*
X14862974Y-65415259D01*
X14234259Y-66043974D01*
X13985000Y-66645738D01*
X13985000Y-62085750D01*
X18875000Y-62085750D01*
X18875000Y-62776309D01*
X18971673Y-63009698D01*
X19150301Y-63188327D01*
X19383690Y-63285000D01*
X20074250Y-63285000D01*
X20233000Y-63126250D01*
X20233000Y-61927000D01*
X19033750Y-61927000D01*
X18875000Y-62085750D01*
X13985000Y-62085750D01*
X13985000Y-60823691D01*
X18875000Y-60823691D01*
X18875000Y-61514250D01*
X19033750Y-61673000D01*
X20233000Y-61673000D01*
X20233000Y-60473750D01*
X20487000Y-60473750D01*
X20487000Y-61673000D01*
X20507000Y-61673000D01*
X20507000Y-61927000D01*
X20487000Y-61927000D01*
X20487000Y-63126250D01*
X20645750Y-63285000D01*
X21336310Y-63285000D01*
X21569699Y-63188327D01*
X21748327Y-63009698D01*
X21814904Y-62848967D01*
X21829375Y-62870625D01*
X22320582Y-63198839D01*
X22753744Y-63285000D01*
X23046256Y-63285000D01*
X23479418Y-63198839D01*
X23970625Y-62870625D01*
X24170000Y-62572239D01*
X24369375Y-62870625D01*
X24860582Y-63198839D01*
X25293744Y-63285000D01*
X25586256Y-63285000D01*
X26019418Y-63198839D01*
X26510625Y-62870625D01*
X26710000Y-62572239D01*
X26909375Y-62870625D01*
X27400582Y-63198839D01*
X27833744Y-63285000D01*
X28126256Y-63285000D01*
X28559418Y-63198839D01*
X29050625Y-62870625D01*
X29378839Y-62379418D01*
X29494092Y-61800000D01*
X29378839Y-61220582D01*
X29050625Y-60729375D01*
X28559418Y-60401161D01*
X28126256Y-60315000D01*
X27833744Y-60315000D01*
X27400582Y-60401161D01*
X26909375Y-60729375D01*
X26710000Y-61027761D01*
X26510625Y-60729375D01*
X26019418Y-60401161D01*
X25586256Y-60315000D01*
X25293744Y-60315000D01*
X24860582Y-60401161D01*
X24369375Y-60729375D01*
X24170000Y-61027761D01*
X23970625Y-60729375D01*
X23479418Y-60401161D01*
X23046256Y-60315000D01*
X22753744Y-60315000D01*
X22320582Y-60401161D01*
X21829375Y-60729375D01*
X21814904Y-60751033D01*
X21748327Y-60590302D01*
X21569699Y-60411673D01*
X21336310Y-60315000D01*
X20645750Y-60315000D01*
X20487000Y-60473750D01*
X20233000Y-60473750D01*
X20074250Y-60315000D01*
X19383690Y-60315000D01*
X19150301Y-60411673D01*
X18971673Y-60590302D01*
X18875000Y-60823691D01*
X13985000Y-60823691D01*
X13985000Y-59570657D01*
X14038663Y-59624320D01*
X14552119Y-59837000D01*
X15107881Y-59837000D01*
X15621337Y-59624320D01*
X16014320Y-59231337D01*
X16227000Y-58717881D01*
X16227000Y-58162119D01*
X16014320Y-57648663D01*
X15621337Y-57255680D01*
X15430353Y-57176572D01*
X15561143Y-57122397D01*
X15630608Y-56880213D01*
X14830000Y-56079605D01*
X14815858Y-56093748D01*
X14636253Y-55914143D01*
X14650395Y-55900000D01*
X15009605Y-55900000D01*
X15810213Y-56700608D01*
X16052397Y-56631143D01*
X16239144Y-56107698D01*
X16211362Y-55552632D01*
X16052397Y-55168857D01*
X15810213Y-55099392D01*
X15009605Y-55900000D01*
X14650395Y-55900000D01*
X14636253Y-55885858D01*
X14815858Y-55706253D01*
X14830000Y-55720395D01*
X15630608Y-54919787D01*
X15561143Y-54677603D01*
X15420607Y-54627465D01*
X15621337Y-54544320D01*
X16014320Y-54151337D01*
X16227000Y-53637881D01*
X16227000Y-53082119D01*
X16014320Y-52568663D01*
X15621337Y-52175680D01*
X15414487Y-52090000D01*
X15621337Y-52004320D01*
X16014320Y-51611337D01*
X16227000Y-51097881D01*
X16227000Y-50542119D01*
X16014320Y-50028663D01*
X15621337Y-49635680D01*
X15414487Y-49550000D01*
X15621337Y-49464320D01*
X16014320Y-49071337D01*
X16227000Y-48557881D01*
X16227000Y-48002119D01*
X16014320Y-47488663D01*
X15621337Y-47095680D01*
X15430353Y-47016572D01*
X15561143Y-46962397D01*
X15630608Y-46720213D01*
X14830000Y-45919605D01*
X14815858Y-45933748D01*
X14636253Y-45754143D01*
X14650395Y-45740000D01*
X15009605Y-45740000D01*
X15810213Y-46540608D01*
X16052397Y-46471143D01*
X16239144Y-45947698D01*
X16211362Y-45392632D01*
X16052397Y-45008857D01*
X15810213Y-44939392D01*
X15009605Y-45740000D01*
X14650395Y-45740000D01*
X14636253Y-45725858D01*
X14815858Y-45546253D01*
X14830000Y-45560395D01*
X15630608Y-44759787D01*
X15561143Y-44517603D01*
X15420607Y-44467465D01*
X15621337Y-44384320D01*
X16014320Y-43991337D01*
X16227000Y-43477881D01*
X16227000Y-42922119D01*
X16014320Y-42408663D01*
X15621337Y-42015680D01*
X15414487Y-41930000D01*
X15621337Y-41844320D01*
X16014320Y-41451337D01*
X16227000Y-40937881D01*
X16227000Y-40382119D01*
X16014320Y-39868663D01*
X15621337Y-39475680D01*
X15414487Y-39390000D01*
X15621337Y-39304320D01*
X16014320Y-38911337D01*
X16227000Y-38397881D01*
X16227000Y-37842119D01*
X16014320Y-37328663D01*
X15621337Y-36935680D01*
X15414487Y-36850000D01*
X15621337Y-36764320D01*
X16014320Y-36371337D01*
X16227000Y-35857881D01*
X16227000Y-35302119D01*
X16014320Y-34788663D01*
X15621337Y-34395680D01*
X15414487Y-34310000D01*
X15621337Y-34224320D01*
X16014320Y-33831337D01*
X16227000Y-33317881D01*
X16227000Y-32762119D01*
X16014320Y-32248663D01*
X15621337Y-31855680D01*
X15414487Y-31770000D01*
X15621337Y-31684320D01*
X16014320Y-31291337D01*
X16227000Y-30777881D01*
X16227000Y-30222119D01*
X16014320Y-29708663D01*
X15621337Y-29315680D01*
X15414487Y-29230000D01*
X15621337Y-29144320D01*
X16014320Y-28751337D01*
X16227000Y-28237881D01*
X16227000Y-27682119D01*
X16014320Y-27168663D01*
X15621337Y-26775680D01*
X15430353Y-26696572D01*
X15561143Y-26642397D01*
X15630608Y-26400213D01*
X14830000Y-25599605D01*
X14815858Y-25613748D01*
X14636253Y-25434143D01*
X14650395Y-25420000D01*
X15009605Y-25420000D01*
X15810213Y-26220608D01*
X16052397Y-26151143D01*
X16239144Y-25627698D01*
X16211362Y-25072632D01*
X16052397Y-24688857D01*
X15810213Y-24619392D01*
X15009605Y-25420000D01*
X14650395Y-25420000D01*
X14636253Y-25405858D01*
X14815858Y-25226253D01*
X14830000Y-25240395D01*
X15630608Y-24439787D01*
X15561143Y-24197603D01*
X15420607Y-24147465D01*
X15621337Y-24064320D01*
X16014320Y-23671337D01*
X16227000Y-23157881D01*
X16227000Y-22602119D01*
X16014320Y-22088663D01*
X15621337Y-21695680D01*
X15107881Y-21483000D01*
X14552119Y-21483000D01*
X14038663Y-21695680D01*
X13985000Y-21749343D01*
X13985000Y-15904262D01*
X14234259Y-16506026D01*
X14862974Y-17134741D01*
X15684431Y-17475000D01*
X16573569Y-17475000D01*
X17395026Y-17134741D01*
X18023741Y-16506026D01*
X18364000Y-15684569D01*
X18364000Y-14795431D01*
X18023741Y-13973974D01*
X17395026Y-13345259D01*
X16766706Y-13085000D01*
X40891294Y-13085000D01*
X40262974Y-13345259D01*
X40262974Y-13345259D01*
G37*
X40262974Y-13345259D02*
X39634259Y-13973974D01*
X39294000Y-14795431D01*
X39294000Y-15684569D01*
X39634259Y-16506026D01*
X40262974Y-17134741D01*
X41084431Y-17475000D01*
X41973569Y-17475000D01*
X42795026Y-17134741D01*
X43423741Y-16506026D01*
X43715000Y-15802865D01*
X43715000Y-21849343D01*
X43561337Y-21695680D01*
X43047881Y-21483000D01*
X42492119Y-21483000D01*
X41978663Y-21695680D01*
X41585680Y-22088663D01*
X41373000Y-22602119D01*
X41373000Y-23157881D01*
X41585680Y-23671337D01*
X41978663Y-24064320D01*
X42185513Y-24150000D01*
X41978663Y-24235680D01*
X41585680Y-24628663D01*
X41373000Y-25142119D01*
X41373000Y-25697881D01*
X41585680Y-26211337D01*
X41978663Y-26604320D01*
X42185513Y-26690000D01*
X41978663Y-26775680D01*
X41585680Y-27168663D01*
X41373000Y-27682119D01*
X41373000Y-28237881D01*
X41585680Y-28751337D01*
X41874343Y-29040000D01*
X39554909Y-29040000D01*
X39486086Y-28873847D01*
X39026153Y-28413914D01*
X38860000Y-28345091D01*
X38860000Y-24754909D01*
X39026153Y-24686086D01*
X39486086Y-24226153D01*
X39735000Y-23625222D01*
X39735000Y-22974778D01*
X39486086Y-22373847D01*
X39026153Y-21913914D01*
X38425222Y-21665000D01*
X37774778Y-21665000D01*
X37173847Y-21913914D01*
X36713914Y-22373847D01*
X36465000Y-22974778D01*
X36465000Y-23625222D01*
X36713914Y-24226153D01*
X37173847Y-24686086D01*
X37340000Y-24754909D01*
X37340001Y-28345091D01*
X37173847Y-28413914D01*
X36713914Y-28873847D01*
X36465000Y-29474778D01*
X36465000Y-30125222D01*
X36533823Y-30291375D01*
X33285199Y-33540000D01*
X32703711Y-33540000D01*
X32586280Y-33422569D01*
X32205874Y-33265000D01*
X31794126Y-33265000D01*
X31413720Y-33422569D01*
X31350000Y-33486289D01*
X31286280Y-33422569D01*
X30905874Y-33265000D01*
X30494126Y-33265000D01*
X30460001Y-33279135D01*
X30460001Y-30952532D01*
X32627073Y-30952532D01*
X32725736Y-31219387D01*
X33335461Y-31445908D01*
X33985460Y-31421856D01*
X34474264Y-31219387D01*
X34572927Y-30952532D01*
X33600000Y-29979605D01*
X32627073Y-30952532D01*
X30460001Y-30952532D01*
X30460001Y-29535461D01*
X31954092Y-29535461D01*
X31978144Y-30185460D01*
X32180613Y-30674264D01*
X32447468Y-30772927D01*
X33420395Y-29800000D01*
X33779605Y-29800000D01*
X34752532Y-30772927D01*
X35019387Y-30674264D01*
X35245908Y-30064539D01*
X35221856Y-29414540D01*
X35019387Y-28925736D01*
X34752532Y-28827073D01*
X33779605Y-29800000D01*
X33420395Y-29800000D01*
X32447468Y-28827073D01*
X32180613Y-28925736D01*
X31954092Y-29535461D01*
X30460001Y-29535461D01*
X30460001Y-28647468D01*
X32627073Y-28647468D01*
X33600000Y-29620395D01*
X34572927Y-28647468D01*
X34474264Y-28380613D01*
X33864539Y-28154092D01*
X33214540Y-28178144D01*
X32725736Y-28380613D01*
X32627073Y-28647468D01*
X30460001Y-28647468D01*
X30460001Y-28471159D01*
X30686280Y-28377431D01*
X30977431Y-28086280D01*
X31135000Y-27705874D01*
X31135000Y-27294126D01*
X30977431Y-26913720D01*
X30686280Y-26622569D01*
X30305874Y-26465000D01*
X30035000Y-26465000D01*
X30035000Y-26294126D01*
X29877431Y-25913720D01*
X29586280Y-25622569D01*
X29205874Y-25465000D01*
X28794126Y-25465000D01*
X28413720Y-25622569D01*
X28122569Y-25913720D01*
X27965000Y-26294126D01*
X27965000Y-26705874D01*
X28122569Y-27086280D01*
X28240000Y-27203711D01*
X28240001Y-37593988D01*
X28145874Y-37555000D01*
X27734126Y-37555000D01*
X27650000Y-37589846D01*
X27650000Y-35823711D01*
X27767431Y-35706280D01*
X27925000Y-35325874D01*
X27925000Y-34914126D01*
X27767431Y-34533720D01*
X27650000Y-34416289D01*
X27650000Y-24452532D01*
X32627073Y-24452532D01*
X32725736Y-24719387D01*
X33335461Y-24945908D01*
X33985460Y-24921856D01*
X34474264Y-24719387D01*
X34572927Y-24452532D01*
X33600000Y-23479605D01*
X32627073Y-24452532D01*
X27650000Y-24452532D01*
X27650000Y-23035461D01*
X31954092Y-23035461D01*
X31978144Y-23685460D01*
X32180613Y-24174264D01*
X32447468Y-24272927D01*
X33420395Y-23300000D01*
X33779605Y-23300000D01*
X34752532Y-24272927D01*
X35019387Y-24174264D01*
X35245908Y-23564539D01*
X35221856Y-22914540D01*
X35019387Y-22425736D01*
X34752532Y-22327073D01*
X33779605Y-23300000D01*
X33420395Y-23300000D01*
X32447468Y-22327073D01*
X32180613Y-22425736D01*
X31954092Y-23035461D01*
X27650000Y-23035461D01*
X27650000Y-22147468D01*
X32627073Y-22147468D01*
X33600000Y-23120395D01*
X34572927Y-22147468D01*
X34474264Y-21880613D01*
X33864539Y-21654092D01*
X33214540Y-21678144D01*
X32725736Y-21880613D01*
X32627073Y-22147468D01*
X27650000Y-22147468D01*
X27650000Y-19935750D01*
X31789000Y-19935750D01*
X31789000Y-20626309D01*
X31885673Y-20859698D01*
X32064301Y-21038327D01*
X32297690Y-21135000D01*
X32988250Y-21135000D01*
X33147000Y-20976250D01*
X33147000Y-19777000D01*
X31947750Y-19777000D01*
X31789000Y-19935750D01*
X27650000Y-19935750D01*
X27650000Y-19124801D01*
X28101110Y-18673691D01*
X31789000Y-18673691D01*
X31789000Y-19364250D01*
X31947750Y-19523000D01*
X33147000Y-19523000D01*
X33147000Y-18323750D01*
X32988250Y-18165000D01*
X32297690Y-18165000D01*
X32064301Y-18261673D01*
X31885673Y-18440302D01*
X31789000Y-18673691D01*
X28101110Y-18673691D01*
X29414802Y-17360000D01*
X34085199Y-17360000D01*
X35054000Y-18328802D01*
X35054000Y-18371822D01*
X34743375Y-18579375D01*
X34728904Y-18601033D01*
X34662327Y-18440302D01*
X34483699Y-18261673D01*
X34250310Y-18165000D01*
X33559750Y-18165000D01*
X33401000Y-18323750D01*
X33401000Y-19523000D01*
X33421000Y-19523000D01*
X33421000Y-19777000D01*
X33401000Y-19777000D01*
X33401000Y-20976250D01*
X33559750Y-21135000D01*
X34250310Y-21135000D01*
X34483699Y-21038327D01*
X34662327Y-20859698D01*
X34728904Y-20698967D01*
X34743375Y-20720625D01*
X35234582Y-21048839D01*
X35667744Y-21135000D01*
X35960256Y-21135000D01*
X36393418Y-21048839D01*
X36884625Y-20720625D01*
X37212839Y-20229418D01*
X37328092Y-19650000D01*
X37212839Y-19070582D01*
X36884625Y-18579375D01*
X36574000Y-18371822D01*
X36574000Y-18088847D01*
X36588888Y-18014000D01*
X36574000Y-17939153D01*
X36574000Y-17939148D01*
X36529904Y-17717463D01*
X36361929Y-17466071D01*
X36298473Y-17423671D01*
X34990331Y-16115530D01*
X34947929Y-16052071D01*
X34696537Y-15884096D01*
X34474852Y-15840000D01*
X34474847Y-15840000D01*
X34400000Y-15825112D01*
X34325153Y-15840000D01*
X29174847Y-15840000D01*
X29100000Y-15825112D01*
X29025153Y-15840000D01*
X29025148Y-15840000D01*
X28803463Y-15884096D01*
X28552071Y-16052071D01*
X28509671Y-16115527D01*
X26405528Y-18219671D01*
X26342072Y-18262071D01*
X26299672Y-18325527D01*
X26299671Y-18325528D01*
X26174097Y-18513463D01*
X26115112Y-18810000D01*
X26130001Y-18884852D01*
X26130000Y-34416289D01*
X26012569Y-34533720D01*
X25855000Y-34914126D01*
X25855000Y-35325874D01*
X26012569Y-35706280D01*
X26130000Y-35823711D01*
X26130001Y-39476288D01*
X26022569Y-39583720D01*
X25865000Y-39964126D01*
X25865000Y-40375874D01*
X26022569Y-40756280D01*
X26140000Y-40873711D01*
X26140001Y-44566288D01*
X26022569Y-44683720D01*
X25865000Y-45064126D01*
X25865000Y-45475874D01*
X26022569Y-45856280D01*
X26140000Y-45973711D01*
X26140001Y-49606288D01*
X26022569Y-49723720D01*
X25865000Y-50104126D01*
X25865000Y-50515874D01*
X26022569Y-50896280D01*
X26313720Y-51187431D01*
X26694126Y-51345000D01*
X27105874Y-51345000D01*
X27180000Y-51314296D01*
X27180001Y-57456148D01*
X27165112Y-57531000D01*
X27180001Y-57605852D01*
X27224097Y-57827537D01*
X27392072Y-58078929D01*
X27455528Y-58121329D01*
X31832791Y-62498593D01*
X31759908Y-62865000D01*
X31875161Y-63444418D01*
X32203375Y-63935625D01*
X32694582Y-64263839D01*
X33127744Y-64350000D01*
X33420256Y-64350000D01*
X33853418Y-64263839D01*
X34344625Y-63935625D01*
X34359096Y-63913967D01*
X34425673Y-64074698D01*
X34604301Y-64253327D01*
X34837690Y-64350000D01*
X35528250Y-64350000D01*
X35687000Y-64191250D01*
X35687000Y-62992000D01*
X35941000Y-62992000D01*
X35941000Y-64191250D01*
X36099750Y-64350000D01*
X36790310Y-64350000D01*
X37023699Y-64253327D01*
X37202327Y-64074698D01*
X37299000Y-63841309D01*
X37299000Y-63150750D01*
X37140250Y-62992000D01*
X35941000Y-62992000D01*
X35687000Y-62992000D01*
X35667000Y-62992000D01*
X35667000Y-62738000D01*
X35687000Y-62738000D01*
X35687000Y-61538750D01*
X35941000Y-61538750D01*
X35941000Y-62738000D01*
X37140250Y-62738000D01*
X37299000Y-62579250D01*
X37299000Y-61888691D01*
X37202327Y-61655302D01*
X37023699Y-61476673D01*
X36790310Y-61380000D01*
X36099750Y-61380000D01*
X35941000Y-61538750D01*
X35687000Y-61538750D01*
X35528250Y-61380000D01*
X34837690Y-61380000D01*
X34604301Y-61476673D01*
X34425673Y-61655302D01*
X34359096Y-61816033D01*
X34344625Y-61794375D01*
X33853418Y-61466161D01*
X33420256Y-61380000D01*
X33127744Y-61380000D01*
X32907593Y-61423791D01*
X28700000Y-57216199D01*
X28700000Y-48789116D01*
X30978728Y-51067845D01*
X30885000Y-51294126D01*
X30885000Y-51705874D01*
X31042569Y-52086280D01*
X31333720Y-52377431D01*
X31714126Y-52535000D01*
X32125874Y-52535000D01*
X32506280Y-52377431D01*
X32797431Y-52086280D01*
X32955000Y-51705874D01*
X32955000Y-51294126D01*
X32797431Y-50913720D01*
X32664314Y-50780603D01*
X32635904Y-50637778D01*
X32467929Y-50386386D01*
X32404473Y-50343986D01*
X29760000Y-47699514D01*
X29760000Y-45459117D01*
X30958728Y-46657846D01*
X30865000Y-46884126D01*
X30865000Y-47295874D01*
X31022569Y-47676280D01*
X31313720Y-47967431D01*
X31694126Y-48125000D01*
X32105874Y-48125000D01*
X32486280Y-47967431D01*
X32777431Y-47676280D01*
X32935000Y-47295874D01*
X32935000Y-46884126D01*
X32777431Y-46503720D01*
X32644314Y-46370603D01*
X32615904Y-46227778D01*
X32557252Y-46139999D01*
X32490329Y-46039841D01*
X32490327Y-46039839D01*
X32447929Y-45976386D01*
X32384476Y-45933988D01*
X30460001Y-44009515D01*
X30460001Y-35961804D01*
X32454943Y-37956746D01*
X32305874Y-37895000D01*
X31894126Y-37895000D01*
X31513720Y-38052569D01*
X31222569Y-38343720D01*
X31065000Y-38724126D01*
X31065000Y-39135874D01*
X31222569Y-39516280D01*
X31513720Y-39807431D01*
X31894126Y-39965000D01*
X32060199Y-39965000D01*
X32160199Y-40065000D01*
X31954126Y-40065000D01*
X31573720Y-40222569D01*
X31282569Y-40513720D01*
X31125000Y-40894126D01*
X31125000Y-41305874D01*
X31282569Y-41686280D01*
X31573720Y-41977431D01*
X31954126Y-42135000D01*
X32120199Y-42135000D01*
X36152249Y-46167052D01*
X35905874Y-46065000D01*
X35494126Y-46065000D01*
X35113720Y-46222569D01*
X34822569Y-46513720D01*
X34665000Y-46894126D01*
X34665000Y-47305874D01*
X34822569Y-47686280D01*
X34940000Y-47803711D01*
X34940001Y-51295148D01*
X34925112Y-51370000D01*
X34984097Y-51666537D01*
X35012606Y-51709203D01*
X35152072Y-51917929D01*
X35215528Y-51960329D01*
X41385980Y-58130782D01*
X41373000Y-58162119D01*
X41373000Y-58717881D01*
X41585680Y-59231337D01*
X41978663Y-59624320D01*
X42492119Y-59837000D01*
X43047881Y-59837000D01*
X43561337Y-59624320D01*
X43715001Y-59470656D01*
X43715001Y-66747137D01*
X43423741Y-66043974D01*
X42795026Y-65415259D01*
X41973569Y-65075000D01*
X41084431Y-65075000D01*
X40262974Y-65415259D01*
X39634259Y-66043974D01*
X39294000Y-66865431D01*
X39294000Y-67754569D01*
X39634259Y-68576026D01*
X40262974Y-69204741D01*
X40529162Y-69315000D01*
X17128838Y-69315000D01*
X17395026Y-69204741D01*
X18023741Y-68576026D01*
X18364000Y-67754569D01*
X18364000Y-66865431D01*
X18023741Y-66043974D01*
X17395026Y-65415259D01*
X16573569Y-65075000D01*
X15684431Y-65075000D01*
X14862974Y-65415259D01*
X14234259Y-66043974D01*
X13985000Y-66645738D01*
X13985000Y-62085750D01*
X18875000Y-62085750D01*
X18875000Y-62776309D01*
X18971673Y-63009698D01*
X19150301Y-63188327D01*
X19383690Y-63285000D01*
X20074250Y-63285000D01*
X20233000Y-63126250D01*
X20233000Y-61927000D01*
X19033750Y-61927000D01*
X18875000Y-62085750D01*
X13985000Y-62085750D01*
X13985000Y-60823691D01*
X18875000Y-60823691D01*
X18875000Y-61514250D01*
X19033750Y-61673000D01*
X20233000Y-61673000D01*
X20233000Y-60473750D01*
X20487000Y-60473750D01*
X20487000Y-61673000D01*
X20507000Y-61673000D01*
X20507000Y-61927000D01*
X20487000Y-61927000D01*
X20487000Y-63126250D01*
X20645750Y-63285000D01*
X21336310Y-63285000D01*
X21569699Y-63188327D01*
X21748327Y-63009698D01*
X21814904Y-62848967D01*
X21829375Y-62870625D01*
X22320582Y-63198839D01*
X22753744Y-63285000D01*
X23046256Y-63285000D01*
X23479418Y-63198839D01*
X23970625Y-62870625D01*
X24170000Y-62572239D01*
X24369375Y-62870625D01*
X24860582Y-63198839D01*
X25293744Y-63285000D01*
X25586256Y-63285000D01*
X26019418Y-63198839D01*
X26510625Y-62870625D01*
X26710000Y-62572239D01*
X26909375Y-62870625D01*
X27400582Y-63198839D01*
X27833744Y-63285000D01*
X28126256Y-63285000D01*
X28559418Y-63198839D01*
X29050625Y-62870625D01*
X29378839Y-62379418D01*
X29494092Y-61800000D01*
X29378839Y-61220582D01*
X29050625Y-60729375D01*
X28559418Y-60401161D01*
X28126256Y-60315000D01*
X27833744Y-60315000D01*
X27400582Y-60401161D01*
X26909375Y-60729375D01*
X26710000Y-61027761D01*
X26510625Y-60729375D01*
X26019418Y-60401161D01*
X25586256Y-60315000D01*
X25293744Y-60315000D01*
X24860582Y-60401161D01*
X24369375Y-60729375D01*
X24170000Y-61027761D01*
X23970625Y-60729375D01*
X23479418Y-60401161D01*
X23046256Y-60315000D01*
X22753744Y-60315000D01*
X22320582Y-60401161D01*
X21829375Y-60729375D01*
X21814904Y-60751033D01*
X21748327Y-60590302D01*
X21569699Y-60411673D01*
X21336310Y-60315000D01*
X20645750Y-60315000D01*
X20487000Y-60473750D01*
X20233000Y-60473750D01*
X20074250Y-60315000D01*
X19383690Y-60315000D01*
X19150301Y-60411673D01*
X18971673Y-60590302D01*
X18875000Y-60823691D01*
X13985000Y-60823691D01*
X13985000Y-59570657D01*
X14038663Y-59624320D01*
X14552119Y-59837000D01*
X15107881Y-59837000D01*
X15621337Y-59624320D01*
X16014320Y-59231337D01*
X16227000Y-58717881D01*
X16227000Y-58162119D01*
X16014320Y-57648663D01*
X15621337Y-57255680D01*
X15430353Y-57176572D01*
X15561143Y-57122397D01*
X15630608Y-56880213D01*
X14830000Y-56079605D01*
X14815858Y-56093748D01*
X14636253Y-55914143D01*
X14650395Y-55900000D01*
X15009605Y-55900000D01*
X15810213Y-56700608D01*
X16052397Y-56631143D01*
X16239144Y-56107698D01*
X16211362Y-55552632D01*
X16052397Y-55168857D01*
X15810213Y-55099392D01*
X15009605Y-55900000D01*
X14650395Y-55900000D01*
X14636253Y-55885858D01*
X14815858Y-55706253D01*
X14830000Y-55720395D01*
X15630608Y-54919787D01*
X15561143Y-54677603D01*
X15420607Y-54627465D01*
X15621337Y-54544320D01*
X16014320Y-54151337D01*
X16227000Y-53637881D01*
X16227000Y-53082119D01*
X16014320Y-52568663D01*
X15621337Y-52175680D01*
X15414487Y-52090000D01*
X15621337Y-52004320D01*
X16014320Y-51611337D01*
X16227000Y-51097881D01*
X16227000Y-50542119D01*
X16014320Y-50028663D01*
X15621337Y-49635680D01*
X15414487Y-49550000D01*
X15621337Y-49464320D01*
X16014320Y-49071337D01*
X16227000Y-48557881D01*
X16227000Y-48002119D01*
X16014320Y-47488663D01*
X15621337Y-47095680D01*
X15430353Y-47016572D01*
X15561143Y-46962397D01*
X15630608Y-46720213D01*
X14830000Y-45919605D01*
X14815858Y-45933748D01*
X14636253Y-45754143D01*
X14650395Y-45740000D01*
X15009605Y-45740000D01*
X15810213Y-46540608D01*
X16052397Y-46471143D01*
X16239144Y-45947698D01*
X16211362Y-45392632D01*
X16052397Y-45008857D01*
X15810213Y-44939392D01*
X15009605Y-45740000D01*
X14650395Y-45740000D01*
X14636253Y-45725858D01*
X14815858Y-45546253D01*
X14830000Y-45560395D01*
X15630608Y-44759787D01*
X15561143Y-44517603D01*
X15420607Y-44467465D01*
X15621337Y-44384320D01*
X16014320Y-43991337D01*
X16227000Y-43477881D01*
X16227000Y-42922119D01*
X16014320Y-42408663D01*
X15621337Y-42015680D01*
X15414487Y-41930000D01*
X15621337Y-41844320D01*
X16014320Y-41451337D01*
X16227000Y-40937881D01*
X16227000Y-40382119D01*
X16014320Y-39868663D01*
X15621337Y-39475680D01*
X15414487Y-39390000D01*
X15621337Y-39304320D01*
X16014320Y-38911337D01*
X16227000Y-38397881D01*
X16227000Y-37842119D01*
X16014320Y-37328663D01*
X15621337Y-36935680D01*
X15414487Y-36850000D01*
X15621337Y-36764320D01*
X16014320Y-36371337D01*
X16227000Y-35857881D01*
X16227000Y-35302119D01*
X16014320Y-34788663D01*
X15621337Y-34395680D01*
X15414487Y-34310000D01*
X15621337Y-34224320D01*
X16014320Y-33831337D01*
X16227000Y-33317881D01*
X16227000Y-32762119D01*
X16014320Y-32248663D01*
X15621337Y-31855680D01*
X15414487Y-31770000D01*
X15621337Y-31684320D01*
X16014320Y-31291337D01*
X16227000Y-30777881D01*
X16227000Y-30222119D01*
X16014320Y-29708663D01*
X15621337Y-29315680D01*
X15414487Y-29230000D01*
X15621337Y-29144320D01*
X16014320Y-28751337D01*
X16227000Y-28237881D01*
X16227000Y-27682119D01*
X16014320Y-27168663D01*
X15621337Y-26775680D01*
X15430353Y-26696572D01*
X15561143Y-26642397D01*
X15630608Y-26400213D01*
X14830000Y-25599605D01*
X14815858Y-25613748D01*
X14636253Y-25434143D01*
X14650395Y-25420000D01*
X15009605Y-25420000D01*
X15810213Y-26220608D01*
X16052397Y-26151143D01*
X16239144Y-25627698D01*
X16211362Y-25072632D01*
X16052397Y-24688857D01*
X15810213Y-24619392D01*
X15009605Y-25420000D01*
X14650395Y-25420000D01*
X14636253Y-25405858D01*
X14815858Y-25226253D01*
X14830000Y-25240395D01*
X15630608Y-24439787D01*
X15561143Y-24197603D01*
X15420607Y-24147465D01*
X15621337Y-24064320D01*
X16014320Y-23671337D01*
X16227000Y-23157881D01*
X16227000Y-22602119D01*
X16014320Y-22088663D01*
X15621337Y-21695680D01*
X15107881Y-21483000D01*
X14552119Y-21483000D01*
X14038663Y-21695680D01*
X13985000Y-21749343D01*
X13985000Y-15904262D01*
X14234259Y-16506026D01*
X14862974Y-17134741D01*
X15684431Y-17475000D01*
X16573569Y-17475000D01*
X17395026Y-17134741D01*
X18023741Y-16506026D01*
X18364000Y-15684569D01*
X18364000Y-14795431D01*
X18023741Y-13973974D01*
X17395026Y-13345259D01*
X16766706Y-13085000D01*
X40891294Y-13085000D01*
X40262974Y-13345259D01*
G36*
X38299671Y-46204473D02*
X38342071Y-46267929D01*
X38593463Y-46435904D01*
X38815148Y-46480000D01*
X38815152Y-46480000D01*
X38889999Y-46494888D01*
X38964846Y-46480000D01*
X41564416Y-46480000D01*
X41585680Y-46531337D01*
X41978663Y-46924320D01*
X42185513Y-47010000D01*
X41978663Y-47095680D01*
X41585680Y-47488663D01*
X41373000Y-48002119D01*
X41373000Y-48557881D01*
X41585680Y-49071337D01*
X41978663Y-49464320D01*
X42185513Y-49550000D01*
X41978663Y-49635680D01*
X41585680Y-50028663D01*
X41574112Y-50056591D01*
X41435833Y-50084096D01*
X41184441Y-50252071D01*
X41016466Y-50503463D01*
X40957481Y-50800000D01*
X41016466Y-51096537D01*
X41184441Y-51347929D01*
X41435833Y-51515904D01*
X41556056Y-51539818D01*
X41585680Y-51611337D01*
X41978663Y-52004320D01*
X42185513Y-52090000D01*
X41978663Y-52175680D01*
X41585680Y-52568663D01*
X41373000Y-53082119D01*
X41373000Y-53637881D01*
X41585680Y-54151337D01*
X41978663Y-54544320D01*
X42169647Y-54623428D01*
X42038857Y-54677603D01*
X41969392Y-54919787D01*
X42770000Y-55720395D01*
X42784143Y-55706253D01*
X42963748Y-55885858D01*
X42949605Y-55900000D01*
X42963748Y-55914143D01*
X42784143Y-56093748D01*
X42770000Y-56079605D01*
X42755858Y-56093748D01*
X42576253Y-55914143D01*
X42590395Y-55900000D01*
X41789787Y-55099392D01*
X41547603Y-55168857D01*
X41360856Y-55692302D01*
X41374753Y-55969951D01*
X36460000Y-51055199D01*
X36460000Y-47803711D01*
X36577431Y-47686280D01*
X36735000Y-47305874D01*
X36735000Y-47127667D01*
X36994126Y-47235000D01*
X37405874Y-47235000D01*
X37786280Y-47077431D01*
X38077431Y-46786280D01*
X38235000Y-46405874D01*
X38235000Y-46139802D01*
X38299671Y-46204473D01*
X38299671Y-46204473D01*
G37*
X38299671Y-46204473D02*
X38342071Y-46267929D01*
X38593463Y-46435904D01*
X38815148Y-46480000D01*
X38815152Y-46480000D01*
X38889999Y-46494888D01*
X38964846Y-46480000D01*
X41564416Y-46480000D01*
X41585680Y-46531337D01*
X41978663Y-46924320D01*
X42185513Y-47010000D01*
X41978663Y-47095680D01*
X41585680Y-47488663D01*
X41373000Y-48002119D01*
X41373000Y-48557881D01*
X41585680Y-49071337D01*
X41978663Y-49464320D01*
X42185513Y-49550000D01*
X41978663Y-49635680D01*
X41585680Y-50028663D01*
X41574112Y-50056591D01*
X41435833Y-50084096D01*
X41184441Y-50252071D01*
X41016466Y-50503463D01*
X40957481Y-50800000D01*
X41016466Y-51096537D01*
X41184441Y-51347929D01*
X41435833Y-51515904D01*
X41556056Y-51539818D01*
X41585680Y-51611337D01*
X41978663Y-52004320D01*
X42185513Y-52090000D01*
X41978663Y-52175680D01*
X41585680Y-52568663D01*
X41373000Y-53082119D01*
X41373000Y-53637881D01*
X41585680Y-54151337D01*
X41978663Y-54544320D01*
X42169647Y-54623428D01*
X42038857Y-54677603D01*
X41969392Y-54919787D01*
X42770000Y-55720395D01*
X42784143Y-55706253D01*
X42963748Y-55885858D01*
X42949605Y-55900000D01*
X42963748Y-55914143D01*
X42784143Y-56093748D01*
X42770000Y-56079605D01*
X42755858Y-56093748D01*
X42576253Y-55914143D01*
X42590395Y-55900000D01*
X41789787Y-55099392D01*
X41547603Y-55168857D01*
X41360856Y-55692302D01*
X41374753Y-55969951D01*
X36460000Y-51055199D01*
X36460000Y-47803711D01*
X36577431Y-47686280D01*
X36735000Y-47305874D01*
X36735000Y-47127667D01*
X36994126Y-47235000D01*
X37405874Y-47235000D01*
X37786280Y-47077431D01*
X38077431Y-46786280D01*
X38235000Y-46405874D01*
X38235000Y-46139802D01*
X38299671Y-46204473D01*
G36*
X41373000Y-30777881D02*
X41585680Y-31291337D01*
X41978663Y-31684320D01*
X42185513Y-31770000D01*
X41978663Y-31855680D01*
X41585680Y-32248663D01*
X41373000Y-32762119D01*
X41373000Y-33317881D01*
X41585680Y-33831337D01*
X41978663Y-34224320D01*
X42185513Y-34310000D01*
X41978663Y-34395680D01*
X41585680Y-34788663D01*
X41373000Y-35302119D01*
X41373000Y-35857881D01*
X41585680Y-36371337D01*
X41978663Y-36764320D01*
X42169647Y-36843428D01*
X42038857Y-36897603D01*
X41969392Y-37139787D01*
X42770000Y-37940395D01*
X42784143Y-37926253D01*
X42963748Y-38105858D01*
X42949605Y-38120000D01*
X42963748Y-38134143D01*
X42784143Y-38313748D01*
X42770000Y-38299605D01*
X41969392Y-39100213D01*
X42038857Y-39342397D01*
X42179393Y-39392535D01*
X41978663Y-39475680D01*
X41585680Y-39868663D01*
X41373000Y-40382119D01*
X41373000Y-40937881D01*
X41585680Y-41451337D01*
X41978663Y-41844320D01*
X42185513Y-41930000D01*
X41978663Y-42015680D01*
X41585680Y-42408663D01*
X41580984Y-42420000D01*
X39067800Y-42420000D01*
X34560102Y-37912302D01*
X41360856Y-37912302D01*
X41388638Y-38467368D01*
X41547603Y-38851143D01*
X41789787Y-38920608D01*
X42590395Y-38120000D01*
X41789787Y-37319392D01*
X41547603Y-37388857D01*
X41360856Y-37912302D01*
X34560102Y-37912302D01*
X31982799Y-35335000D01*
X32205874Y-35335000D01*
X32586280Y-35177431D01*
X32703711Y-35060000D01*
X33525153Y-35060000D01*
X33600000Y-35074888D01*
X33674847Y-35060000D01*
X33674852Y-35060000D01*
X33896537Y-35015904D01*
X34147929Y-34847929D01*
X34190331Y-34784470D01*
X37608625Y-31366177D01*
X37774778Y-31435000D01*
X38425222Y-31435000D01*
X39026153Y-31186086D01*
X39486086Y-30726153D01*
X39554909Y-30560000D01*
X41373000Y-30560000D01*
X41373000Y-30777881D01*
X41373000Y-30777881D01*
G37*
X41373000Y-30777881D02*
X41585680Y-31291337D01*
X41978663Y-31684320D01*
X42185513Y-31770000D01*
X41978663Y-31855680D01*
X41585680Y-32248663D01*
X41373000Y-32762119D01*
X41373000Y-33317881D01*
X41585680Y-33831337D01*
X41978663Y-34224320D01*
X42185513Y-34310000D01*
X41978663Y-34395680D01*
X41585680Y-34788663D01*
X41373000Y-35302119D01*
X41373000Y-35857881D01*
X41585680Y-36371337D01*
X41978663Y-36764320D01*
X42169647Y-36843428D01*
X42038857Y-36897603D01*
X41969392Y-37139787D01*
X42770000Y-37940395D01*
X42784143Y-37926253D01*
X42963748Y-38105858D01*
X42949605Y-38120000D01*
X42963748Y-38134143D01*
X42784143Y-38313748D01*
X42770000Y-38299605D01*
X41969392Y-39100213D01*
X42038857Y-39342397D01*
X42179393Y-39392535D01*
X41978663Y-39475680D01*
X41585680Y-39868663D01*
X41373000Y-40382119D01*
X41373000Y-40937881D01*
X41585680Y-41451337D01*
X41978663Y-41844320D01*
X42185513Y-41930000D01*
X41978663Y-42015680D01*
X41585680Y-42408663D01*
X41580984Y-42420000D01*
X39067800Y-42420000D01*
X34560102Y-37912302D01*
X41360856Y-37912302D01*
X41388638Y-38467368D01*
X41547603Y-38851143D01*
X41789787Y-38920608D01*
X42590395Y-38120000D01*
X41789787Y-37319392D01*
X41547603Y-37388857D01*
X41360856Y-37912302D01*
X34560102Y-37912302D01*
X31982799Y-35335000D01*
X32205874Y-35335000D01*
X32586280Y-35177431D01*
X32703711Y-35060000D01*
X33525153Y-35060000D01*
X33600000Y-35074888D01*
X33674847Y-35060000D01*
X33674852Y-35060000D01*
X33896537Y-35015904D01*
X34147929Y-34847929D01*
X34190331Y-34784470D01*
X37608625Y-31366177D01*
X37774778Y-31435000D01*
X38425222Y-31435000D01*
X39026153Y-31186086D01*
X39486086Y-30726153D01*
X39554909Y-30560000D01*
X41373000Y-30560000D01*
X41373000Y-30777881D01*
G04 #@! TD*
M02*
