G04 #@! TF.GenerationSoftware,KiCad,Pcbnew,(5.0.2)-1*
G04 #@! TF.CreationDate,2019-06-27T16:40:19+05:30*
G04 #@! TF.ProjectId,mAhTime,6d416854-696d-4652-9e6b-696361645f70,rev?*
G04 #@! TF.SameCoordinates,Original*
G04 #@! TF.FileFunction,Other,User*
%FSLAX46Y46*%
G04 Gerber Fmt 4.6, Leading zero omitted, Abs format (unit mm)*
G04 Created by KiCad (PCBNEW (5.0.2)-1) date 06/27/19 16:40:19*
%MOMM*%
%LPD*%
G01*
G04 APERTURE LIST*
%ADD10C,0.050000*%
G04 APERTURE END LIST*
D10*
G04 #@! TO.C,R2*
X36550000Y-34450000D02*
X36550000Y-36350000D01*
X36550000Y-36350000D02*
X32850000Y-36350000D01*
X32850000Y-36350000D02*
X32850000Y-34450000D01*
X32850000Y-34450000D02*
X36550000Y-34450000D01*
G04 #@! TO.C,H1*
X19229000Y-15240000D02*
G75*
G03X19229000Y-15240000I-3100000J0D01*
G01*
G04 #@! TO.C,H2*
X44629000Y-15240000D02*
G75*
G03X44629000Y-15240000I-3100000J0D01*
G01*
G04 #@! TO.C,H3*
X19229000Y-67310000D02*
G75*
G03X19229000Y-67310000I-3100000J0D01*
G01*
G04 #@! TO.C,H4*
X44629000Y-67310000D02*
G75*
G03X44629000Y-67310000I-3100000J0D01*
G01*
G04 #@! TO.C,Q5*
X31330000Y-30010000D02*
X31330000Y-33510000D01*
X27930000Y-30010000D02*
X31330000Y-30010000D01*
X27930000Y-33510000D02*
X27930000Y-30010000D01*
X31330000Y-33510000D02*
X27930000Y-33510000D01*
G04 #@! TO.C,J1*
X31474000Y-17850000D02*
X31474000Y-21450000D01*
X37624000Y-17850000D02*
X31474000Y-17850000D01*
X37624000Y-21450000D02*
X37624000Y-17850000D01*
X31474000Y-21450000D02*
X37624000Y-21450000D01*
G04 #@! TO.C,J2*
X37614000Y-61065000D02*
X31464000Y-61065000D01*
X31464000Y-61065000D02*
X31464000Y-64665000D01*
X31464000Y-64665000D02*
X37614000Y-64665000D01*
X37614000Y-64665000D02*
X37614000Y-61065000D01*
G04 #@! TO.C,Q1*
X31050000Y-53820000D02*
X27650000Y-53820000D01*
X27650000Y-53820000D02*
X27650000Y-50320000D01*
X27650000Y-50320000D02*
X31050000Y-50320000D01*
X31050000Y-50320000D02*
X31050000Y-53820000D01*
G04 #@! TO.C,Q2*
X31050000Y-45240000D02*
X31050000Y-48740000D01*
X27650000Y-45240000D02*
X31050000Y-45240000D01*
X27650000Y-48740000D02*
X27650000Y-45240000D01*
X31050000Y-48740000D02*
X27650000Y-48740000D01*
G04 #@! TO.C,Q3*
X31050000Y-43660000D02*
X27650000Y-43660000D01*
X27650000Y-43660000D02*
X27650000Y-40160000D01*
X27650000Y-40160000D02*
X31050000Y-40160000D01*
X31050000Y-40160000D02*
X31050000Y-43660000D01*
G04 #@! TO.C,Q4*
X31330000Y-35080000D02*
X31330000Y-38580000D01*
X27930000Y-35080000D02*
X31330000Y-35080000D01*
X27930000Y-38580000D02*
X27930000Y-35080000D01*
X31330000Y-38580000D02*
X27930000Y-38580000D01*
G04 #@! TO.C,R1*
X32850000Y-43850000D02*
X36550000Y-43850000D01*
X32850000Y-45750000D02*
X32850000Y-43850000D01*
X36550000Y-45750000D02*
X32850000Y-45750000D01*
X36550000Y-43850000D02*
X36550000Y-45750000D01*
G04 #@! TO.C,R3*
X36560000Y-41510000D02*
X36560000Y-43410000D01*
X36560000Y-43410000D02*
X32860000Y-43410000D01*
X32860000Y-43410000D02*
X32860000Y-41510000D01*
X32860000Y-41510000D02*
X36560000Y-41510000D01*
G04 #@! TO.C,R4*
X32860000Y-39150000D02*
X36560000Y-39150000D01*
X32860000Y-41050000D02*
X32860000Y-39150000D01*
X36560000Y-41050000D02*
X32860000Y-41050000D01*
X36560000Y-39150000D02*
X36560000Y-41050000D01*
G04 #@! TO.C,R5*
X36560000Y-36790000D02*
X36560000Y-38690000D01*
X36560000Y-38690000D02*
X32860000Y-38690000D01*
X32860000Y-38690000D02*
X32860000Y-36790000D01*
X32860000Y-36790000D02*
X36560000Y-36790000D01*
G04 #@! TO.C,R6*
X36550000Y-32150000D02*
X36550000Y-34050000D01*
X36550000Y-34050000D02*
X32850000Y-34050000D01*
X32850000Y-34050000D02*
X32850000Y-32150000D01*
X32850000Y-32150000D02*
X36550000Y-32150000D01*
G04 #@! TO.C,R7*
X25570000Y-30450000D02*
X25570000Y-31910000D01*
X25570000Y-31910000D02*
X22270000Y-31910000D01*
X22270000Y-31910000D02*
X22270000Y-30450000D01*
X22270000Y-30450000D02*
X25570000Y-30450000D01*
G04 #@! TO.C,R8*
X25570000Y-28550000D02*
X25570000Y-30010000D01*
X25570000Y-30010000D02*
X22270000Y-30010000D01*
X22270000Y-30010000D02*
X22270000Y-28550000D01*
X22270000Y-28550000D02*
X25570000Y-28550000D01*
G04 #@! TO.C,R9*
X25570000Y-28120000D02*
X22270000Y-28120000D01*
X25570000Y-26660000D02*
X25570000Y-28120000D01*
X22270000Y-26660000D02*
X25570000Y-26660000D01*
X22270000Y-28120000D02*
X22270000Y-26660000D01*
G04 #@! TO.C,RL1*
X26170000Y-51050000D02*
X26170000Y-52950000D01*
X26170000Y-52950000D02*
X22470000Y-52950000D01*
X22470000Y-52950000D02*
X22470000Y-51050000D01*
X22470000Y-51050000D02*
X26170000Y-51050000D01*
G04 #@! TO.C,RL2*
X26170000Y-48750000D02*
X26170000Y-50650000D01*
X26170000Y-50650000D02*
X22470000Y-50650000D01*
X22470000Y-50650000D02*
X22470000Y-48750000D01*
X22470000Y-48750000D02*
X26170000Y-48750000D01*
G04 #@! TO.C,RL3*
X22480000Y-46380000D02*
X26180000Y-46380000D01*
X22480000Y-48280000D02*
X22480000Y-46380000D01*
X26180000Y-48280000D02*
X22480000Y-48280000D01*
X26180000Y-46380000D02*
X26180000Y-48280000D01*
G04 #@! TO.C,RL4*
X22480000Y-44010000D02*
X26180000Y-44010000D01*
X22480000Y-45910000D02*
X22480000Y-44010000D01*
X26180000Y-45910000D02*
X22480000Y-45910000D01*
X26180000Y-44010000D02*
X26180000Y-45910000D01*
G04 #@! TO.C,RL5*
X26170000Y-41640000D02*
X26170000Y-43540000D01*
X26170000Y-43540000D02*
X22470000Y-43540000D01*
X22470000Y-43540000D02*
X22470000Y-41640000D01*
X22470000Y-41640000D02*
X26170000Y-41640000D01*
G04 #@! TD*
M02*
