G04 #@! TF.GenerationSoftware,KiCad,Pcbnew,(5.0.2)-1*
G04 #@! TF.CreationDate,2019-06-27T16:40:18+05:30*
G04 #@! TF.ProjectId,mAhTime,6d416854-696d-4652-9e6b-696361645f70,rev?*
G04 #@! TF.SameCoordinates,Original*
G04 #@! TF.FileFunction,Copper,L1,Top*
G04 #@! TF.FilePolarity,Positive*
%FSLAX46Y46*%
G04 Gerber Fmt 4.6, Leading zero omitted, Abs format (unit mm)*
G04 Created by KiCad (PCBNEW (5.0.2)-1) date 06/27/19 16:40:18*
%MOMM*%
%LPD*%
G01*
G04 APERTURE LIST*
G04 #@! TA.AperFunction,ComponentPad*
%ADD10O,1.700000X1.700000*%
G04 #@! TD*
G04 #@! TA.AperFunction,ComponentPad*
%ADD11R,1.700000X1.700000*%
G04 #@! TD*
G04 #@! TA.AperFunction,ComponentPad*
%ADD12C,1.524000*%
G04 #@! TD*
G04 #@! TA.AperFunction,Conductor*
%ADD13C,0.100000*%
G04 #@! TD*
G04 #@! TA.AperFunction,SMDPad,CuDef*
%ADD14C,1.150000*%
G04 #@! TD*
G04 #@! TA.AperFunction,SMDPad,CuDef*
%ADD15R,0.900000X0.800000*%
G04 #@! TD*
G04 #@! TA.AperFunction,SMDPad,CuDef*
%ADD16C,0.950000*%
G04 #@! TD*
G04 #@! TA.AperFunction,ComponentPad*
%ADD17C,2.000000*%
G04 #@! TD*
G04 #@! TA.AperFunction,ViaPad*
%ADD18C,0.800000*%
G04 #@! TD*
G04 #@! TA.AperFunction,Conductor*
%ADD19C,0.250000*%
G04 #@! TD*
G04 #@! TA.AperFunction,Conductor*
%ADD20C,0.254000*%
G04 #@! TD*
G04 APERTURE END LIST*
D10*
G04 #@! TO.P,J3,4*
G04 #@! TO.N,/SDA*
X27980000Y-61800000D03*
G04 #@! TO.P,J3,3*
G04 #@! TO.N,/SCL*
X25440000Y-61800000D03*
G04 #@! TO.P,J3,2*
G04 #@! TO.N,/Vcc*
X22900000Y-61800000D03*
D11*
G04 #@! TO.P,J3,1*
G04 #@! TO.N,GND*
X20360000Y-61800000D03*
G04 #@! TD*
D12*
G04 #@! TO.P,U1,1*
G04 #@! TO.N,/Vin*
X14830000Y-22880000D03*
G04 #@! TO.P,U1,2*
G04 #@! TO.N,GND*
X14830000Y-25420000D03*
G04 #@! TO.P,U1,3*
G04 #@! TO.N,Net-(U1-Pad3)*
X14830000Y-27960000D03*
G04 #@! TO.P,U1,4*
G04 #@! TO.N,Net-(U1-Pad4)*
X14830000Y-30500000D03*
G04 #@! TO.P,U1,5*
G04 #@! TO.N,Net-(U1-Pad5)*
X14830000Y-33040000D03*
G04 #@! TO.P,U1,6*
G04 #@! TO.N,Net-(U1-Pad6)*
X14830000Y-35580000D03*
G04 #@! TO.P,U1,7*
G04 #@! TO.N,Net-(U1-Pad7)*
X14830000Y-38120000D03*
G04 #@! TO.P,U1,8*
G04 #@! TO.N,Net-(U1-Pad8)*
X14830000Y-40660000D03*
G04 #@! TO.P,U1,9*
G04 #@! TO.N,Net-(U1-Pad9)*
X14830000Y-43200000D03*
G04 #@! TO.P,U1,10*
G04 #@! TO.N,GND*
X14830000Y-45740000D03*
G04 #@! TO.P,U1,11*
G04 #@! TO.N,/Vcc*
X14830000Y-48280000D03*
G04 #@! TO.P,U1,12*
G04 #@! TO.N,Net-(U1-Pad12)*
X14830000Y-50820000D03*
G04 #@! TO.P,U1,13*
G04 #@! TO.N,Net-(U1-Pad13)*
X14830000Y-53360000D03*
G04 #@! TO.P,U1,14*
G04 #@! TO.N,GND*
X14830000Y-55900000D03*
G04 #@! TO.P,U1,15*
G04 #@! TO.N,Net-(U1-Pad15)*
X14830000Y-58440000D03*
G04 #@! TO.P,U1,16*
G04 #@! TO.N,/Vcc*
X42770000Y-58440000D03*
G04 #@! TO.P,U1,17*
G04 #@! TO.N,GND*
X42770000Y-55900000D03*
G04 #@! TO.P,U1,18*
G04 #@! TO.N,Net-(U1-Pad18)*
X42770000Y-53360000D03*
G04 #@! TO.P,U1,19*
G04 #@! TO.N,Net-(U1-Pad19)*
X42770000Y-50820000D03*
G04 #@! TO.P,U1,20*
G04 #@! TO.N,Net-(U1-Pad20)*
X42770000Y-48280000D03*
G04 #@! TO.P,U1,21*
G04 #@! TO.N,/Ctrl4*
X42770000Y-45740000D03*
G04 #@! TO.P,U1,22*
G04 #@! TO.N,/En_VD*
X42770000Y-43200000D03*
G04 #@! TO.P,U1,23*
G04 #@! TO.N,/SCL*
X42770000Y-40660000D03*
G04 #@! TO.P,U1,24*
G04 #@! TO.N,GND*
X42770000Y-38120000D03*
G04 #@! TO.P,U1,25*
G04 #@! TO.N,/Vcc*
X42770000Y-35580000D03*
G04 #@! TO.P,U1,26*
G04 #@! TO.N,/SDA*
X42770000Y-33040000D03*
G04 #@! TO.P,U1,27*
G04 #@! TO.N,/SW*
X42770000Y-30500000D03*
G04 #@! TO.P,U1,28*
G04 #@! TO.N,/Ctrl3*
X42770000Y-27960000D03*
G04 #@! TO.P,U1,29*
G04 #@! TO.N,/Ctrl2*
X42770000Y-25420000D03*
G04 #@! TO.P,U1,30*
G04 #@! TO.N,/Ctrl1*
X42770000Y-22880000D03*
G04 #@! TD*
D13*
G04 #@! TO.N,/Vcc*
G04 #@! TO.C,R2*
G36*
X36074910Y-34701202D02*
X36099135Y-34704795D01*
X36122891Y-34710746D01*
X36145949Y-34718996D01*
X36168087Y-34729467D01*
X36189093Y-34742057D01*
X36208763Y-34756645D01*
X36226908Y-34773092D01*
X36243355Y-34791237D01*
X36257943Y-34810907D01*
X36270533Y-34831913D01*
X36281004Y-34854051D01*
X36289254Y-34877109D01*
X36295205Y-34900865D01*
X36298798Y-34925090D01*
X36300000Y-34949550D01*
X36300000Y-35850450D01*
X36298798Y-35874910D01*
X36295205Y-35899135D01*
X36289254Y-35922891D01*
X36281004Y-35945949D01*
X36270533Y-35968087D01*
X36257943Y-35989093D01*
X36243355Y-36008763D01*
X36226908Y-36026908D01*
X36208763Y-36043355D01*
X36189093Y-36057943D01*
X36168087Y-36070533D01*
X36145949Y-36081004D01*
X36122891Y-36089254D01*
X36099135Y-36095205D01*
X36074910Y-36098798D01*
X36050450Y-36100000D01*
X35399550Y-36100000D01*
X35375090Y-36098798D01*
X35350865Y-36095205D01*
X35327109Y-36089254D01*
X35304051Y-36081004D01*
X35281913Y-36070533D01*
X35260907Y-36057943D01*
X35241237Y-36043355D01*
X35223092Y-36026908D01*
X35206645Y-36008763D01*
X35192057Y-35989093D01*
X35179467Y-35968087D01*
X35168996Y-35945949D01*
X35160746Y-35922891D01*
X35154795Y-35899135D01*
X35151202Y-35874910D01*
X35150000Y-35850450D01*
X35150000Y-34949550D01*
X35151202Y-34925090D01*
X35154795Y-34900865D01*
X35160746Y-34877109D01*
X35168996Y-34854051D01*
X35179467Y-34831913D01*
X35192057Y-34810907D01*
X35206645Y-34791237D01*
X35223092Y-34773092D01*
X35241237Y-34756645D01*
X35260907Y-34742057D01*
X35281913Y-34729467D01*
X35304051Y-34718996D01*
X35327109Y-34710746D01*
X35350865Y-34704795D01*
X35375090Y-34701202D01*
X35399550Y-34700000D01*
X36050450Y-34700000D01*
X36074910Y-34701202D01*
X36074910Y-34701202D01*
G37*
D14*
G04 #@! TD*
G04 #@! TO.P,R2,1*
G04 #@! TO.N,/Vcc*
X35725000Y-35400000D03*
D13*
G04 #@! TO.N,/SW*
G04 #@! TO.C,R2*
G36*
X34024910Y-34701202D02*
X34049135Y-34704795D01*
X34072891Y-34710746D01*
X34095949Y-34718996D01*
X34118087Y-34729467D01*
X34139093Y-34742057D01*
X34158763Y-34756645D01*
X34176908Y-34773092D01*
X34193355Y-34791237D01*
X34207943Y-34810907D01*
X34220533Y-34831913D01*
X34231004Y-34854051D01*
X34239254Y-34877109D01*
X34245205Y-34900865D01*
X34248798Y-34925090D01*
X34250000Y-34949550D01*
X34250000Y-35850450D01*
X34248798Y-35874910D01*
X34245205Y-35899135D01*
X34239254Y-35922891D01*
X34231004Y-35945949D01*
X34220533Y-35968087D01*
X34207943Y-35989093D01*
X34193355Y-36008763D01*
X34176908Y-36026908D01*
X34158763Y-36043355D01*
X34139093Y-36057943D01*
X34118087Y-36070533D01*
X34095949Y-36081004D01*
X34072891Y-36089254D01*
X34049135Y-36095205D01*
X34024910Y-36098798D01*
X34000450Y-36100000D01*
X33349550Y-36100000D01*
X33325090Y-36098798D01*
X33300865Y-36095205D01*
X33277109Y-36089254D01*
X33254051Y-36081004D01*
X33231913Y-36070533D01*
X33210907Y-36057943D01*
X33191237Y-36043355D01*
X33173092Y-36026908D01*
X33156645Y-36008763D01*
X33142057Y-35989093D01*
X33129467Y-35968087D01*
X33118996Y-35945949D01*
X33110746Y-35922891D01*
X33104795Y-35899135D01*
X33101202Y-35874910D01*
X33100000Y-35850450D01*
X33100000Y-34949550D01*
X33101202Y-34925090D01*
X33104795Y-34900865D01*
X33110746Y-34877109D01*
X33118996Y-34854051D01*
X33129467Y-34831913D01*
X33142057Y-34810907D01*
X33156645Y-34791237D01*
X33173092Y-34773092D01*
X33191237Y-34756645D01*
X33210907Y-34742057D01*
X33231913Y-34729467D01*
X33254051Y-34718996D01*
X33277109Y-34710746D01*
X33300865Y-34704795D01*
X33325090Y-34701202D01*
X33349550Y-34700000D01*
X34000450Y-34700000D01*
X34024910Y-34701202D01*
X34024910Y-34701202D01*
G37*
D14*
G04 #@! TD*
G04 #@! TO.P,R2,2*
G04 #@! TO.N,/SW*
X33675000Y-35400000D03*
D15*
G04 #@! TO.P,Q5,3*
G04 #@! TO.N,Net-(Q5-Pad3)*
X28630000Y-31760000D03*
G04 #@! TO.P,Q5,2*
G04 #@! TO.N,GND*
X30630000Y-30810000D03*
G04 #@! TO.P,Q5,1*
G04 #@! TO.N,/En_VD*
X30630000Y-32710000D03*
G04 #@! TD*
D10*
G04 #@! TO.P,J1,2*
G04 #@! TO.N,/Vbat*
X35814000Y-19650000D03*
D11*
G04 #@! TO.P,J1,1*
G04 #@! TO.N,GND*
X33274000Y-19650000D03*
G04 #@! TD*
G04 #@! TO.P,J2,1*
G04 #@! TO.N,GND*
X35814000Y-62865000D03*
D10*
G04 #@! TO.P,J2,2*
G04 #@! TO.N,/dut*
X33274000Y-62865000D03*
G04 #@! TD*
D15*
G04 #@! TO.P,Q1,1*
G04 #@! TO.N,/Ctrl1*
X30350000Y-53020000D03*
G04 #@! TO.P,Q1,2*
G04 #@! TO.N,/Vbat*
X30350000Y-51120000D03*
G04 #@! TO.P,Q1,3*
G04 #@! TO.N,Net-(Q1-Pad3)*
X28350000Y-52070000D03*
G04 #@! TD*
G04 #@! TO.P,Q2,3*
G04 #@! TO.N,Net-(Q2-Pad3)*
X28350000Y-46990000D03*
G04 #@! TO.P,Q2,2*
G04 #@! TO.N,/Vbat*
X30350000Y-46040000D03*
G04 #@! TO.P,Q2,1*
G04 #@! TO.N,/Ctrl2*
X30350000Y-47940000D03*
G04 #@! TD*
G04 #@! TO.P,Q3,1*
G04 #@! TO.N,/Ctrl3*
X30350000Y-42860000D03*
G04 #@! TO.P,Q3,2*
G04 #@! TO.N,/Vbat*
X30350000Y-40960000D03*
G04 #@! TO.P,Q3,3*
G04 #@! TO.N,Net-(Q3-Pad3)*
X28350000Y-41910000D03*
G04 #@! TD*
G04 #@! TO.P,Q4,3*
G04 #@! TO.N,/dut*
X28630000Y-36830000D03*
G04 #@! TO.P,Q4,2*
G04 #@! TO.N,/Vbat*
X30630000Y-35880000D03*
G04 #@! TO.P,Q4,1*
G04 #@! TO.N,/Ctrl4*
X30630000Y-37780000D03*
G04 #@! TD*
D13*
G04 #@! TO.N,/Ctrl1*
G04 #@! TO.C,R1*
G36*
X34024910Y-44101202D02*
X34049135Y-44104795D01*
X34072891Y-44110746D01*
X34095949Y-44118996D01*
X34118087Y-44129467D01*
X34139093Y-44142057D01*
X34158763Y-44156645D01*
X34176908Y-44173092D01*
X34193355Y-44191237D01*
X34207943Y-44210907D01*
X34220533Y-44231913D01*
X34231004Y-44254051D01*
X34239254Y-44277109D01*
X34245205Y-44300865D01*
X34248798Y-44325090D01*
X34250000Y-44349550D01*
X34250000Y-45250450D01*
X34248798Y-45274910D01*
X34245205Y-45299135D01*
X34239254Y-45322891D01*
X34231004Y-45345949D01*
X34220533Y-45368087D01*
X34207943Y-45389093D01*
X34193355Y-45408763D01*
X34176908Y-45426908D01*
X34158763Y-45443355D01*
X34139093Y-45457943D01*
X34118087Y-45470533D01*
X34095949Y-45481004D01*
X34072891Y-45489254D01*
X34049135Y-45495205D01*
X34024910Y-45498798D01*
X34000450Y-45500000D01*
X33349550Y-45500000D01*
X33325090Y-45498798D01*
X33300865Y-45495205D01*
X33277109Y-45489254D01*
X33254051Y-45481004D01*
X33231913Y-45470533D01*
X33210907Y-45457943D01*
X33191237Y-45443355D01*
X33173092Y-45426908D01*
X33156645Y-45408763D01*
X33142057Y-45389093D01*
X33129467Y-45368087D01*
X33118996Y-45345949D01*
X33110746Y-45322891D01*
X33104795Y-45299135D01*
X33101202Y-45274910D01*
X33100000Y-45250450D01*
X33100000Y-44349550D01*
X33101202Y-44325090D01*
X33104795Y-44300865D01*
X33110746Y-44277109D01*
X33118996Y-44254051D01*
X33129467Y-44231913D01*
X33142057Y-44210907D01*
X33156645Y-44191237D01*
X33173092Y-44173092D01*
X33191237Y-44156645D01*
X33210907Y-44142057D01*
X33231913Y-44129467D01*
X33254051Y-44118996D01*
X33277109Y-44110746D01*
X33300865Y-44104795D01*
X33325090Y-44101202D01*
X33349550Y-44100000D01*
X34000450Y-44100000D01*
X34024910Y-44101202D01*
X34024910Y-44101202D01*
G37*
D14*
G04 #@! TD*
G04 #@! TO.P,R1,2*
G04 #@! TO.N,/Ctrl1*
X33675000Y-44800000D03*
D13*
G04 #@! TO.N,/Vcc*
G04 #@! TO.C,R1*
G36*
X36074910Y-44101202D02*
X36099135Y-44104795D01*
X36122891Y-44110746D01*
X36145949Y-44118996D01*
X36168087Y-44129467D01*
X36189093Y-44142057D01*
X36208763Y-44156645D01*
X36226908Y-44173092D01*
X36243355Y-44191237D01*
X36257943Y-44210907D01*
X36270533Y-44231913D01*
X36281004Y-44254051D01*
X36289254Y-44277109D01*
X36295205Y-44300865D01*
X36298798Y-44325090D01*
X36300000Y-44349550D01*
X36300000Y-45250450D01*
X36298798Y-45274910D01*
X36295205Y-45299135D01*
X36289254Y-45322891D01*
X36281004Y-45345949D01*
X36270533Y-45368087D01*
X36257943Y-45389093D01*
X36243355Y-45408763D01*
X36226908Y-45426908D01*
X36208763Y-45443355D01*
X36189093Y-45457943D01*
X36168087Y-45470533D01*
X36145949Y-45481004D01*
X36122891Y-45489254D01*
X36099135Y-45495205D01*
X36074910Y-45498798D01*
X36050450Y-45500000D01*
X35399550Y-45500000D01*
X35375090Y-45498798D01*
X35350865Y-45495205D01*
X35327109Y-45489254D01*
X35304051Y-45481004D01*
X35281913Y-45470533D01*
X35260907Y-45457943D01*
X35241237Y-45443355D01*
X35223092Y-45426908D01*
X35206645Y-45408763D01*
X35192057Y-45389093D01*
X35179467Y-45368087D01*
X35168996Y-45345949D01*
X35160746Y-45322891D01*
X35154795Y-45299135D01*
X35151202Y-45274910D01*
X35150000Y-45250450D01*
X35150000Y-44349550D01*
X35151202Y-44325090D01*
X35154795Y-44300865D01*
X35160746Y-44277109D01*
X35168996Y-44254051D01*
X35179467Y-44231913D01*
X35192057Y-44210907D01*
X35206645Y-44191237D01*
X35223092Y-44173092D01*
X35241237Y-44156645D01*
X35260907Y-44142057D01*
X35281913Y-44129467D01*
X35304051Y-44118996D01*
X35327109Y-44110746D01*
X35350865Y-44104795D01*
X35375090Y-44101202D01*
X35399550Y-44100000D01*
X36050450Y-44100000D01*
X36074910Y-44101202D01*
X36074910Y-44101202D01*
G37*
D14*
G04 #@! TD*
G04 #@! TO.P,R1,1*
G04 #@! TO.N,/Vcc*
X35725000Y-44800000D03*
D13*
G04 #@! TO.N,/Vcc*
G04 #@! TO.C,R3*
G36*
X36084910Y-41761202D02*
X36109135Y-41764795D01*
X36132891Y-41770746D01*
X36155949Y-41778996D01*
X36178087Y-41789467D01*
X36199093Y-41802057D01*
X36218763Y-41816645D01*
X36236908Y-41833092D01*
X36253355Y-41851237D01*
X36267943Y-41870907D01*
X36280533Y-41891913D01*
X36291004Y-41914051D01*
X36299254Y-41937109D01*
X36305205Y-41960865D01*
X36308798Y-41985090D01*
X36310000Y-42009550D01*
X36310000Y-42910450D01*
X36308798Y-42934910D01*
X36305205Y-42959135D01*
X36299254Y-42982891D01*
X36291004Y-43005949D01*
X36280533Y-43028087D01*
X36267943Y-43049093D01*
X36253355Y-43068763D01*
X36236908Y-43086908D01*
X36218763Y-43103355D01*
X36199093Y-43117943D01*
X36178087Y-43130533D01*
X36155949Y-43141004D01*
X36132891Y-43149254D01*
X36109135Y-43155205D01*
X36084910Y-43158798D01*
X36060450Y-43160000D01*
X35409550Y-43160000D01*
X35385090Y-43158798D01*
X35360865Y-43155205D01*
X35337109Y-43149254D01*
X35314051Y-43141004D01*
X35291913Y-43130533D01*
X35270907Y-43117943D01*
X35251237Y-43103355D01*
X35233092Y-43086908D01*
X35216645Y-43068763D01*
X35202057Y-43049093D01*
X35189467Y-43028087D01*
X35178996Y-43005949D01*
X35170746Y-42982891D01*
X35164795Y-42959135D01*
X35161202Y-42934910D01*
X35160000Y-42910450D01*
X35160000Y-42009550D01*
X35161202Y-41985090D01*
X35164795Y-41960865D01*
X35170746Y-41937109D01*
X35178996Y-41914051D01*
X35189467Y-41891913D01*
X35202057Y-41870907D01*
X35216645Y-41851237D01*
X35233092Y-41833092D01*
X35251237Y-41816645D01*
X35270907Y-41802057D01*
X35291913Y-41789467D01*
X35314051Y-41778996D01*
X35337109Y-41770746D01*
X35360865Y-41764795D01*
X35385090Y-41761202D01*
X35409550Y-41760000D01*
X36060450Y-41760000D01*
X36084910Y-41761202D01*
X36084910Y-41761202D01*
G37*
D14*
G04 #@! TD*
G04 #@! TO.P,R3,1*
G04 #@! TO.N,/Vcc*
X35735000Y-42460000D03*
D13*
G04 #@! TO.N,/Ctrl2*
G04 #@! TO.C,R3*
G36*
X34034910Y-41761202D02*
X34059135Y-41764795D01*
X34082891Y-41770746D01*
X34105949Y-41778996D01*
X34128087Y-41789467D01*
X34149093Y-41802057D01*
X34168763Y-41816645D01*
X34186908Y-41833092D01*
X34203355Y-41851237D01*
X34217943Y-41870907D01*
X34230533Y-41891913D01*
X34241004Y-41914051D01*
X34249254Y-41937109D01*
X34255205Y-41960865D01*
X34258798Y-41985090D01*
X34260000Y-42009550D01*
X34260000Y-42910450D01*
X34258798Y-42934910D01*
X34255205Y-42959135D01*
X34249254Y-42982891D01*
X34241004Y-43005949D01*
X34230533Y-43028087D01*
X34217943Y-43049093D01*
X34203355Y-43068763D01*
X34186908Y-43086908D01*
X34168763Y-43103355D01*
X34149093Y-43117943D01*
X34128087Y-43130533D01*
X34105949Y-43141004D01*
X34082891Y-43149254D01*
X34059135Y-43155205D01*
X34034910Y-43158798D01*
X34010450Y-43160000D01*
X33359550Y-43160000D01*
X33335090Y-43158798D01*
X33310865Y-43155205D01*
X33287109Y-43149254D01*
X33264051Y-43141004D01*
X33241913Y-43130533D01*
X33220907Y-43117943D01*
X33201237Y-43103355D01*
X33183092Y-43086908D01*
X33166645Y-43068763D01*
X33152057Y-43049093D01*
X33139467Y-43028087D01*
X33128996Y-43005949D01*
X33120746Y-42982891D01*
X33114795Y-42959135D01*
X33111202Y-42934910D01*
X33110000Y-42910450D01*
X33110000Y-42009550D01*
X33111202Y-41985090D01*
X33114795Y-41960865D01*
X33120746Y-41937109D01*
X33128996Y-41914051D01*
X33139467Y-41891913D01*
X33152057Y-41870907D01*
X33166645Y-41851237D01*
X33183092Y-41833092D01*
X33201237Y-41816645D01*
X33220907Y-41802057D01*
X33241913Y-41789467D01*
X33264051Y-41778996D01*
X33287109Y-41770746D01*
X33310865Y-41764795D01*
X33335090Y-41761202D01*
X33359550Y-41760000D01*
X34010450Y-41760000D01*
X34034910Y-41761202D01*
X34034910Y-41761202D01*
G37*
D14*
G04 #@! TD*
G04 #@! TO.P,R3,2*
G04 #@! TO.N,/Ctrl2*
X33685000Y-42460000D03*
D13*
G04 #@! TO.N,/Ctrl3*
G04 #@! TO.C,R4*
G36*
X34034910Y-39401202D02*
X34059135Y-39404795D01*
X34082891Y-39410746D01*
X34105949Y-39418996D01*
X34128087Y-39429467D01*
X34149093Y-39442057D01*
X34168763Y-39456645D01*
X34186908Y-39473092D01*
X34203355Y-39491237D01*
X34217943Y-39510907D01*
X34230533Y-39531913D01*
X34241004Y-39554051D01*
X34249254Y-39577109D01*
X34255205Y-39600865D01*
X34258798Y-39625090D01*
X34260000Y-39649550D01*
X34260000Y-40550450D01*
X34258798Y-40574910D01*
X34255205Y-40599135D01*
X34249254Y-40622891D01*
X34241004Y-40645949D01*
X34230533Y-40668087D01*
X34217943Y-40689093D01*
X34203355Y-40708763D01*
X34186908Y-40726908D01*
X34168763Y-40743355D01*
X34149093Y-40757943D01*
X34128087Y-40770533D01*
X34105949Y-40781004D01*
X34082891Y-40789254D01*
X34059135Y-40795205D01*
X34034910Y-40798798D01*
X34010450Y-40800000D01*
X33359550Y-40800000D01*
X33335090Y-40798798D01*
X33310865Y-40795205D01*
X33287109Y-40789254D01*
X33264051Y-40781004D01*
X33241913Y-40770533D01*
X33220907Y-40757943D01*
X33201237Y-40743355D01*
X33183092Y-40726908D01*
X33166645Y-40708763D01*
X33152057Y-40689093D01*
X33139467Y-40668087D01*
X33128996Y-40645949D01*
X33120746Y-40622891D01*
X33114795Y-40599135D01*
X33111202Y-40574910D01*
X33110000Y-40550450D01*
X33110000Y-39649550D01*
X33111202Y-39625090D01*
X33114795Y-39600865D01*
X33120746Y-39577109D01*
X33128996Y-39554051D01*
X33139467Y-39531913D01*
X33152057Y-39510907D01*
X33166645Y-39491237D01*
X33183092Y-39473092D01*
X33201237Y-39456645D01*
X33220907Y-39442057D01*
X33241913Y-39429467D01*
X33264051Y-39418996D01*
X33287109Y-39410746D01*
X33310865Y-39404795D01*
X33335090Y-39401202D01*
X33359550Y-39400000D01*
X34010450Y-39400000D01*
X34034910Y-39401202D01*
X34034910Y-39401202D01*
G37*
D14*
G04 #@! TD*
G04 #@! TO.P,R4,2*
G04 #@! TO.N,/Ctrl3*
X33685000Y-40100000D03*
D13*
G04 #@! TO.N,/Vcc*
G04 #@! TO.C,R4*
G36*
X36084910Y-39401202D02*
X36109135Y-39404795D01*
X36132891Y-39410746D01*
X36155949Y-39418996D01*
X36178087Y-39429467D01*
X36199093Y-39442057D01*
X36218763Y-39456645D01*
X36236908Y-39473092D01*
X36253355Y-39491237D01*
X36267943Y-39510907D01*
X36280533Y-39531913D01*
X36291004Y-39554051D01*
X36299254Y-39577109D01*
X36305205Y-39600865D01*
X36308798Y-39625090D01*
X36310000Y-39649550D01*
X36310000Y-40550450D01*
X36308798Y-40574910D01*
X36305205Y-40599135D01*
X36299254Y-40622891D01*
X36291004Y-40645949D01*
X36280533Y-40668087D01*
X36267943Y-40689093D01*
X36253355Y-40708763D01*
X36236908Y-40726908D01*
X36218763Y-40743355D01*
X36199093Y-40757943D01*
X36178087Y-40770533D01*
X36155949Y-40781004D01*
X36132891Y-40789254D01*
X36109135Y-40795205D01*
X36084910Y-40798798D01*
X36060450Y-40800000D01*
X35409550Y-40800000D01*
X35385090Y-40798798D01*
X35360865Y-40795205D01*
X35337109Y-40789254D01*
X35314051Y-40781004D01*
X35291913Y-40770533D01*
X35270907Y-40757943D01*
X35251237Y-40743355D01*
X35233092Y-40726908D01*
X35216645Y-40708763D01*
X35202057Y-40689093D01*
X35189467Y-40668087D01*
X35178996Y-40645949D01*
X35170746Y-40622891D01*
X35164795Y-40599135D01*
X35161202Y-40574910D01*
X35160000Y-40550450D01*
X35160000Y-39649550D01*
X35161202Y-39625090D01*
X35164795Y-39600865D01*
X35170746Y-39577109D01*
X35178996Y-39554051D01*
X35189467Y-39531913D01*
X35202057Y-39510907D01*
X35216645Y-39491237D01*
X35233092Y-39473092D01*
X35251237Y-39456645D01*
X35270907Y-39442057D01*
X35291913Y-39429467D01*
X35314051Y-39418996D01*
X35337109Y-39410746D01*
X35360865Y-39404795D01*
X35385090Y-39401202D01*
X35409550Y-39400000D01*
X36060450Y-39400000D01*
X36084910Y-39401202D01*
X36084910Y-39401202D01*
G37*
D14*
G04 #@! TD*
G04 #@! TO.P,R4,1*
G04 #@! TO.N,/Vcc*
X35735000Y-40100000D03*
D13*
G04 #@! TO.N,/Vcc*
G04 #@! TO.C,R5*
G36*
X36084910Y-37041202D02*
X36109135Y-37044795D01*
X36132891Y-37050746D01*
X36155949Y-37058996D01*
X36178087Y-37069467D01*
X36199093Y-37082057D01*
X36218763Y-37096645D01*
X36236908Y-37113092D01*
X36253355Y-37131237D01*
X36267943Y-37150907D01*
X36280533Y-37171913D01*
X36291004Y-37194051D01*
X36299254Y-37217109D01*
X36305205Y-37240865D01*
X36308798Y-37265090D01*
X36310000Y-37289550D01*
X36310000Y-38190450D01*
X36308798Y-38214910D01*
X36305205Y-38239135D01*
X36299254Y-38262891D01*
X36291004Y-38285949D01*
X36280533Y-38308087D01*
X36267943Y-38329093D01*
X36253355Y-38348763D01*
X36236908Y-38366908D01*
X36218763Y-38383355D01*
X36199093Y-38397943D01*
X36178087Y-38410533D01*
X36155949Y-38421004D01*
X36132891Y-38429254D01*
X36109135Y-38435205D01*
X36084910Y-38438798D01*
X36060450Y-38440000D01*
X35409550Y-38440000D01*
X35385090Y-38438798D01*
X35360865Y-38435205D01*
X35337109Y-38429254D01*
X35314051Y-38421004D01*
X35291913Y-38410533D01*
X35270907Y-38397943D01*
X35251237Y-38383355D01*
X35233092Y-38366908D01*
X35216645Y-38348763D01*
X35202057Y-38329093D01*
X35189467Y-38308087D01*
X35178996Y-38285949D01*
X35170746Y-38262891D01*
X35164795Y-38239135D01*
X35161202Y-38214910D01*
X35160000Y-38190450D01*
X35160000Y-37289550D01*
X35161202Y-37265090D01*
X35164795Y-37240865D01*
X35170746Y-37217109D01*
X35178996Y-37194051D01*
X35189467Y-37171913D01*
X35202057Y-37150907D01*
X35216645Y-37131237D01*
X35233092Y-37113092D01*
X35251237Y-37096645D01*
X35270907Y-37082057D01*
X35291913Y-37069467D01*
X35314051Y-37058996D01*
X35337109Y-37050746D01*
X35360865Y-37044795D01*
X35385090Y-37041202D01*
X35409550Y-37040000D01*
X36060450Y-37040000D01*
X36084910Y-37041202D01*
X36084910Y-37041202D01*
G37*
D14*
G04 #@! TD*
G04 #@! TO.P,R5,1*
G04 #@! TO.N,/Vcc*
X35735000Y-37740000D03*
D13*
G04 #@! TO.N,/Ctrl4*
G04 #@! TO.C,R5*
G36*
X34034910Y-37041202D02*
X34059135Y-37044795D01*
X34082891Y-37050746D01*
X34105949Y-37058996D01*
X34128087Y-37069467D01*
X34149093Y-37082057D01*
X34168763Y-37096645D01*
X34186908Y-37113092D01*
X34203355Y-37131237D01*
X34217943Y-37150907D01*
X34230533Y-37171913D01*
X34241004Y-37194051D01*
X34249254Y-37217109D01*
X34255205Y-37240865D01*
X34258798Y-37265090D01*
X34260000Y-37289550D01*
X34260000Y-38190450D01*
X34258798Y-38214910D01*
X34255205Y-38239135D01*
X34249254Y-38262891D01*
X34241004Y-38285949D01*
X34230533Y-38308087D01*
X34217943Y-38329093D01*
X34203355Y-38348763D01*
X34186908Y-38366908D01*
X34168763Y-38383355D01*
X34149093Y-38397943D01*
X34128087Y-38410533D01*
X34105949Y-38421004D01*
X34082891Y-38429254D01*
X34059135Y-38435205D01*
X34034910Y-38438798D01*
X34010450Y-38440000D01*
X33359550Y-38440000D01*
X33335090Y-38438798D01*
X33310865Y-38435205D01*
X33287109Y-38429254D01*
X33264051Y-38421004D01*
X33241913Y-38410533D01*
X33220907Y-38397943D01*
X33201237Y-38383355D01*
X33183092Y-38366908D01*
X33166645Y-38348763D01*
X33152057Y-38329093D01*
X33139467Y-38308087D01*
X33128996Y-38285949D01*
X33120746Y-38262891D01*
X33114795Y-38239135D01*
X33111202Y-38214910D01*
X33110000Y-38190450D01*
X33110000Y-37289550D01*
X33111202Y-37265090D01*
X33114795Y-37240865D01*
X33120746Y-37217109D01*
X33128996Y-37194051D01*
X33139467Y-37171913D01*
X33152057Y-37150907D01*
X33166645Y-37131237D01*
X33183092Y-37113092D01*
X33201237Y-37096645D01*
X33220907Y-37082057D01*
X33241913Y-37069467D01*
X33264051Y-37058996D01*
X33287109Y-37050746D01*
X33310865Y-37044795D01*
X33335090Y-37041202D01*
X33359550Y-37040000D01*
X34010450Y-37040000D01*
X34034910Y-37041202D01*
X34034910Y-37041202D01*
G37*
D14*
G04 #@! TD*
G04 #@! TO.P,R5,2*
G04 #@! TO.N,/Ctrl4*
X33685000Y-37740000D03*
D13*
G04 #@! TO.N,GND*
G04 #@! TO.C,R6*
G36*
X36074910Y-32401202D02*
X36099135Y-32404795D01*
X36122891Y-32410746D01*
X36145949Y-32418996D01*
X36168087Y-32429467D01*
X36189093Y-32442057D01*
X36208763Y-32456645D01*
X36226908Y-32473092D01*
X36243355Y-32491237D01*
X36257943Y-32510907D01*
X36270533Y-32531913D01*
X36281004Y-32554051D01*
X36289254Y-32577109D01*
X36295205Y-32600865D01*
X36298798Y-32625090D01*
X36300000Y-32649550D01*
X36300000Y-33550450D01*
X36298798Y-33574910D01*
X36295205Y-33599135D01*
X36289254Y-33622891D01*
X36281004Y-33645949D01*
X36270533Y-33668087D01*
X36257943Y-33689093D01*
X36243355Y-33708763D01*
X36226908Y-33726908D01*
X36208763Y-33743355D01*
X36189093Y-33757943D01*
X36168087Y-33770533D01*
X36145949Y-33781004D01*
X36122891Y-33789254D01*
X36099135Y-33795205D01*
X36074910Y-33798798D01*
X36050450Y-33800000D01*
X35399550Y-33800000D01*
X35375090Y-33798798D01*
X35350865Y-33795205D01*
X35327109Y-33789254D01*
X35304051Y-33781004D01*
X35281913Y-33770533D01*
X35260907Y-33757943D01*
X35241237Y-33743355D01*
X35223092Y-33726908D01*
X35206645Y-33708763D01*
X35192057Y-33689093D01*
X35179467Y-33668087D01*
X35168996Y-33645949D01*
X35160746Y-33622891D01*
X35154795Y-33599135D01*
X35151202Y-33574910D01*
X35150000Y-33550450D01*
X35150000Y-32649550D01*
X35151202Y-32625090D01*
X35154795Y-32600865D01*
X35160746Y-32577109D01*
X35168996Y-32554051D01*
X35179467Y-32531913D01*
X35192057Y-32510907D01*
X35206645Y-32491237D01*
X35223092Y-32473092D01*
X35241237Y-32456645D01*
X35260907Y-32442057D01*
X35281913Y-32429467D01*
X35304051Y-32418996D01*
X35327109Y-32410746D01*
X35350865Y-32404795D01*
X35375090Y-32401202D01*
X35399550Y-32400000D01*
X36050450Y-32400000D01*
X36074910Y-32401202D01*
X36074910Y-32401202D01*
G37*
D14*
G04 #@! TD*
G04 #@! TO.P,R6,1*
G04 #@! TO.N,GND*
X35725000Y-33100000D03*
D13*
G04 #@! TO.N,/En_VD*
G04 #@! TO.C,R6*
G36*
X34024910Y-32401202D02*
X34049135Y-32404795D01*
X34072891Y-32410746D01*
X34095949Y-32418996D01*
X34118087Y-32429467D01*
X34139093Y-32442057D01*
X34158763Y-32456645D01*
X34176908Y-32473092D01*
X34193355Y-32491237D01*
X34207943Y-32510907D01*
X34220533Y-32531913D01*
X34231004Y-32554051D01*
X34239254Y-32577109D01*
X34245205Y-32600865D01*
X34248798Y-32625090D01*
X34250000Y-32649550D01*
X34250000Y-33550450D01*
X34248798Y-33574910D01*
X34245205Y-33599135D01*
X34239254Y-33622891D01*
X34231004Y-33645949D01*
X34220533Y-33668087D01*
X34207943Y-33689093D01*
X34193355Y-33708763D01*
X34176908Y-33726908D01*
X34158763Y-33743355D01*
X34139093Y-33757943D01*
X34118087Y-33770533D01*
X34095949Y-33781004D01*
X34072891Y-33789254D01*
X34049135Y-33795205D01*
X34024910Y-33798798D01*
X34000450Y-33800000D01*
X33349550Y-33800000D01*
X33325090Y-33798798D01*
X33300865Y-33795205D01*
X33277109Y-33789254D01*
X33254051Y-33781004D01*
X33231913Y-33770533D01*
X33210907Y-33757943D01*
X33191237Y-33743355D01*
X33173092Y-33726908D01*
X33156645Y-33708763D01*
X33142057Y-33689093D01*
X33129467Y-33668087D01*
X33118996Y-33645949D01*
X33110746Y-33622891D01*
X33104795Y-33599135D01*
X33101202Y-33574910D01*
X33100000Y-33550450D01*
X33100000Y-32649550D01*
X33101202Y-32625090D01*
X33104795Y-32600865D01*
X33110746Y-32577109D01*
X33118996Y-32554051D01*
X33129467Y-32531913D01*
X33142057Y-32510907D01*
X33156645Y-32491237D01*
X33173092Y-32473092D01*
X33191237Y-32456645D01*
X33210907Y-32442057D01*
X33231913Y-32429467D01*
X33254051Y-32418996D01*
X33277109Y-32410746D01*
X33300865Y-32404795D01*
X33325090Y-32401202D01*
X33349550Y-32400000D01*
X34000450Y-32400000D01*
X34024910Y-32401202D01*
X34024910Y-32401202D01*
G37*
D14*
G04 #@! TD*
G04 #@! TO.P,R6,2*
G04 #@! TO.N,/En_VD*
X33675000Y-33100000D03*
D13*
G04 #@! TO.N,/Vbat*
G04 #@! TO.C,R7*
G36*
X25105779Y-30706144D02*
X25128834Y-30709563D01*
X25151443Y-30715227D01*
X25173387Y-30723079D01*
X25194457Y-30733044D01*
X25214448Y-30745026D01*
X25233168Y-30758910D01*
X25250438Y-30774562D01*
X25266090Y-30791832D01*
X25279974Y-30810552D01*
X25291956Y-30830543D01*
X25301921Y-30851613D01*
X25309773Y-30873557D01*
X25315437Y-30896166D01*
X25318856Y-30919221D01*
X25320000Y-30942500D01*
X25320000Y-31417500D01*
X25318856Y-31440779D01*
X25315437Y-31463834D01*
X25309773Y-31486443D01*
X25301921Y-31508387D01*
X25291956Y-31529457D01*
X25279974Y-31549448D01*
X25266090Y-31568168D01*
X25250438Y-31585438D01*
X25233168Y-31601090D01*
X25214448Y-31614974D01*
X25194457Y-31626956D01*
X25173387Y-31636921D01*
X25151443Y-31644773D01*
X25128834Y-31650437D01*
X25105779Y-31653856D01*
X25082500Y-31655000D01*
X24507500Y-31655000D01*
X24484221Y-31653856D01*
X24461166Y-31650437D01*
X24438557Y-31644773D01*
X24416613Y-31636921D01*
X24395543Y-31626956D01*
X24375552Y-31614974D01*
X24356832Y-31601090D01*
X24339562Y-31585438D01*
X24323910Y-31568168D01*
X24310026Y-31549448D01*
X24298044Y-31529457D01*
X24288079Y-31508387D01*
X24280227Y-31486443D01*
X24274563Y-31463834D01*
X24271144Y-31440779D01*
X24270000Y-31417500D01*
X24270000Y-30942500D01*
X24271144Y-30919221D01*
X24274563Y-30896166D01*
X24280227Y-30873557D01*
X24288079Y-30851613D01*
X24298044Y-30830543D01*
X24310026Y-30810552D01*
X24323910Y-30791832D01*
X24339562Y-30774562D01*
X24356832Y-30758910D01*
X24375552Y-30745026D01*
X24395543Y-30733044D01*
X24416613Y-30723079D01*
X24438557Y-30715227D01*
X24461166Y-30709563D01*
X24484221Y-30706144D01*
X24507500Y-30705000D01*
X25082500Y-30705000D01*
X25105779Y-30706144D01*
X25105779Y-30706144D01*
G37*
D16*
G04 #@! TD*
G04 #@! TO.P,R7,1*
G04 #@! TO.N,/Vbat*
X24795000Y-31180000D03*
D13*
G04 #@! TO.N,Net-(R7-Pad2)*
G04 #@! TO.C,R7*
G36*
X23355779Y-30706144D02*
X23378834Y-30709563D01*
X23401443Y-30715227D01*
X23423387Y-30723079D01*
X23444457Y-30733044D01*
X23464448Y-30745026D01*
X23483168Y-30758910D01*
X23500438Y-30774562D01*
X23516090Y-30791832D01*
X23529974Y-30810552D01*
X23541956Y-30830543D01*
X23551921Y-30851613D01*
X23559773Y-30873557D01*
X23565437Y-30896166D01*
X23568856Y-30919221D01*
X23570000Y-30942500D01*
X23570000Y-31417500D01*
X23568856Y-31440779D01*
X23565437Y-31463834D01*
X23559773Y-31486443D01*
X23551921Y-31508387D01*
X23541956Y-31529457D01*
X23529974Y-31549448D01*
X23516090Y-31568168D01*
X23500438Y-31585438D01*
X23483168Y-31601090D01*
X23464448Y-31614974D01*
X23444457Y-31626956D01*
X23423387Y-31636921D01*
X23401443Y-31644773D01*
X23378834Y-31650437D01*
X23355779Y-31653856D01*
X23332500Y-31655000D01*
X22757500Y-31655000D01*
X22734221Y-31653856D01*
X22711166Y-31650437D01*
X22688557Y-31644773D01*
X22666613Y-31636921D01*
X22645543Y-31626956D01*
X22625552Y-31614974D01*
X22606832Y-31601090D01*
X22589562Y-31585438D01*
X22573910Y-31568168D01*
X22560026Y-31549448D01*
X22548044Y-31529457D01*
X22538079Y-31508387D01*
X22530227Y-31486443D01*
X22524563Y-31463834D01*
X22521144Y-31440779D01*
X22520000Y-31417500D01*
X22520000Y-30942500D01*
X22521144Y-30919221D01*
X22524563Y-30896166D01*
X22530227Y-30873557D01*
X22538079Y-30851613D01*
X22548044Y-30830543D01*
X22560026Y-30810552D01*
X22573910Y-30791832D01*
X22589562Y-30774562D01*
X22606832Y-30758910D01*
X22625552Y-30745026D01*
X22645543Y-30733044D01*
X22666613Y-30723079D01*
X22688557Y-30715227D01*
X22711166Y-30709563D01*
X22734221Y-30706144D01*
X22757500Y-30705000D01*
X23332500Y-30705000D01*
X23355779Y-30706144D01*
X23355779Y-30706144D01*
G37*
D16*
G04 #@! TD*
G04 #@! TO.P,R7,2*
G04 #@! TO.N,Net-(R7-Pad2)*
X23045000Y-31180000D03*
D13*
G04 #@! TO.N,Net-(R7-Pad2)*
G04 #@! TO.C,R8*
G36*
X25105779Y-28806144D02*
X25128834Y-28809563D01*
X25151443Y-28815227D01*
X25173387Y-28823079D01*
X25194457Y-28833044D01*
X25214448Y-28845026D01*
X25233168Y-28858910D01*
X25250438Y-28874562D01*
X25266090Y-28891832D01*
X25279974Y-28910552D01*
X25291956Y-28930543D01*
X25301921Y-28951613D01*
X25309773Y-28973557D01*
X25315437Y-28996166D01*
X25318856Y-29019221D01*
X25320000Y-29042500D01*
X25320000Y-29517500D01*
X25318856Y-29540779D01*
X25315437Y-29563834D01*
X25309773Y-29586443D01*
X25301921Y-29608387D01*
X25291956Y-29629457D01*
X25279974Y-29649448D01*
X25266090Y-29668168D01*
X25250438Y-29685438D01*
X25233168Y-29701090D01*
X25214448Y-29714974D01*
X25194457Y-29726956D01*
X25173387Y-29736921D01*
X25151443Y-29744773D01*
X25128834Y-29750437D01*
X25105779Y-29753856D01*
X25082500Y-29755000D01*
X24507500Y-29755000D01*
X24484221Y-29753856D01*
X24461166Y-29750437D01*
X24438557Y-29744773D01*
X24416613Y-29736921D01*
X24395543Y-29726956D01*
X24375552Y-29714974D01*
X24356832Y-29701090D01*
X24339562Y-29685438D01*
X24323910Y-29668168D01*
X24310026Y-29649448D01*
X24298044Y-29629457D01*
X24288079Y-29608387D01*
X24280227Y-29586443D01*
X24274563Y-29563834D01*
X24271144Y-29540779D01*
X24270000Y-29517500D01*
X24270000Y-29042500D01*
X24271144Y-29019221D01*
X24274563Y-28996166D01*
X24280227Y-28973557D01*
X24288079Y-28951613D01*
X24298044Y-28930543D01*
X24310026Y-28910552D01*
X24323910Y-28891832D01*
X24339562Y-28874562D01*
X24356832Y-28858910D01*
X24375552Y-28845026D01*
X24395543Y-28833044D01*
X24416613Y-28823079D01*
X24438557Y-28815227D01*
X24461166Y-28809563D01*
X24484221Y-28806144D01*
X24507500Y-28805000D01*
X25082500Y-28805000D01*
X25105779Y-28806144D01*
X25105779Y-28806144D01*
G37*
D16*
G04 #@! TD*
G04 #@! TO.P,R8,1*
G04 #@! TO.N,Net-(R7-Pad2)*
X24795000Y-29280000D03*
D13*
G04 #@! TO.N,/Vin*
G04 #@! TO.C,R8*
G36*
X23355779Y-28806144D02*
X23378834Y-28809563D01*
X23401443Y-28815227D01*
X23423387Y-28823079D01*
X23444457Y-28833044D01*
X23464448Y-28845026D01*
X23483168Y-28858910D01*
X23500438Y-28874562D01*
X23516090Y-28891832D01*
X23529974Y-28910552D01*
X23541956Y-28930543D01*
X23551921Y-28951613D01*
X23559773Y-28973557D01*
X23565437Y-28996166D01*
X23568856Y-29019221D01*
X23570000Y-29042500D01*
X23570000Y-29517500D01*
X23568856Y-29540779D01*
X23565437Y-29563834D01*
X23559773Y-29586443D01*
X23551921Y-29608387D01*
X23541956Y-29629457D01*
X23529974Y-29649448D01*
X23516090Y-29668168D01*
X23500438Y-29685438D01*
X23483168Y-29701090D01*
X23464448Y-29714974D01*
X23444457Y-29726956D01*
X23423387Y-29736921D01*
X23401443Y-29744773D01*
X23378834Y-29750437D01*
X23355779Y-29753856D01*
X23332500Y-29755000D01*
X22757500Y-29755000D01*
X22734221Y-29753856D01*
X22711166Y-29750437D01*
X22688557Y-29744773D01*
X22666613Y-29736921D01*
X22645543Y-29726956D01*
X22625552Y-29714974D01*
X22606832Y-29701090D01*
X22589562Y-29685438D01*
X22573910Y-29668168D01*
X22560026Y-29649448D01*
X22548044Y-29629457D01*
X22538079Y-29608387D01*
X22530227Y-29586443D01*
X22524563Y-29563834D01*
X22521144Y-29540779D01*
X22520000Y-29517500D01*
X22520000Y-29042500D01*
X22521144Y-29019221D01*
X22524563Y-28996166D01*
X22530227Y-28973557D01*
X22538079Y-28951613D01*
X22548044Y-28930543D01*
X22560026Y-28910552D01*
X22573910Y-28891832D01*
X22589562Y-28874562D01*
X22606832Y-28858910D01*
X22625552Y-28845026D01*
X22645543Y-28833044D01*
X22666613Y-28823079D01*
X22688557Y-28815227D01*
X22711166Y-28809563D01*
X22734221Y-28806144D01*
X22757500Y-28805000D01*
X23332500Y-28805000D01*
X23355779Y-28806144D01*
X23355779Y-28806144D01*
G37*
D16*
G04 #@! TD*
G04 #@! TO.P,R8,2*
G04 #@! TO.N,/Vin*
X23045000Y-29280000D03*
D13*
G04 #@! TO.N,Net-(Q5-Pad3)*
G04 #@! TO.C,R9*
G36*
X25105779Y-26916144D02*
X25128834Y-26919563D01*
X25151443Y-26925227D01*
X25173387Y-26933079D01*
X25194457Y-26943044D01*
X25214448Y-26955026D01*
X25233168Y-26968910D01*
X25250438Y-26984562D01*
X25266090Y-27001832D01*
X25279974Y-27020552D01*
X25291956Y-27040543D01*
X25301921Y-27061613D01*
X25309773Y-27083557D01*
X25315437Y-27106166D01*
X25318856Y-27129221D01*
X25320000Y-27152500D01*
X25320000Y-27627500D01*
X25318856Y-27650779D01*
X25315437Y-27673834D01*
X25309773Y-27696443D01*
X25301921Y-27718387D01*
X25291956Y-27739457D01*
X25279974Y-27759448D01*
X25266090Y-27778168D01*
X25250438Y-27795438D01*
X25233168Y-27811090D01*
X25214448Y-27824974D01*
X25194457Y-27836956D01*
X25173387Y-27846921D01*
X25151443Y-27854773D01*
X25128834Y-27860437D01*
X25105779Y-27863856D01*
X25082500Y-27865000D01*
X24507500Y-27865000D01*
X24484221Y-27863856D01*
X24461166Y-27860437D01*
X24438557Y-27854773D01*
X24416613Y-27846921D01*
X24395543Y-27836956D01*
X24375552Y-27824974D01*
X24356832Y-27811090D01*
X24339562Y-27795438D01*
X24323910Y-27778168D01*
X24310026Y-27759448D01*
X24298044Y-27739457D01*
X24288079Y-27718387D01*
X24280227Y-27696443D01*
X24274563Y-27673834D01*
X24271144Y-27650779D01*
X24270000Y-27627500D01*
X24270000Y-27152500D01*
X24271144Y-27129221D01*
X24274563Y-27106166D01*
X24280227Y-27083557D01*
X24288079Y-27061613D01*
X24298044Y-27040543D01*
X24310026Y-27020552D01*
X24323910Y-27001832D01*
X24339562Y-26984562D01*
X24356832Y-26968910D01*
X24375552Y-26955026D01*
X24395543Y-26943044D01*
X24416613Y-26933079D01*
X24438557Y-26925227D01*
X24461166Y-26919563D01*
X24484221Y-26916144D01*
X24507500Y-26915000D01*
X25082500Y-26915000D01*
X25105779Y-26916144D01*
X25105779Y-26916144D01*
G37*
D16*
G04 #@! TD*
G04 #@! TO.P,R9,2*
G04 #@! TO.N,Net-(Q5-Pad3)*
X24795000Y-27390000D03*
D13*
G04 #@! TO.N,/Vin*
G04 #@! TO.C,R9*
G36*
X23355779Y-26916144D02*
X23378834Y-26919563D01*
X23401443Y-26925227D01*
X23423387Y-26933079D01*
X23444457Y-26943044D01*
X23464448Y-26955026D01*
X23483168Y-26968910D01*
X23500438Y-26984562D01*
X23516090Y-27001832D01*
X23529974Y-27020552D01*
X23541956Y-27040543D01*
X23551921Y-27061613D01*
X23559773Y-27083557D01*
X23565437Y-27106166D01*
X23568856Y-27129221D01*
X23570000Y-27152500D01*
X23570000Y-27627500D01*
X23568856Y-27650779D01*
X23565437Y-27673834D01*
X23559773Y-27696443D01*
X23551921Y-27718387D01*
X23541956Y-27739457D01*
X23529974Y-27759448D01*
X23516090Y-27778168D01*
X23500438Y-27795438D01*
X23483168Y-27811090D01*
X23464448Y-27824974D01*
X23444457Y-27836956D01*
X23423387Y-27846921D01*
X23401443Y-27854773D01*
X23378834Y-27860437D01*
X23355779Y-27863856D01*
X23332500Y-27865000D01*
X22757500Y-27865000D01*
X22734221Y-27863856D01*
X22711166Y-27860437D01*
X22688557Y-27854773D01*
X22666613Y-27846921D01*
X22645543Y-27836956D01*
X22625552Y-27824974D01*
X22606832Y-27811090D01*
X22589562Y-27795438D01*
X22573910Y-27778168D01*
X22560026Y-27759448D01*
X22548044Y-27739457D01*
X22538079Y-27718387D01*
X22530227Y-27696443D01*
X22524563Y-27673834D01*
X22521144Y-27650779D01*
X22520000Y-27627500D01*
X22520000Y-27152500D01*
X22521144Y-27129221D01*
X22524563Y-27106166D01*
X22530227Y-27083557D01*
X22538079Y-27061613D01*
X22548044Y-27040543D01*
X22560026Y-27020552D01*
X22573910Y-27001832D01*
X22589562Y-26984562D01*
X22606832Y-26968910D01*
X22625552Y-26955026D01*
X22645543Y-26943044D01*
X22666613Y-26933079D01*
X22688557Y-26925227D01*
X22711166Y-26919563D01*
X22734221Y-26916144D01*
X22757500Y-26915000D01*
X23332500Y-26915000D01*
X23355779Y-26916144D01*
X23355779Y-26916144D01*
G37*
D16*
G04 #@! TD*
G04 #@! TO.P,R9,1*
G04 #@! TO.N,/Vin*
X23045000Y-27390000D03*
D13*
G04 #@! TO.N,Net-(Q1-Pad3)*
G04 #@! TO.C,RL1*
G36*
X25694910Y-51301202D02*
X25719135Y-51304795D01*
X25742891Y-51310746D01*
X25765949Y-51318996D01*
X25788087Y-51329467D01*
X25809093Y-51342057D01*
X25828763Y-51356645D01*
X25846908Y-51373092D01*
X25863355Y-51391237D01*
X25877943Y-51410907D01*
X25890533Y-51431913D01*
X25901004Y-51454051D01*
X25909254Y-51477109D01*
X25915205Y-51500865D01*
X25918798Y-51525090D01*
X25920000Y-51549550D01*
X25920000Y-52450450D01*
X25918798Y-52474910D01*
X25915205Y-52499135D01*
X25909254Y-52522891D01*
X25901004Y-52545949D01*
X25890533Y-52568087D01*
X25877943Y-52589093D01*
X25863355Y-52608763D01*
X25846908Y-52626908D01*
X25828763Y-52643355D01*
X25809093Y-52657943D01*
X25788087Y-52670533D01*
X25765949Y-52681004D01*
X25742891Y-52689254D01*
X25719135Y-52695205D01*
X25694910Y-52698798D01*
X25670450Y-52700000D01*
X25019550Y-52700000D01*
X24995090Y-52698798D01*
X24970865Y-52695205D01*
X24947109Y-52689254D01*
X24924051Y-52681004D01*
X24901913Y-52670533D01*
X24880907Y-52657943D01*
X24861237Y-52643355D01*
X24843092Y-52626908D01*
X24826645Y-52608763D01*
X24812057Y-52589093D01*
X24799467Y-52568087D01*
X24788996Y-52545949D01*
X24780746Y-52522891D01*
X24774795Y-52499135D01*
X24771202Y-52474910D01*
X24770000Y-52450450D01*
X24770000Y-51549550D01*
X24771202Y-51525090D01*
X24774795Y-51500865D01*
X24780746Y-51477109D01*
X24788996Y-51454051D01*
X24799467Y-51431913D01*
X24812057Y-51410907D01*
X24826645Y-51391237D01*
X24843092Y-51373092D01*
X24861237Y-51356645D01*
X24880907Y-51342057D01*
X24901913Y-51329467D01*
X24924051Y-51318996D01*
X24947109Y-51310746D01*
X24970865Y-51304795D01*
X24995090Y-51301202D01*
X25019550Y-51300000D01*
X25670450Y-51300000D01*
X25694910Y-51301202D01*
X25694910Y-51301202D01*
G37*
D14*
G04 #@! TD*
G04 #@! TO.P,RL1,1*
G04 #@! TO.N,Net-(Q1-Pad3)*
X25345000Y-52000000D03*
D13*
G04 #@! TO.N,Net-(RL1-Pad2)*
G04 #@! TO.C,RL1*
G36*
X23644910Y-51301202D02*
X23669135Y-51304795D01*
X23692891Y-51310746D01*
X23715949Y-51318996D01*
X23738087Y-51329467D01*
X23759093Y-51342057D01*
X23778763Y-51356645D01*
X23796908Y-51373092D01*
X23813355Y-51391237D01*
X23827943Y-51410907D01*
X23840533Y-51431913D01*
X23851004Y-51454051D01*
X23859254Y-51477109D01*
X23865205Y-51500865D01*
X23868798Y-51525090D01*
X23870000Y-51549550D01*
X23870000Y-52450450D01*
X23868798Y-52474910D01*
X23865205Y-52499135D01*
X23859254Y-52522891D01*
X23851004Y-52545949D01*
X23840533Y-52568087D01*
X23827943Y-52589093D01*
X23813355Y-52608763D01*
X23796908Y-52626908D01*
X23778763Y-52643355D01*
X23759093Y-52657943D01*
X23738087Y-52670533D01*
X23715949Y-52681004D01*
X23692891Y-52689254D01*
X23669135Y-52695205D01*
X23644910Y-52698798D01*
X23620450Y-52700000D01*
X22969550Y-52700000D01*
X22945090Y-52698798D01*
X22920865Y-52695205D01*
X22897109Y-52689254D01*
X22874051Y-52681004D01*
X22851913Y-52670533D01*
X22830907Y-52657943D01*
X22811237Y-52643355D01*
X22793092Y-52626908D01*
X22776645Y-52608763D01*
X22762057Y-52589093D01*
X22749467Y-52568087D01*
X22738996Y-52545949D01*
X22730746Y-52522891D01*
X22724795Y-52499135D01*
X22721202Y-52474910D01*
X22720000Y-52450450D01*
X22720000Y-51549550D01*
X22721202Y-51525090D01*
X22724795Y-51500865D01*
X22730746Y-51477109D01*
X22738996Y-51454051D01*
X22749467Y-51431913D01*
X22762057Y-51410907D01*
X22776645Y-51391237D01*
X22793092Y-51373092D01*
X22811237Y-51356645D01*
X22830907Y-51342057D01*
X22851913Y-51329467D01*
X22874051Y-51318996D01*
X22897109Y-51310746D01*
X22920865Y-51304795D01*
X22945090Y-51301202D01*
X22969550Y-51300000D01*
X23620450Y-51300000D01*
X23644910Y-51301202D01*
X23644910Y-51301202D01*
G37*
D14*
G04 #@! TD*
G04 #@! TO.P,RL1,2*
G04 #@! TO.N,Net-(RL1-Pad2)*
X23295000Y-52000000D03*
D13*
G04 #@! TO.N,Net-(RL1-Pad2)*
G04 #@! TO.C,RL2*
G36*
X25694910Y-49001202D02*
X25719135Y-49004795D01*
X25742891Y-49010746D01*
X25765949Y-49018996D01*
X25788087Y-49029467D01*
X25809093Y-49042057D01*
X25828763Y-49056645D01*
X25846908Y-49073092D01*
X25863355Y-49091237D01*
X25877943Y-49110907D01*
X25890533Y-49131913D01*
X25901004Y-49154051D01*
X25909254Y-49177109D01*
X25915205Y-49200865D01*
X25918798Y-49225090D01*
X25920000Y-49249550D01*
X25920000Y-50150450D01*
X25918798Y-50174910D01*
X25915205Y-50199135D01*
X25909254Y-50222891D01*
X25901004Y-50245949D01*
X25890533Y-50268087D01*
X25877943Y-50289093D01*
X25863355Y-50308763D01*
X25846908Y-50326908D01*
X25828763Y-50343355D01*
X25809093Y-50357943D01*
X25788087Y-50370533D01*
X25765949Y-50381004D01*
X25742891Y-50389254D01*
X25719135Y-50395205D01*
X25694910Y-50398798D01*
X25670450Y-50400000D01*
X25019550Y-50400000D01*
X24995090Y-50398798D01*
X24970865Y-50395205D01*
X24947109Y-50389254D01*
X24924051Y-50381004D01*
X24901913Y-50370533D01*
X24880907Y-50357943D01*
X24861237Y-50343355D01*
X24843092Y-50326908D01*
X24826645Y-50308763D01*
X24812057Y-50289093D01*
X24799467Y-50268087D01*
X24788996Y-50245949D01*
X24780746Y-50222891D01*
X24774795Y-50199135D01*
X24771202Y-50174910D01*
X24770000Y-50150450D01*
X24770000Y-49249550D01*
X24771202Y-49225090D01*
X24774795Y-49200865D01*
X24780746Y-49177109D01*
X24788996Y-49154051D01*
X24799467Y-49131913D01*
X24812057Y-49110907D01*
X24826645Y-49091237D01*
X24843092Y-49073092D01*
X24861237Y-49056645D01*
X24880907Y-49042057D01*
X24901913Y-49029467D01*
X24924051Y-49018996D01*
X24947109Y-49010746D01*
X24970865Y-49004795D01*
X24995090Y-49001202D01*
X25019550Y-49000000D01*
X25670450Y-49000000D01*
X25694910Y-49001202D01*
X25694910Y-49001202D01*
G37*
D14*
G04 #@! TD*
G04 #@! TO.P,RL2,1*
G04 #@! TO.N,Net-(RL1-Pad2)*
X25345000Y-49700000D03*
D13*
G04 #@! TO.N,GND*
G04 #@! TO.C,RL2*
G36*
X23644910Y-49001202D02*
X23669135Y-49004795D01*
X23692891Y-49010746D01*
X23715949Y-49018996D01*
X23738087Y-49029467D01*
X23759093Y-49042057D01*
X23778763Y-49056645D01*
X23796908Y-49073092D01*
X23813355Y-49091237D01*
X23827943Y-49110907D01*
X23840533Y-49131913D01*
X23851004Y-49154051D01*
X23859254Y-49177109D01*
X23865205Y-49200865D01*
X23868798Y-49225090D01*
X23870000Y-49249550D01*
X23870000Y-50150450D01*
X23868798Y-50174910D01*
X23865205Y-50199135D01*
X23859254Y-50222891D01*
X23851004Y-50245949D01*
X23840533Y-50268087D01*
X23827943Y-50289093D01*
X23813355Y-50308763D01*
X23796908Y-50326908D01*
X23778763Y-50343355D01*
X23759093Y-50357943D01*
X23738087Y-50370533D01*
X23715949Y-50381004D01*
X23692891Y-50389254D01*
X23669135Y-50395205D01*
X23644910Y-50398798D01*
X23620450Y-50400000D01*
X22969550Y-50400000D01*
X22945090Y-50398798D01*
X22920865Y-50395205D01*
X22897109Y-50389254D01*
X22874051Y-50381004D01*
X22851913Y-50370533D01*
X22830907Y-50357943D01*
X22811237Y-50343355D01*
X22793092Y-50326908D01*
X22776645Y-50308763D01*
X22762057Y-50289093D01*
X22749467Y-50268087D01*
X22738996Y-50245949D01*
X22730746Y-50222891D01*
X22724795Y-50199135D01*
X22721202Y-50174910D01*
X22720000Y-50150450D01*
X22720000Y-49249550D01*
X22721202Y-49225090D01*
X22724795Y-49200865D01*
X22730746Y-49177109D01*
X22738996Y-49154051D01*
X22749467Y-49131913D01*
X22762057Y-49110907D01*
X22776645Y-49091237D01*
X22793092Y-49073092D01*
X22811237Y-49056645D01*
X22830907Y-49042057D01*
X22851913Y-49029467D01*
X22874051Y-49018996D01*
X22897109Y-49010746D01*
X22920865Y-49004795D01*
X22945090Y-49001202D01*
X22969550Y-49000000D01*
X23620450Y-49000000D01*
X23644910Y-49001202D01*
X23644910Y-49001202D01*
G37*
D14*
G04 #@! TD*
G04 #@! TO.P,RL2,2*
G04 #@! TO.N,GND*
X23295000Y-49700000D03*
D13*
G04 #@! TO.N,GND*
G04 #@! TO.C,RL3*
G36*
X23654910Y-46631202D02*
X23679135Y-46634795D01*
X23702891Y-46640746D01*
X23725949Y-46648996D01*
X23748087Y-46659467D01*
X23769093Y-46672057D01*
X23788763Y-46686645D01*
X23806908Y-46703092D01*
X23823355Y-46721237D01*
X23837943Y-46740907D01*
X23850533Y-46761913D01*
X23861004Y-46784051D01*
X23869254Y-46807109D01*
X23875205Y-46830865D01*
X23878798Y-46855090D01*
X23880000Y-46879550D01*
X23880000Y-47780450D01*
X23878798Y-47804910D01*
X23875205Y-47829135D01*
X23869254Y-47852891D01*
X23861004Y-47875949D01*
X23850533Y-47898087D01*
X23837943Y-47919093D01*
X23823355Y-47938763D01*
X23806908Y-47956908D01*
X23788763Y-47973355D01*
X23769093Y-47987943D01*
X23748087Y-48000533D01*
X23725949Y-48011004D01*
X23702891Y-48019254D01*
X23679135Y-48025205D01*
X23654910Y-48028798D01*
X23630450Y-48030000D01*
X22979550Y-48030000D01*
X22955090Y-48028798D01*
X22930865Y-48025205D01*
X22907109Y-48019254D01*
X22884051Y-48011004D01*
X22861913Y-48000533D01*
X22840907Y-47987943D01*
X22821237Y-47973355D01*
X22803092Y-47956908D01*
X22786645Y-47938763D01*
X22772057Y-47919093D01*
X22759467Y-47898087D01*
X22748996Y-47875949D01*
X22740746Y-47852891D01*
X22734795Y-47829135D01*
X22731202Y-47804910D01*
X22730000Y-47780450D01*
X22730000Y-46879550D01*
X22731202Y-46855090D01*
X22734795Y-46830865D01*
X22740746Y-46807109D01*
X22748996Y-46784051D01*
X22759467Y-46761913D01*
X22772057Y-46740907D01*
X22786645Y-46721237D01*
X22803092Y-46703092D01*
X22821237Y-46686645D01*
X22840907Y-46672057D01*
X22861913Y-46659467D01*
X22884051Y-46648996D01*
X22907109Y-46640746D01*
X22930865Y-46634795D01*
X22955090Y-46631202D01*
X22979550Y-46630000D01*
X23630450Y-46630000D01*
X23654910Y-46631202D01*
X23654910Y-46631202D01*
G37*
D14*
G04 #@! TD*
G04 #@! TO.P,RL3,2*
G04 #@! TO.N,GND*
X23305000Y-47330000D03*
D13*
G04 #@! TO.N,Net-(Q2-Pad3)*
G04 #@! TO.C,RL3*
G36*
X25704910Y-46631202D02*
X25729135Y-46634795D01*
X25752891Y-46640746D01*
X25775949Y-46648996D01*
X25798087Y-46659467D01*
X25819093Y-46672057D01*
X25838763Y-46686645D01*
X25856908Y-46703092D01*
X25873355Y-46721237D01*
X25887943Y-46740907D01*
X25900533Y-46761913D01*
X25911004Y-46784051D01*
X25919254Y-46807109D01*
X25925205Y-46830865D01*
X25928798Y-46855090D01*
X25930000Y-46879550D01*
X25930000Y-47780450D01*
X25928798Y-47804910D01*
X25925205Y-47829135D01*
X25919254Y-47852891D01*
X25911004Y-47875949D01*
X25900533Y-47898087D01*
X25887943Y-47919093D01*
X25873355Y-47938763D01*
X25856908Y-47956908D01*
X25838763Y-47973355D01*
X25819093Y-47987943D01*
X25798087Y-48000533D01*
X25775949Y-48011004D01*
X25752891Y-48019254D01*
X25729135Y-48025205D01*
X25704910Y-48028798D01*
X25680450Y-48030000D01*
X25029550Y-48030000D01*
X25005090Y-48028798D01*
X24980865Y-48025205D01*
X24957109Y-48019254D01*
X24934051Y-48011004D01*
X24911913Y-48000533D01*
X24890907Y-47987943D01*
X24871237Y-47973355D01*
X24853092Y-47956908D01*
X24836645Y-47938763D01*
X24822057Y-47919093D01*
X24809467Y-47898087D01*
X24798996Y-47875949D01*
X24790746Y-47852891D01*
X24784795Y-47829135D01*
X24781202Y-47804910D01*
X24780000Y-47780450D01*
X24780000Y-46879550D01*
X24781202Y-46855090D01*
X24784795Y-46830865D01*
X24790746Y-46807109D01*
X24798996Y-46784051D01*
X24809467Y-46761913D01*
X24822057Y-46740907D01*
X24836645Y-46721237D01*
X24853092Y-46703092D01*
X24871237Y-46686645D01*
X24890907Y-46672057D01*
X24911913Y-46659467D01*
X24934051Y-46648996D01*
X24957109Y-46640746D01*
X24980865Y-46634795D01*
X25005090Y-46631202D01*
X25029550Y-46630000D01*
X25680450Y-46630000D01*
X25704910Y-46631202D01*
X25704910Y-46631202D01*
G37*
D14*
G04 #@! TD*
G04 #@! TO.P,RL3,1*
G04 #@! TO.N,Net-(Q2-Pad3)*
X25355000Y-47330000D03*
D13*
G04 #@! TO.N,GND*
G04 #@! TO.C,RL4*
G36*
X23654910Y-44261202D02*
X23679135Y-44264795D01*
X23702891Y-44270746D01*
X23725949Y-44278996D01*
X23748087Y-44289467D01*
X23769093Y-44302057D01*
X23788763Y-44316645D01*
X23806908Y-44333092D01*
X23823355Y-44351237D01*
X23837943Y-44370907D01*
X23850533Y-44391913D01*
X23861004Y-44414051D01*
X23869254Y-44437109D01*
X23875205Y-44460865D01*
X23878798Y-44485090D01*
X23880000Y-44509550D01*
X23880000Y-45410450D01*
X23878798Y-45434910D01*
X23875205Y-45459135D01*
X23869254Y-45482891D01*
X23861004Y-45505949D01*
X23850533Y-45528087D01*
X23837943Y-45549093D01*
X23823355Y-45568763D01*
X23806908Y-45586908D01*
X23788763Y-45603355D01*
X23769093Y-45617943D01*
X23748087Y-45630533D01*
X23725949Y-45641004D01*
X23702891Y-45649254D01*
X23679135Y-45655205D01*
X23654910Y-45658798D01*
X23630450Y-45660000D01*
X22979550Y-45660000D01*
X22955090Y-45658798D01*
X22930865Y-45655205D01*
X22907109Y-45649254D01*
X22884051Y-45641004D01*
X22861913Y-45630533D01*
X22840907Y-45617943D01*
X22821237Y-45603355D01*
X22803092Y-45586908D01*
X22786645Y-45568763D01*
X22772057Y-45549093D01*
X22759467Y-45528087D01*
X22748996Y-45505949D01*
X22740746Y-45482891D01*
X22734795Y-45459135D01*
X22731202Y-45434910D01*
X22730000Y-45410450D01*
X22730000Y-44509550D01*
X22731202Y-44485090D01*
X22734795Y-44460865D01*
X22740746Y-44437109D01*
X22748996Y-44414051D01*
X22759467Y-44391913D01*
X22772057Y-44370907D01*
X22786645Y-44351237D01*
X22803092Y-44333092D01*
X22821237Y-44316645D01*
X22840907Y-44302057D01*
X22861913Y-44289467D01*
X22884051Y-44278996D01*
X22907109Y-44270746D01*
X22930865Y-44264795D01*
X22955090Y-44261202D01*
X22979550Y-44260000D01*
X23630450Y-44260000D01*
X23654910Y-44261202D01*
X23654910Y-44261202D01*
G37*
D14*
G04 #@! TD*
G04 #@! TO.P,RL4,2*
G04 #@! TO.N,GND*
X23305000Y-44960000D03*
D13*
G04 #@! TO.N,Net-(Q3-Pad3)*
G04 #@! TO.C,RL4*
G36*
X25704910Y-44261202D02*
X25729135Y-44264795D01*
X25752891Y-44270746D01*
X25775949Y-44278996D01*
X25798087Y-44289467D01*
X25819093Y-44302057D01*
X25838763Y-44316645D01*
X25856908Y-44333092D01*
X25873355Y-44351237D01*
X25887943Y-44370907D01*
X25900533Y-44391913D01*
X25911004Y-44414051D01*
X25919254Y-44437109D01*
X25925205Y-44460865D01*
X25928798Y-44485090D01*
X25930000Y-44509550D01*
X25930000Y-45410450D01*
X25928798Y-45434910D01*
X25925205Y-45459135D01*
X25919254Y-45482891D01*
X25911004Y-45505949D01*
X25900533Y-45528087D01*
X25887943Y-45549093D01*
X25873355Y-45568763D01*
X25856908Y-45586908D01*
X25838763Y-45603355D01*
X25819093Y-45617943D01*
X25798087Y-45630533D01*
X25775949Y-45641004D01*
X25752891Y-45649254D01*
X25729135Y-45655205D01*
X25704910Y-45658798D01*
X25680450Y-45660000D01*
X25029550Y-45660000D01*
X25005090Y-45658798D01*
X24980865Y-45655205D01*
X24957109Y-45649254D01*
X24934051Y-45641004D01*
X24911913Y-45630533D01*
X24890907Y-45617943D01*
X24871237Y-45603355D01*
X24853092Y-45586908D01*
X24836645Y-45568763D01*
X24822057Y-45549093D01*
X24809467Y-45528087D01*
X24798996Y-45505949D01*
X24790746Y-45482891D01*
X24784795Y-45459135D01*
X24781202Y-45434910D01*
X24780000Y-45410450D01*
X24780000Y-44509550D01*
X24781202Y-44485090D01*
X24784795Y-44460865D01*
X24790746Y-44437109D01*
X24798996Y-44414051D01*
X24809467Y-44391913D01*
X24822057Y-44370907D01*
X24836645Y-44351237D01*
X24853092Y-44333092D01*
X24871237Y-44316645D01*
X24890907Y-44302057D01*
X24911913Y-44289467D01*
X24934051Y-44278996D01*
X24957109Y-44270746D01*
X24980865Y-44264795D01*
X25005090Y-44261202D01*
X25029550Y-44260000D01*
X25680450Y-44260000D01*
X25704910Y-44261202D01*
X25704910Y-44261202D01*
G37*
D14*
G04 #@! TD*
G04 #@! TO.P,RL4,1*
G04 #@! TO.N,Net-(Q3-Pad3)*
X25355000Y-44960000D03*
D13*
G04 #@! TO.N,Net-(Q3-Pad3)*
G04 #@! TO.C,RL5*
G36*
X25694910Y-41891202D02*
X25719135Y-41894795D01*
X25742891Y-41900746D01*
X25765949Y-41908996D01*
X25788087Y-41919467D01*
X25809093Y-41932057D01*
X25828763Y-41946645D01*
X25846908Y-41963092D01*
X25863355Y-41981237D01*
X25877943Y-42000907D01*
X25890533Y-42021913D01*
X25901004Y-42044051D01*
X25909254Y-42067109D01*
X25915205Y-42090865D01*
X25918798Y-42115090D01*
X25920000Y-42139550D01*
X25920000Y-43040450D01*
X25918798Y-43064910D01*
X25915205Y-43089135D01*
X25909254Y-43112891D01*
X25901004Y-43135949D01*
X25890533Y-43158087D01*
X25877943Y-43179093D01*
X25863355Y-43198763D01*
X25846908Y-43216908D01*
X25828763Y-43233355D01*
X25809093Y-43247943D01*
X25788087Y-43260533D01*
X25765949Y-43271004D01*
X25742891Y-43279254D01*
X25719135Y-43285205D01*
X25694910Y-43288798D01*
X25670450Y-43290000D01*
X25019550Y-43290000D01*
X24995090Y-43288798D01*
X24970865Y-43285205D01*
X24947109Y-43279254D01*
X24924051Y-43271004D01*
X24901913Y-43260533D01*
X24880907Y-43247943D01*
X24861237Y-43233355D01*
X24843092Y-43216908D01*
X24826645Y-43198763D01*
X24812057Y-43179093D01*
X24799467Y-43158087D01*
X24788996Y-43135949D01*
X24780746Y-43112891D01*
X24774795Y-43089135D01*
X24771202Y-43064910D01*
X24770000Y-43040450D01*
X24770000Y-42139550D01*
X24771202Y-42115090D01*
X24774795Y-42090865D01*
X24780746Y-42067109D01*
X24788996Y-42044051D01*
X24799467Y-42021913D01*
X24812057Y-42000907D01*
X24826645Y-41981237D01*
X24843092Y-41963092D01*
X24861237Y-41946645D01*
X24880907Y-41932057D01*
X24901913Y-41919467D01*
X24924051Y-41908996D01*
X24947109Y-41900746D01*
X24970865Y-41894795D01*
X24995090Y-41891202D01*
X25019550Y-41890000D01*
X25670450Y-41890000D01*
X25694910Y-41891202D01*
X25694910Y-41891202D01*
G37*
D14*
G04 #@! TD*
G04 #@! TO.P,RL5,1*
G04 #@! TO.N,Net-(Q3-Pad3)*
X25345000Y-42590000D03*
D13*
G04 #@! TO.N,GND*
G04 #@! TO.C,RL5*
G36*
X23644910Y-41891202D02*
X23669135Y-41894795D01*
X23692891Y-41900746D01*
X23715949Y-41908996D01*
X23738087Y-41919467D01*
X23759093Y-41932057D01*
X23778763Y-41946645D01*
X23796908Y-41963092D01*
X23813355Y-41981237D01*
X23827943Y-42000907D01*
X23840533Y-42021913D01*
X23851004Y-42044051D01*
X23859254Y-42067109D01*
X23865205Y-42090865D01*
X23868798Y-42115090D01*
X23870000Y-42139550D01*
X23870000Y-43040450D01*
X23868798Y-43064910D01*
X23865205Y-43089135D01*
X23859254Y-43112891D01*
X23851004Y-43135949D01*
X23840533Y-43158087D01*
X23827943Y-43179093D01*
X23813355Y-43198763D01*
X23796908Y-43216908D01*
X23778763Y-43233355D01*
X23759093Y-43247943D01*
X23738087Y-43260533D01*
X23715949Y-43271004D01*
X23692891Y-43279254D01*
X23669135Y-43285205D01*
X23644910Y-43288798D01*
X23620450Y-43290000D01*
X22969550Y-43290000D01*
X22945090Y-43288798D01*
X22920865Y-43285205D01*
X22897109Y-43279254D01*
X22874051Y-43271004D01*
X22851913Y-43260533D01*
X22830907Y-43247943D01*
X22811237Y-43233355D01*
X22793092Y-43216908D01*
X22776645Y-43198763D01*
X22762057Y-43179093D01*
X22749467Y-43158087D01*
X22738996Y-43135949D01*
X22730746Y-43112891D01*
X22724795Y-43089135D01*
X22721202Y-43064910D01*
X22720000Y-43040450D01*
X22720000Y-42139550D01*
X22721202Y-42115090D01*
X22724795Y-42090865D01*
X22730746Y-42067109D01*
X22738996Y-42044051D01*
X22749467Y-42021913D01*
X22762057Y-42000907D01*
X22776645Y-41981237D01*
X22793092Y-41963092D01*
X22811237Y-41946645D01*
X22830907Y-41932057D01*
X22851913Y-41919467D01*
X22874051Y-41908996D01*
X22897109Y-41900746D01*
X22920865Y-41894795D01*
X22945090Y-41891202D01*
X22969550Y-41890000D01*
X23620450Y-41890000D01*
X23644910Y-41891202D01*
X23644910Y-41891202D01*
G37*
D14*
G04 #@! TD*
G04 #@! TO.P,RL5,2*
G04 #@! TO.N,GND*
X23295000Y-42590000D03*
D17*
G04 #@! TO.P,SW1,1*
G04 #@! TO.N,/SW*
X38100000Y-23300000D03*
G04 #@! TO.P,SW1,2*
G04 #@! TO.N,GND*
X33600000Y-23300000D03*
G04 #@! TO.P,SW1,1*
G04 #@! TO.N,/SW*
X38100000Y-29800000D03*
G04 #@! TO.P,SW1,2*
G04 #@! TO.N,GND*
X33600000Y-29800000D03*
G04 #@! TD*
D18*
G04 #@! TO.N,/Ctrl1*
X31920000Y-51500000D03*
X29000000Y-26500000D03*
G04 #@! TO.N,/Ctrl2*
X30100000Y-27500000D03*
X31900000Y-47090000D03*
G04 #@! TO.N,/Ctrl3*
X32160000Y-41100000D03*
X37200000Y-46200000D03*
G04 #@! TO.N,/Ctrl4*
X32100000Y-38930000D03*
G04 #@! TO.N,/Vcc*
X35700000Y-47100000D03*
G04 #@! TO.N,/Vbat*
X26900000Y-40170000D03*
X26900000Y-45270000D03*
X26900000Y-50310000D03*
X26890000Y-35120000D03*
G04 #@! TO.N,/SW*
X32000000Y-34300000D03*
G04 #@! TO.N,/En_VD*
X30700000Y-34300000D03*
G04 #@! TO.N,/dut*
X27940000Y-38590000D03*
G04 #@! TD*
D19*
G04 #@! TO.N,/Ctrl1*
X30400000Y-53020000D02*
X30350000Y-53020000D01*
X33675000Y-44800000D02*
X33675000Y-49745000D01*
X33675000Y-49745000D02*
X31920000Y-51500000D01*
X31920000Y-51500000D02*
X30400000Y-53020000D01*
X29000000Y-26500000D02*
X30000000Y-25500000D01*
X40150000Y-25500000D02*
X42770000Y-22880000D01*
X30000000Y-25500000D02*
X40150000Y-25500000D01*
G04 #@! TO.N,/Ctrl2*
X31050000Y-47940000D02*
X31900000Y-47090000D01*
X30350000Y-47940000D02*
X31050000Y-47940000D01*
X31900000Y-44245000D02*
X33685000Y-42460000D01*
X31900000Y-47090000D02*
X31900000Y-44245000D01*
X31900000Y-47090000D02*
X31900000Y-47090000D01*
X31900000Y-47090000D02*
X31900000Y-47090000D01*
X40690000Y-27500000D02*
X41590000Y-26600000D01*
X30100000Y-27500000D02*
X40690000Y-27500000D01*
X42770000Y-25420000D02*
X41590000Y-26600000D01*
X41590000Y-26600000D02*
X41390000Y-26800000D01*
G04 #@! TO.N,/Ctrl3*
X33160000Y-40100000D02*
X33685000Y-40100000D01*
X30400000Y-42860000D02*
X32160000Y-41100000D01*
X30350000Y-42860000D02*
X30400000Y-42860000D01*
X42770000Y-27960000D02*
X37200000Y-33530000D01*
X37200000Y-33530000D02*
X37200000Y-46200000D01*
X32160000Y-41100000D02*
X33160000Y-40100000D01*
X37200000Y-46200000D02*
X37200000Y-46200000D01*
G04 #@! TO.N,/Ctrl4*
X33645000Y-37780000D02*
X33685000Y-37740000D01*
X30630000Y-37780000D02*
X33645000Y-37780000D01*
X31790000Y-38930000D02*
X31780000Y-38930000D01*
X31780000Y-38930000D02*
X30630000Y-37780000D01*
X32100000Y-38930000D02*
X31780000Y-38930000D01*
G04 #@! TO.N,/Vcc*
X35735000Y-37740000D02*
X35735000Y-40100000D01*
X35735000Y-40100000D02*
X35735000Y-42460000D01*
X35735000Y-44790000D02*
X35725000Y-44800000D01*
X35735000Y-42460000D02*
X35735000Y-44790000D01*
X35735000Y-35410000D02*
X35725000Y-35400000D01*
X35735000Y-37740000D02*
X35735000Y-35410000D01*
X42590000Y-35400000D02*
X42770000Y-35580000D01*
X22900000Y-56350000D02*
X22900000Y-61800000D01*
X14830000Y-48280000D02*
X22900000Y-56350000D01*
X35725000Y-45600000D02*
X35700000Y-45625000D01*
X35725000Y-44800000D02*
X35725000Y-45600000D01*
X35700000Y-45625000D02*
X35700000Y-47100000D01*
X35700000Y-47100000D02*
X35700000Y-47100000D01*
G04 #@! TO.N,/Vbat*
X29280000Y-35880000D02*
X30630000Y-35880000D01*
X26890000Y-35120000D02*
X27650000Y-35880000D01*
X27650000Y-35880000D02*
X29280000Y-35880000D01*
X29530000Y-45270000D02*
X26900000Y-45270000D01*
X30350000Y-46040000D02*
X30300000Y-46040000D01*
X30300000Y-46040000D02*
X29530000Y-45270000D01*
X30300000Y-40960000D02*
X29510000Y-40170000D01*
X30350000Y-40960000D02*
X30300000Y-40960000D01*
X29510000Y-40170000D02*
X26900000Y-40170000D01*
X30300000Y-51120000D02*
X29490000Y-50310000D01*
X30350000Y-51120000D02*
X30300000Y-51120000D01*
X29490000Y-50310000D02*
X26900000Y-50310000D01*
X26890000Y-34554315D02*
X26890000Y-35120000D01*
X25420000Y-31210000D02*
X26890000Y-32680000D01*
X26890000Y-32680000D02*
X26890000Y-34554315D01*
X24795000Y-31210000D02*
X25420000Y-31210000D01*
G04 #@! TO.N,Net-(Q3-Pad3)*
X25345000Y-44950000D02*
X25355000Y-44960000D01*
X25345000Y-42590000D02*
X25345000Y-44950000D01*
X28300000Y-41910000D02*
X28350000Y-41910000D01*
X25345000Y-42590000D02*
X27620000Y-42590000D01*
X27620000Y-42590000D02*
X28300000Y-41910000D01*
G04 #@! TO.N,Net-(Q2-Pad3)*
X28010000Y-47330000D02*
X28350000Y-46990000D01*
X25565000Y-47330000D02*
X28010000Y-47330000D01*
G04 #@! TO.N,Net-(Q1-Pad3)*
X28280000Y-52000000D02*
X28350000Y-52070000D01*
X25555000Y-52000000D02*
X28280000Y-52000000D01*
G04 #@! TO.N,/Vin*
X23045000Y-27390000D02*
X23045000Y-29280000D01*
X22890000Y-27390000D02*
X23045000Y-27390000D01*
X14830000Y-22880000D02*
X18380000Y-22880000D01*
X18380000Y-22880000D02*
X22890000Y-27390000D01*
G04 #@! TO.N,/SW*
X33100000Y-35400000D02*
X32000000Y-34300000D01*
X33675000Y-35400000D02*
X33100000Y-35400000D01*
G04 #@! TO.N,/En_VD*
X30700000Y-34300000D02*
X30700000Y-32770000D01*
X31020000Y-33100000D02*
X30630000Y-32710000D01*
X33675000Y-33100000D02*
X31020000Y-33100000D01*
G04 #@! TO.N,Net-(Q5-Pad3)*
X28630000Y-31110000D02*
X28630000Y-31760000D01*
X28630000Y-30600000D02*
X28630000Y-31110000D01*
X25420000Y-27390000D02*
X28630000Y-30600000D01*
X24795000Y-27390000D02*
X25420000Y-27390000D01*
G04 #@! TO.N,/dut*
X27940000Y-38590000D02*
X27940000Y-37520000D01*
X27940000Y-37520000D02*
X28630000Y-36830000D01*
G04 #@! TO.N,Net-(RL1-Pad2)*
X25345000Y-49950000D02*
X25345000Y-49700000D01*
X23295000Y-52000000D02*
X25345000Y-49950000D01*
G04 #@! TO.N,Net-(R7-Pad2)*
X23045000Y-31030000D02*
X23045000Y-31180000D01*
X24795000Y-29280000D02*
X23045000Y-31030000D01*
G04 #@! TO.N,/SCL*
X38900000Y-44530000D02*
X42770000Y-40660000D01*
X38900000Y-52300000D02*
X38900000Y-44530000D01*
X25440000Y-63240000D02*
X26400000Y-64200000D01*
X25440000Y-61800000D02*
X25440000Y-63240000D01*
X26400000Y-64200000D02*
X29300000Y-64200000D01*
X29300000Y-64200000D02*
X30400000Y-63100000D01*
X30400000Y-63100000D02*
X30400000Y-60800000D01*
X30400000Y-60800000D02*
X38900000Y-52300000D01*
G04 #@! TO.N,/SDA*
X28829999Y-60950001D02*
X27980000Y-61800000D01*
X37975001Y-51804999D02*
X28829999Y-60950001D01*
X37975001Y-36757369D02*
X37975001Y-51804999D01*
X41692370Y-33040000D02*
X37975001Y-36757369D01*
X42770000Y-33040000D02*
X41692370Y-33040000D01*
G04 #@! TO.N,Net-(U1-Pad18)*
X42490000Y-53020000D02*
X42810000Y-53340000D01*
G04 #@! TD*
D20*
G04 #@! TO.N,GND*
G36*
X41373000Y-43477881D02*
X41585680Y-43991337D01*
X41978663Y-44384320D01*
X42185513Y-44470000D01*
X41978663Y-44555680D01*
X41585680Y-44948663D01*
X41373000Y-45462119D01*
X41373000Y-46017881D01*
X41585680Y-46531337D01*
X41978663Y-46924320D01*
X42185513Y-47010000D01*
X41978663Y-47095680D01*
X41585680Y-47488663D01*
X41373000Y-48002119D01*
X41373000Y-48557881D01*
X41585680Y-49071337D01*
X41978663Y-49464320D01*
X42185513Y-49550000D01*
X41978663Y-49635680D01*
X41585680Y-50028663D01*
X41373000Y-50542119D01*
X41373000Y-51097881D01*
X41585680Y-51611337D01*
X41978663Y-52004320D01*
X42185513Y-52090000D01*
X41978663Y-52175680D01*
X41585680Y-52568663D01*
X41373000Y-53082119D01*
X41373000Y-53637881D01*
X41585680Y-54151337D01*
X41978663Y-54544320D01*
X42169647Y-54623428D01*
X42038857Y-54677603D01*
X41969392Y-54919787D01*
X42770000Y-55720395D01*
X42784143Y-55706253D01*
X42963748Y-55885858D01*
X42949605Y-55900000D01*
X42963748Y-55914143D01*
X42784143Y-56093748D01*
X42770000Y-56079605D01*
X41969392Y-56880213D01*
X42038857Y-57122397D01*
X42179393Y-57172535D01*
X41978663Y-57255680D01*
X41585680Y-57648663D01*
X41373000Y-58162119D01*
X41373000Y-58717881D01*
X41585680Y-59231337D01*
X41978663Y-59624320D01*
X42492119Y-59837000D01*
X43047881Y-59837000D01*
X43561337Y-59624320D01*
X43715001Y-59470656D01*
X43715001Y-66747137D01*
X43423741Y-66043974D01*
X42795026Y-65415259D01*
X41973569Y-65075000D01*
X41084431Y-65075000D01*
X40262974Y-65415259D01*
X39634259Y-66043974D01*
X39294000Y-66865431D01*
X39294000Y-67754569D01*
X39634259Y-68576026D01*
X40262974Y-69204741D01*
X40529162Y-69315000D01*
X17128838Y-69315000D01*
X17395026Y-69204741D01*
X18023741Y-68576026D01*
X18364000Y-67754569D01*
X18364000Y-66865431D01*
X18023741Y-66043974D01*
X17395026Y-65415259D01*
X16573569Y-65075000D01*
X15684431Y-65075000D01*
X14862974Y-65415259D01*
X14234259Y-66043974D01*
X13985000Y-66645738D01*
X13985000Y-62085750D01*
X18875000Y-62085750D01*
X18875000Y-62776309D01*
X18971673Y-63009698D01*
X19150301Y-63188327D01*
X19383690Y-63285000D01*
X20074250Y-63285000D01*
X20233000Y-63126250D01*
X20233000Y-61927000D01*
X19033750Y-61927000D01*
X18875000Y-62085750D01*
X13985000Y-62085750D01*
X13985000Y-60823691D01*
X18875000Y-60823691D01*
X18875000Y-61514250D01*
X19033750Y-61673000D01*
X20233000Y-61673000D01*
X20233000Y-60473750D01*
X20074250Y-60315000D01*
X19383690Y-60315000D01*
X19150301Y-60411673D01*
X18971673Y-60590302D01*
X18875000Y-60823691D01*
X13985000Y-60823691D01*
X13985000Y-59570657D01*
X14038663Y-59624320D01*
X14552119Y-59837000D01*
X15107881Y-59837000D01*
X15621337Y-59624320D01*
X16014320Y-59231337D01*
X16227000Y-58717881D01*
X16227000Y-58162119D01*
X16014320Y-57648663D01*
X15621337Y-57255680D01*
X15430353Y-57176572D01*
X15561143Y-57122397D01*
X15630608Y-56880213D01*
X14830000Y-56079605D01*
X14815858Y-56093748D01*
X14636253Y-55914143D01*
X14650395Y-55900000D01*
X15009605Y-55900000D01*
X15810213Y-56700608D01*
X16052397Y-56631143D01*
X16239144Y-56107698D01*
X16211362Y-55552632D01*
X16052397Y-55168857D01*
X15810213Y-55099392D01*
X15009605Y-55900000D01*
X14650395Y-55900000D01*
X14636253Y-55885858D01*
X14815858Y-55706253D01*
X14830000Y-55720395D01*
X15630608Y-54919787D01*
X15561143Y-54677603D01*
X15420607Y-54627465D01*
X15621337Y-54544320D01*
X16014320Y-54151337D01*
X16227000Y-53637881D01*
X16227000Y-53082119D01*
X16014320Y-52568663D01*
X15621337Y-52175680D01*
X15414487Y-52090000D01*
X15621337Y-52004320D01*
X16014320Y-51611337D01*
X16227000Y-51097881D01*
X16227000Y-50751801D01*
X22140000Y-56664803D01*
X22140001Y-60521822D01*
X21829375Y-60729375D01*
X21814904Y-60751033D01*
X21748327Y-60590302D01*
X21569699Y-60411673D01*
X21336310Y-60315000D01*
X20645750Y-60315000D01*
X20487000Y-60473750D01*
X20487000Y-61673000D01*
X20507000Y-61673000D01*
X20507000Y-61927000D01*
X20487000Y-61927000D01*
X20487000Y-63126250D01*
X20645750Y-63285000D01*
X21336310Y-63285000D01*
X21569699Y-63188327D01*
X21748327Y-63009698D01*
X21814904Y-62848967D01*
X21829375Y-62870625D01*
X22320582Y-63198839D01*
X22753744Y-63285000D01*
X23046256Y-63285000D01*
X23479418Y-63198839D01*
X23970625Y-62870625D01*
X24170000Y-62572239D01*
X24369375Y-62870625D01*
X24680001Y-63078179D01*
X24680001Y-63165149D01*
X24665112Y-63240000D01*
X24680001Y-63314852D01*
X24724097Y-63536537D01*
X24892072Y-63787929D01*
X24955528Y-63830329D01*
X25809671Y-64684473D01*
X25852071Y-64747929D01*
X26103463Y-64915904D01*
X26325148Y-64960000D01*
X26325152Y-64960000D01*
X26399999Y-64974888D01*
X26474846Y-64960000D01*
X29225153Y-64960000D01*
X29300000Y-64974888D01*
X29374847Y-64960000D01*
X29374852Y-64960000D01*
X29596537Y-64915904D01*
X29847929Y-64747929D01*
X29890331Y-64684470D01*
X30884473Y-63690329D01*
X30947929Y-63647929D01*
X31115904Y-63396537D01*
X31160000Y-63174852D01*
X31160000Y-63174847D01*
X31174888Y-63100000D01*
X31160000Y-63025153D01*
X31160000Y-62865000D01*
X31759908Y-62865000D01*
X31875161Y-63444418D01*
X32203375Y-63935625D01*
X32694582Y-64263839D01*
X33127744Y-64350000D01*
X33420256Y-64350000D01*
X33853418Y-64263839D01*
X34344625Y-63935625D01*
X34359096Y-63913967D01*
X34425673Y-64074698D01*
X34604301Y-64253327D01*
X34837690Y-64350000D01*
X35528250Y-64350000D01*
X35687000Y-64191250D01*
X35687000Y-62992000D01*
X35941000Y-62992000D01*
X35941000Y-64191250D01*
X36099750Y-64350000D01*
X36790310Y-64350000D01*
X37023699Y-64253327D01*
X37202327Y-64074698D01*
X37299000Y-63841309D01*
X37299000Y-63150750D01*
X37140250Y-62992000D01*
X35941000Y-62992000D01*
X35687000Y-62992000D01*
X35667000Y-62992000D01*
X35667000Y-62738000D01*
X35687000Y-62738000D01*
X35687000Y-61538750D01*
X35941000Y-61538750D01*
X35941000Y-62738000D01*
X37140250Y-62738000D01*
X37299000Y-62579250D01*
X37299000Y-61888691D01*
X37202327Y-61655302D01*
X37023699Y-61476673D01*
X36790310Y-61380000D01*
X36099750Y-61380000D01*
X35941000Y-61538750D01*
X35687000Y-61538750D01*
X35528250Y-61380000D01*
X34837690Y-61380000D01*
X34604301Y-61476673D01*
X34425673Y-61655302D01*
X34359096Y-61816033D01*
X34344625Y-61794375D01*
X33853418Y-61466161D01*
X33420256Y-61380000D01*
X33127744Y-61380000D01*
X32694582Y-61466161D01*
X32203375Y-61794375D01*
X31875161Y-62285582D01*
X31759908Y-62865000D01*
X31160000Y-62865000D01*
X31160000Y-61114801D01*
X36582499Y-55692302D01*
X41360856Y-55692302D01*
X41388638Y-56247368D01*
X41547603Y-56631143D01*
X41789787Y-56700608D01*
X42590395Y-55900000D01*
X41789787Y-55099392D01*
X41547603Y-55168857D01*
X41360856Y-55692302D01*
X36582499Y-55692302D01*
X39384473Y-52890329D01*
X39447929Y-52847929D01*
X39615904Y-52596537D01*
X39660000Y-52374852D01*
X39660000Y-52374848D01*
X39674888Y-52300001D01*
X39660000Y-52225154D01*
X39660000Y-44844801D01*
X41373000Y-43131802D01*
X41373000Y-43477881D01*
X41373000Y-43477881D01*
G37*
X41373000Y-43477881D02*
X41585680Y-43991337D01*
X41978663Y-44384320D01*
X42185513Y-44470000D01*
X41978663Y-44555680D01*
X41585680Y-44948663D01*
X41373000Y-45462119D01*
X41373000Y-46017881D01*
X41585680Y-46531337D01*
X41978663Y-46924320D01*
X42185513Y-47010000D01*
X41978663Y-47095680D01*
X41585680Y-47488663D01*
X41373000Y-48002119D01*
X41373000Y-48557881D01*
X41585680Y-49071337D01*
X41978663Y-49464320D01*
X42185513Y-49550000D01*
X41978663Y-49635680D01*
X41585680Y-50028663D01*
X41373000Y-50542119D01*
X41373000Y-51097881D01*
X41585680Y-51611337D01*
X41978663Y-52004320D01*
X42185513Y-52090000D01*
X41978663Y-52175680D01*
X41585680Y-52568663D01*
X41373000Y-53082119D01*
X41373000Y-53637881D01*
X41585680Y-54151337D01*
X41978663Y-54544320D01*
X42169647Y-54623428D01*
X42038857Y-54677603D01*
X41969392Y-54919787D01*
X42770000Y-55720395D01*
X42784143Y-55706253D01*
X42963748Y-55885858D01*
X42949605Y-55900000D01*
X42963748Y-55914143D01*
X42784143Y-56093748D01*
X42770000Y-56079605D01*
X41969392Y-56880213D01*
X42038857Y-57122397D01*
X42179393Y-57172535D01*
X41978663Y-57255680D01*
X41585680Y-57648663D01*
X41373000Y-58162119D01*
X41373000Y-58717881D01*
X41585680Y-59231337D01*
X41978663Y-59624320D01*
X42492119Y-59837000D01*
X43047881Y-59837000D01*
X43561337Y-59624320D01*
X43715001Y-59470656D01*
X43715001Y-66747137D01*
X43423741Y-66043974D01*
X42795026Y-65415259D01*
X41973569Y-65075000D01*
X41084431Y-65075000D01*
X40262974Y-65415259D01*
X39634259Y-66043974D01*
X39294000Y-66865431D01*
X39294000Y-67754569D01*
X39634259Y-68576026D01*
X40262974Y-69204741D01*
X40529162Y-69315000D01*
X17128838Y-69315000D01*
X17395026Y-69204741D01*
X18023741Y-68576026D01*
X18364000Y-67754569D01*
X18364000Y-66865431D01*
X18023741Y-66043974D01*
X17395026Y-65415259D01*
X16573569Y-65075000D01*
X15684431Y-65075000D01*
X14862974Y-65415259D01*
X14234259Y-66043974D01*
X13985000Y-66645738D01*
X13985000Y-62085750D01*
X18875000Y-62085750D01*
X18875000Y-62776309D01*
X18971673Y-63009698D01*
X19150301Y-63188327D01*
X19383690Y-63285000D01*
X20074250Y-63285000D01*
X20233000Y-63126250D01*
X20233000Y-61927000D01*
X19033750Y-61927000D01*
X18875000Y-62085750D01*
X13985000Y-62085750D01*
X13985000Y-60823691D01*
X18875000Y-60823691D01*
X18875000Y-61514250D01*
X19033750Y-61673000D01*
X20233000Y-61673000D01*
X20233000Y-60473750D01*
X20074250Y-60315000D01*
X19383690Y-60315000D01*
X19150301Y-60411673D01*
X18971673Y-60590302D01*
X18875000Y-60823691D01*
X13985000Y-60823691D01*
X13985000Y-59570657D01*
X14038663Y-59624320D01*
X14552119Y-59837000D01*
X15107881Y-59837000D01*
X15621337Y-59624320D01*
X16014320Y-59231337D01*
X16227000Y-58717881D01*
X16227000Y-58162119D01*
X16014320Y-57648663D01*
X15621337Y-57255680D01*
X15430353Y-57176572D01*
X15561143Y-57122397D01*
X15630608Y-56880213D01*
X14830000Y-56079605D01*
X14815858Y-56093748D01*
X14636253Y-55914143D01*
X14650395Y-55900000D01*
X15009605Y-55900000D01*
X15810213Y-56700608D01*
X16052397Y-56631143D01*
X16239144Y-56107698D01*
X16211362Y-55552632D01*
X16052397Y-55168857D01*
X15810213Y-55099392D01*
X15009605Y-55900000D01*
X14650395Y-55900000D01*
X14636253Y-55885858D01*
X14815858Y-55706253D01*
X14830000Y-55720395D01*
X15630608Y-54919787D01*
X15561143Y-54677603D01*
X15420607Y-54627465D01*
X15621337Y-54544320D01*
X16014320Y-54151337D01*
X16227000Y-53637881D01*
X16227000Y-53082119D01*
X16014320Y-52568663D01*
X15621337Y-52175680D01*
X15414487Y-52090000D01*
X15621337Y-52004320D01*
X16014320Y-51611337D01*
X16227000Y-51097881D01*
X16227000Y-50751801D01*
X22140000Y-56664803D01*
X22140001Y-60521822D01*
X21829375Y-60729375D01*
X21814904Y-60751033D01*
X21748327Y-60590302D01*
X21569699Y-60411673D01*
X21336310Y-60315000D01*
X20645750Y-60315000D01*
X20487000Y-60473750D01*
X20487000Y-61673000D01*
X20507000Y-61673000D01*
X20507000Y-61927000D01*
X20487000Y-61927000D01*
X20487000Y-63126250D01*
X20645750Y-63285000D01*
X21336310Y-63285000D01*
X21569699Y-63188327D01*
X21748327Y-63009698D01*
X21814904Y-62848967D01*
X21829375Y-62870625D01*
X22320582Y-63198839D01*
X22753744Y-63285000D01*
X23046256Y-63285000D01*
X23479418Y-63198839D01*
X23970625Y-62870625D01*
X24170000Y-62572239D01*
X24369375Y-62870625D01*
X24680001Y-63078179D01*
X24680001Y-63165149D01*
X24665112Y-63240000D01*
X24680001Y-63314852D01*
X24724097Y-63536537D01*
X24892072Y-63787929D01*
X24955528Y-63830329D01*
X25809671Y-64684473D01*
X25852071Y-64747929D01*
X26103463Y-64915904D01*
X26325148Y-64960000D01*
X26325152Y-64960000D01*
X26399999Y-64974888D01*
X26474846Y-64960000D01*
X29225153Y-64960000D01*
X29300000Y-64974888D01*
X29374847Y-64960000D01*
X29374852Y-64960000D01*
X29596537Y-64915904D01*
X29847929Y-64747929D01*
X29890331Y-64684470D01*
X30884473Y-63690329D01*
X30947929Y-63647929D01*
X31115904Y-63396537D01*
X31160000Y-63174852D01*
X31160000Y-63174847D01*
X31174888Y-63100000D01*
X31160000Y-63025153D01*
X31160000Y-62865000D01*
X31759908Y-62865000D01*
X31875161Y-63444418D01*
X32203375Y-63935625D01*
X32694582Y-64263839D01*
X33127744Y-64350000D01*
X33420256Y-64350000D01*
X33853418Y-64263839D01*
X34344625Y-63935625D01*
X34359096Y-63913967D01*
X34425673Y-64074698D01*
X34604301Y-64253327D01*
X34837690Y-64350000D01*
X35528250Y-64350000D01*
X35687000Y-64191250D01*
X35687000Y-62992000D01*
X35941000Y-62992000D01*
X35941000Y-64191250D01*
X36099750Y-64350000D01*
X36790310Y-64350000D01*
X37023699Y-64253327D01*
X37202327Y-64074698D01*
X37299000Y-63841309D01*
X37299000Y-63150750D01*
X37140250Y-62992000D01*
X35941000Y-62992000D01*
X35687000Y-62992000D01*
X35667000Y-62992000D01*
X35667000Y-62738000D01*
X35687000Y-62738000D01*
X35687000Y-61538750D01*
X35941000Y-61538750D01*
X35941000Y-62738000D01*
X37140250Y-62738000D01*
X37299000Y-62579250D01*
X37299000Y-61888691D01*
X37202327Y-61655302D01*
X37023699Y-61476673D01*
X36790310Y-61380000D01*
X36099750Y-61380000D01*
X35941000Y-61538750D01*
X35687000Y-61538750D01*
X35528250Y-61380000D01*
X34837690Y-61380000D01*
X34604301Y-61476673D01*
X34425673Y-61655302D01*
X34359096Y-61816033D01*
X34344625Y-61794375D01*
X33853418Y-61466161D01*
X33420256Y-61380000D01*
X33127744Y-61380000D01*
X32694582Y-61466161D01*
X32203375Y-61794375D01*
X31875161Y-62285582D01*
X31759908Y-62865000D01*
X31160000Y-62865000D01*
X31160000Y-61114801D01*
X36582499Y-55692302D01*
X41360856Y-55692302D01*
X41388638Y-56247368D01*
X41547603Y-56631143D01*
X41789787Y-56700608D01*
X42590395Y-55900000D01*
X41789787Y-55099392D01*
X41547603Y-55168857D01*
X41360856Y-55692302D01*
X36582499Y-55692302D01*
X39384473Y-52890329D01*
X39447929Y-52847929D01*
X39615904Y-52596537D01*
X39660000Y-52374852D01*
X39660000Y-52374848D01*
X39674888Y-52300001D01*
X39660000Y-52225154D01*
X39660000Y-44844801D01*
X41373000Y-43131802D01*
X41373000Y-43477881D01*
G36*
X21872560Y-27447362D02*
X21872560Y-27627500D01*
X21939922Y-27966152D01*
X22131753Y-28253247D01*
X22254105Y-28335000D01*
X22131753Y-28416753D01*
X21939922Y-28703848D01*
X21872560Y-29042500D01*
X21872560Y-29517500D01*
X21939922Y-29856152D01*
X22131753Y-30143247D01*
X22261588Y-30230000D01*
X22131753Y-30316753D01*
X21939922Y-30603848D01*
X21872560Y-30942500D01*
X21872560Y-31417500D01*
X21939922Y-31756152D01*
X22131753Y-32043247D01*
X22418848Y-32235078D01*
X22757500Y-32302440D01*
X23332500Y-32302440D01*
X23671152Y-32235078D01*
X23920000Y-32068803D01*
X24168848Y-32235078D01*
X24507500Y-32302440D01*
X25082500Y-32302440D01*
X25378717Y-32243519D01*
X26130000Y-32994802D01*
X26130001Y-34416288D01*
X26012569Y-34533720D01*
X25855000Y-34914126D01*
X25855000Y-35325874D01*
X26012569Y-35706280D01*
X26303720Y-35997431D01*
X26684126Y-36155000D01*
X26850198Y-36155000D01*
X27059673Y-36364475D01*
X27102071Y-36427929D01*
X27165524Y-36470327D01*
X27165526Y-36470329D01*
X27251486Y-36527765D01*
X27353463Y-36595904D01*
X27532560Y-36631529D01*
X27532560Y-36852639D01*
X27455527Y-36929672D01*
X27392072Y-36972071D01*
X27349672Y-37035527D01*
X27349671Y-37035528D01*
X27224097Y-37223463D01*
X27165112Y-37520000D01*
X27180001Y-37594851D01*
X27180001Y-37886288D01*
X27062569Y-38003720D01*
X26905000Y-38384126D01*
X26905000Y-38795874D01*
X27045470Y-39135000D01*
X26694126Y-39135000D01*
X26313720Y-39292569D01*
X26022569Y-39583720D01*
X25865000Y-39964126D01*
X25865000Y-40375874D01*
X26022569Y-40756280D01*
X26313720Y-41047431D01*
X26694126Y-41205000D01*
X27105874Y-41205000D01*
X27429716Y-41070860D01*
X27301843Y-41262235D01*
X27252560Y-41510000D01*
X27252560Y-41830000D01*
X26505867Y-41830000D01*
X26499161Y-41796287D01*
X26304718Y-41505282D01*
X26013713Y-41310839D01*
X25670450Y-41242560D01*
X25019550Y-41242560D01*
X24676287Y-41310839D01*
X24385282Y-41505282D01*
X24384491Y-41506465D01*
X24229698Y-41351673D01*
X23996309Y-41255000D01*
X23580750Y-41255000D01*
X23422000Y-41413750D01*
X23422000Y-42463000D01*
X23442000Y-42463000D01*
X23442000Y-42717000D01*
X23422000Y-42717000D01*
X23422000Y-43766250D01*
X23435750Y-43780000D01*
X23432000Y-43783750D01*
X23432000Y-44833000D01*
X23452000Y-44833000D01*
X23452000Y-45087000D01*
X23432000Y-45087000D01*
X23432000Y-46136250D01*
X23440750Y-46145000D01*
X23432000Y-46153750D01*
X23432000Y-47203000D01*
X23452000Y-47203000D01*
X23452000Y-47457000D01*
X23432000Y-47457000D01*
X23432000Y-48506250D01*
X23435750Y-48510000D01*
X23422000Y-48523750D01*
X23422000Y-49573000D01*
X23442000Y-49573000D01*
X23442000Y-49827000D01*
X23422000Y-49827000D01*
X23422000Y-49847000D01*
X23168000Y-49847000D01*
X23168000Y-49827000D01*
X22243750Y-49827000D01*
X22085000Y-49985750D01*
X22085000Y-50526310D01*
X22181673Y-50759699D01*
X22336466Y-50914491D01*
X22335282Y-50915282D01*
X22140839Y-51206287D01*
X22072560Y-51549550D01*
X22072560Y-52450450D01*
X22140839Y-52793713D01*
X22335282Y-53084718D01*
X22626287Y-53279161D01*
X22969550Y-53347440D01*
X23620450Y-53347440D01*
X23963713Y-53279161D01*
X24254718Y-53084718D01*
X24320000Y-52987016D01*
X24385282Y-53084718D01*
X24676287Y-53279161D01*
X25019550Y-53347440D01*
X25670450Y-53347440D01*
X26013713Y-53279161D01*
X26304718Y-53084718D01*
X26499161Y-52793713D01*
X26505867Y-52760000D01*
X27330064Y-52760000D01*
X27442191Y-52927809D01*
X27652235Y-53068157D01*
X27900000Y-53117440D01*
X28800000Y-53117440D01*
X29047765Y-53068157D01*
X29252560Y-52931316D01*
X29252560Y-53420000D01*
X29301843Y-53667765D01*
X29442191Y-53877809D01*
X29652235Y-54018157D01*
X29900000Y-54067440D01*
X30800000Y-54067440D01*
X31047765Y-54018157D01*
X31257809Y-53877809D01*
X31398157Y-53667765D01*
X31447440Y-53420000D01*
X31447440Y-53047361D01*
X31959802Y-52535000D01*
X32125874Y-52535000D01*
X32506280Y-52377431D01*
X32797431Y-52086280D01*
X32955000Y-51705874D01*
X32955000Y-51539801D01*
X34159473Y-50335329D01*
X34222929Y-50292929D01*
X34318131Y-50150450D01*
X34390904Y-50041538D01*
X34409112Y-49950000D01*
X34435000Y-49819852D01*
X34435000Y-49819848D01*
X34449888Y-49745000D01*
X34435000Y-49670152D01*
X34435000Y-46018165D01*
X34634718Y-45884718D01*
X34700000Y-45787016D01*
X34765282Y-45884718D01*
X34940000Y-46001461D01*
X34940001Y-46396288D01*
X34822569Y-46513720D01*
X34665000Y-46894126D01*
X34665000Y-47305874D01*
X34822569Y-47686280D01*
X35113720Y-47977431D01*
X35494126Y-48135000D01*
X35905874Y-48135000D01*
X36286280Y-47977431D01*
X36577431Y-47686280D01*
X36735000Y-47305874D01*
X36735000Y-47127667D01*
X36994126Y-47235000D01*
X37215002Y-47235000D01*
X37215002Y-51490196D01*
X28346408Y-60358791D01*
X28126256Y-60315000D01*
X27833744Y-60315000D01*
X27400582Y-60401161D01*
X26909375Y-60729375D01*
X26710000Y-61027761D01*
X26510625Y-60729375D01*
X26019418Y-60401161D01*
X25586256Y-60315000D01*
X25293744Y-60315000D01*
X24860582Y-60401161D01*
X24369375Y-60729375D01*
X24170000Y-61027761D01*
X23970625Y-60729375D01*
X23660000Y-60521822D01*
X23660000Y-56424846D01*
X23674888Y-56349999D01*
X23660000Y-56275152D01*
X23660000Y-56275148D01*
X23615904Y-56053463D01*
X23574102Y-55990902D01*
X23490329Y-55865526D01*
X23490327Y-55865524D01*
X23447929Y-55802071D01*
X23384476Y-55759673D01*
X16498493Y-48873690D01*
X22085000Y-48873690D01*
X22085000Y-49414250D01*
X22243750Y-49573000D01*
X23168000Y-49573000D01*
X23168000Y-48523750D01*
X23164250Y-48520000D01*
X23178000Y-48506250D01*
X23178000Y-47457000D01*
X22253750Y-47457000D01*
X22095000Y-47615750D01*
X22095000Y-48156310D01*
X22191673Y-48389699D01*
X22311975Y-48510000D01*
X22181673Y-48640301D01*
X22085000Y-48873690D01*
X16498493Y-48873690D01*
X16214020Y-48589218D01*
X16227000Y-48557881D01*
X16227000Y-48002119D01*
X16014320Y-47488663D01*
X15621337Y-47095680D01*
X15430353Y-47016572D01*
X15561143Y-46962397D01*
X15630608Y-46720213D01*
X14830000Y-45919605D01*
X14815858Y-45933748D01*
X14636253Y-45754143D01*
X14650395Y-45740000D01*
X15009605Y-45740000D01*
X15810213Y-46540608D01*
X16052397Y-46471143D01*
X16239144Y-45947698D01*
X16211362Y-45392632D01*
X16150522Y-45245750D01*
X22095000Y-45245750D01*
X22095000Y-45786310D01*
X22191673Y-46019699D01*
X22316975Y-46145000D01*
X22191673Y-46270301D01*
X22095000Y-46503690D01*
X22095000Y-47044250D01*
X22253750Y-47203000D01*
X23178000Y-47203000D01*
X23178000Y-46153750D01*
X23169250Y-46145000D01*
X23178000Y-46136250D01*
X23178000Y-45087000D01*
X22253750Y-45087000D01*
X22095000Y-45245750D01*
X16150522Y-45245750D01*
X16052397Y-45008857D01*
X15810213Y-44939392D01*
X15009605Y-45740000D01*
X14650395Y-45740000D01*
X14636253Y-45725858D01*
X14815858Y-45546253D01*
X14830000Y-45560395D01*
X15630608Y-44759787D01*
X15561143Y-44517603D01*
X15420607Y-44467465D01*
X15621337Y-44384320D01*
X16014320Y-43991337D01*
X16227000Y-43477881D01*
X16227000Y-42922119D01*
X16207794Y-42875750D01*
X22085000Y-42875750D01*
X22085000Y-43416310D01*
X22181673Y-43649699D01*
X22311975Y-43780000D01*
X22191673Y-43900301D01*
X22095000Y-44133690D01*
X22095000Y-44674250D01*
X22253750Y-44833000D01*
X23178000Y-44833000D01*
X23178000Y-43783750D01*
X23164250Y-43770000D01*
X23168000Y-43766250D01*
X23168000Y-42717000D01*
X22243750Y-42717000D01*
X22085000Y-42875750D01*
X16207794Y-42875750D01*
X16014320Y-42408663D01*
X15621337Y-42015680D01*
X15414487Y-41930000D01*
X15621337Y-41844320D01*
X15701967Y-41763690D01*
X22085000Y-41763690D01*
X22085000Y-42304250D01*
X22243750Y-42463000D01*
X23168000Y-42463000D01*
X23168000Y-41413750D01*
X23009250Y-41255000D01*
X22593691Y-41255000D01*
X22360302Y-41351673D01*
X22181673Y-41530301D01*
X22085000Y-41763690D01*
X15701967Y-41763690D01*
X16014320Y-41451337D01*
X16227000Y-40937881D01*
X16227000Y-40382119D01*
X16014320Y-39868663D01*
X15621337Y-39475680D01*
X15414487Y-39390000D01*
X15621337Y-39304320D01*
X16014320Y-38911337D01*
X16227000Y-38397881D01*
X16227000Y-37842119D01*
X16014320Y-37328663D01*
X15621337Y-36935680D01*
X15414487Y-36850000D01*
X15621337Y-36764320D01*
X16014320Y-36371337D01*
X16227000Y-35857881D01*
X16227000Y-35302119D01*
X16014320Y-34788663D01*
X15621337Y-34395680D01*
X15414487Y-34310000D01*
X15621337Y-34224320D01*
X16014320Y-33831337D01*
X16227000Y-33317881D01*
X16227000Y-32762119D01*
X16014320Y-32248663D01*
X15621337Y-31855680D01*
X15414487Y-31770000D01*
X15621337Y-31684320D01*
X16014320Y-31291337D01*
X16227000Y-30777881D01*
X16227000Y-30222119D01*
X16014320Y-29708663D01*
X15621337Y-29315680D01*
X15414487Y-29230000D01*
X15621337Y-29144320D01*
X16014320Y-28751337D01*
X16227000Y-28237881D01*
X16227000Y-27682119D01*
X16014320Y-27168663D01*
X15621337Y-26775680D01*
X15430353Y-26696572D01*
X15561143Y-26642397D01*
X15630608Y-26400213D01*
X14830000Y-25599605D01*
X14815858Y-25613748D01*
X14636253Y-25434143D01*
X14650395Y-25420000D01*
X15009605Y-25420000D01*
X15810213Y-26220608D01*
X16052397Y-26151143D01*
X16239144Y-25627698D01*
X16211362Y-25072632D01*
X16052397Y-24688857D01*
X15810213Y-24619392D01*
X15009605Y-25420000D01*
X14650395Y-25420000D01*
X14636253Y-25405858D01*
X14815858Y-25226253D01*
X14830000Y-25240395D01*
X15630608Y-24439787D01*
X15561143Y-24197603D01*
X15420607Y-24147465D01*
X15621337Y-24064320D01*
X16014320Y-23671337D01*
X16027300Y-23640000D01*
X18065199Y-23640000D01*
X21872560Y-27447362D01*
X21872560Y-27447362D01*
G37*
X21872560Y-27447362D02*
X21872560Y-27627500D01*
X21939922Y-27966152D01*
X22131753Y-28253247D01*
X22254105Y-28335000D01*
X22131753Y-28416753D01*
X21939922Y-28703848D01*
X21872560Y-29042500D01*
X21872560Y-29517500D01*
X21939922Y-29856152D01*
X22131753Y-30143247D01*
X22261588Y-30230000D01*
X22131753Y-30316753D01*
X21939922Y-30603848D01*
X21872560Y-30942500D01*
X21872560Y-31417500D01*
X21939922Y-31756152D01*
X22131753Y-32043247D01*
X22418848Y-32235078D01*
X22757500Y-32302440D01*
X23332500Y-32302440D01*
X23671152Y-32235078D01*
X23920000Y-32068803D01*
X24168848Y-32235078D01*
X24507500Y-32302440D01*
X25082500Y-32302440D01*
X25378717Y-32243519D01*
X26130000Y-32994802D01*
X26130001Y-34416288D01*
X26012569Y-34533720D01*
X25855000Y-34914126D01*
X25855000Y-35325874D01*
X26012569Y-35706280D01*
X26303720Y-35997431D01*
X26684126Y-36155000D01*
X26850198Y-36155000D01*
X27059673Y-36364475D01*
X27102071Y-36427929D01*
X27165524Y-36470327D01*
X27165526Y-36470329D01*
X27251486Y-36527765D01*
X27353463Y-36595904D01*
X27532560Y-36631529D01*
X27532560Y-36852639D01*
X27455527Y-36929672D01*
X27392072Y-36972071D01*
X27349672Y-37035527D01*
X27349671Y-37035528D01*
X27224097Y-37223463D01*
X27165112Y-37520000D01*
X27180001Y-37594851D01*
X27180001Y-37886288D01*
X27062569Y-38003720D01*
X26905000Y-38384126D01*
X26905000Y-38795874D01*
X27045470Y-39135000D01*
X26694126Y-39135000D01*
X26313720Y-39292569D01*
X26022569Y-39583720D01*
X25865000Y-39964126D01*
X25865000Y-40375874D01*
X26022569Y-40756280D01*
X26313720Y-41047431D01*
X26694126Y-41205000D01*
X27105874Y-41205000D01*
X27429716Y-41070860D01*
X27301843Y-41262235D01*
X27252560Y-41510000D01*
X27252560Y-41830000D01*
X26505867Y-41830000D01*
X26499161Y-41796287D01*
X26304718Y-41505282D01*
X26013713Y-41310839D01*
X25670450Y-41242560D01*
X25019550Y-41242560D01*
X24676287Y-41310839D01*
X24385282Y-41505282D01*
X24384491Y-41506465D01*
X24229698Y-41351673D01*
X23996309Y-41255000D01*
X23580750Y-41255000D01*
X23422000Y-41413750D01*
X23422000Y-42463000D01*
X23442000Y-42463000D01*
X23442000Y-42717000D01*
X23422000Y-42717000D01*
X23422000Y-43766250D01*
X23435750Y-43780000D01*
X23432000Y-43783750D01*
X23432000Y-44833000D01*
X23452000Y-44833000D01*
X23452000Y-45087000D01*
X23432000Y-45087000D01*
X23432000Y-46136250D01*
X23440750Y-46145000D01*
X23432000Y-46153750D01*
X23432000Y-47203000D01*
X23452000Y-47203000D01*
X23452000Y-47457000D01*
X23432000Y-47457000D01*
X23432000Y-48506250D01*
X23435750Y-48510000D01*
X23422000Y-48523750D01*
X23422000Y-49573000D01*
X23442000Y-49573000D01*
X23442000Y-49827000D01*
X23422000Y-49827000D01*
X23422000Y-49847000D01*
X23168000Y-49847000D01*
X23168000Y-49827000D01*
X22243750Y-49827000D01*
X22085000Y-49985750D01*
X22085000Y-50526310D01*
X22181673Y-50759699D01*
X22336466Y-50914491D01*
X22335282Y-50915282D01*
X22140839Y-51206287D01*
X22072560Y-51549550D01*
X22072560Y-52450450D01*
X22140839Y-52793713D01*
X22335282Y-53084718D01*
X22626287Y-53279161D01*
X22969550Y-53347440D01*
X23620450Y-53347440D01*
X23963713Y-53279161D01*
X24254718Y-53084718D01*
X24320000Y-52987016D01*
X24385282Y-53084718D01*
X24676287Y-53279161D01*
X25019550Y-53347440D01*
X25670450Y-53347440D01*
X26013713Y-53279161D01*
X26304718Y-53084718D01*
X26499161Y-52793713D01*
X26505867Y-52760000D01*
X27330064Y-52760000D01*
X27442191Y-52927809D01*
X27652235Y-53068157D01*
X27900000Y-53117440D01*
X28800000Y-53117440D01*
X29047765Y-53068157D01*
X29252560Y-52931316D01*
X29252560Y-53420000D01*
X29301843Y-53667765D01*
X29442191Y-53877809D01*
X29652235Y-54018157D01*
X29900000Y-54067440D01*
X30800000Y-54067440D01*
X31047765Y-54018157D01*
X31257809Y-53877809D01*
X31398157Y-53667765D01*
X31447440Y-53420000D01*
X31447440Y-53047361D01*
X31959802Y-52535000D01*
X32125874Y-52535000D01*
X32506280Y-52377431D01*
X32797431Y-52086280D01*
X32955000Y-51705874D01*
X32955000Y-51539801D01*
X34159473Y-50335329D01*
X34222929Y-50292929D01*
X34318131Y-50150450D01*
X34390904Y-50041538D01*
X34409112Y-49950000D01*
X34435000Y-49819852D01*
X34435000Y-49819848D01*
X34449888Y-49745000D01*
X34435000Y-49670152D01*
X34435000Y-46018165D01*
X34634718Y-45884718D01*
X34700000Y-45787016D01*
X34765282Y-45884718D01*
X34940000Y-46001461D01*
X34940001Y-46396288D01*
X34822569Y-46513720D01*
X34665000Y-46894126D01*
X34665000Y-47305874D01*
X34822569Y-47686280D01*
X35113720Y-47977431D01*
X35494126Y-48135000D01*
X35905874Y-48135000D01*
X36286280Y-47977431D01*
X36577431Y-47686280D01*
X36735000Y-47305874D01*
X36735000Y-47127667D01*
X36994126Y-47235000D01*
X37215002Y-47235000D01*
X37215002Y-51490196D01*
X28346408Y-60358791D01*
X28126256Y-60315000D01*
X27833744Y-60315000D01*
X27400582Y-60401161D01*
X26909375Y-60729375D01*
X26710000Y-61027761D01*
X26510625Y-60729375D01*
X26019418Y-60401161D01*
X25586256Y-60315000D01*
X25293744Y-60315000D01*
X24860582Y-60401161D01*
X24369375Y-60729375D01*
X24170000Y-61027761D01*
X23970625Y-60729375D01*
X23660000Y-60521822D01*
X23660000Y-56424846D01*
X23674888Y-56349999D01*
X23660000Y-56275152D01*
X23660000Y-56275148D01*
X23615904Y-56053463D01*
X23574102Y-55990902D01*
X23490329Y-55865526D01*
X23490327Y-55865524D01*
X23447929Y-55802071D01*
X23384476Y-55759673D01*
X16498493Y-48873690D01*
X22085000Y-48873690D01*
X22085000Y-49414250D01*
X22243750Y-49573000D01*
X23168000Y-49573000D01*
X23168000Y-48523750D01*
X23164250Y-48520000D01*
X23178000Y-48506250D01*
X23178000Y-47457000D01*
X22253750Y-47457000D01*
X22095000Y-47615750D01*
X22095000Y-48156310D01*
X22191673Y-48389699D01*
X22311975Y-48510000D01*
X22181673Y-48640301D01*
X22085000Y-48873690D01*
X16498493Y-48873690D01*
X16214020Y-48589218D01*
X16227000Y-48557881D01*
X16227000Y-48002119D01*
X16014320Y-47488663D01*
X15621337Y-47095680D01*
X15430353Y-47016572D01*
X15561143Y-46962397D01*
X15630608Y-46720213D01*
X14830000Y-45919605D01*
X14815858Y-45933748D01*
X14636253Y-45754143D01*
X14650395Y-45740000D01*
X15009605Y-45740000D01*
X15810213Y-46540608D01*
X16052397Y-46471143D01*
X16239144Y-45947698D01*
X16211362Y-45392632D01*
X16150522Y-45245750D01*
X22095000Y-45245750D01*
X22095000Y-45786310D01*
X22191673Y-46019699D01*
X22316975Y-46145000D01*
X22191673Y-46270301D01*
X22095000Y-46503690D01*
X22095000Y-47044250D01*
X22253750Y-47203000D01*
X23178000Y-47203000D01*
X23178000Y-46153750D01*
X23169250Y-46145000D01*
X23178000Y-46136250D01*
X23178000Y-45087000D01*
X22253750Y-45087000D01*
X22095000Y-45245750D01*
X16150522Y-45245750D01*
X16052397Y-45008857D01*
X15810213Y-44939392D01*
X15009605Y-45740000D01*
X14650395Y-45740000D01*
X14636253Y-45725858D01*
X14815858Y-45546253D01*
X14830000Y-45560395D01*
X15630608Y-44759787D01*
X15561143Y-44517603D01*
X15420607Y-44467465D01*
X15621337Y-44384320D01*
X16014320Y-43991337D01*
X16227000Y-43477881D01*
X16227000Y-42922119D01*
X16207794Y-42875750D01*
X22085000Y-42875750D01*
X22085000Y-43416310D01*
X22181673Y-43649699D01*
X22311975Y-43780000D01*
X22191673Y-43900301D01*
X22095000Y-44133690D01*
X22095000Y-44674250D01*
X22253750Y-44833000D01*
X23178000Y-44833000D01*
X23178000Y-43783750D01*
X23164250Y-43770000D01*
X23168000Y-43766250D01*
X23168000Y-42717000D01*
X22243750Y-42717000D01*
X22085000Y-42875750D01*
X16207794Y-42875750D01*
X16014320Y-42408663D01*
X15621337Y-42015680D01*
X15414487Y-41930000D01*
X15621337Y-41844320D01*
X15701967Y-41763690D01*
X22085000Y-41763690D01*
X22085000Y-42304250D01*
X22243750Y-42463000D01*
X23168000Y-42463000D01*
X23168000Y-41413750D01*
X23009250Y-41255000D01*
X22593691Y-41255000D01*
X22360302Y-41351673D01*
X22181673Y-41530301D01*
X22085000Y-41763690D01*
X15701967Y-41763690D01*
X16014320Y-41451337D01*
X16227000Y-40937881D01*
X16227000Y-40382119D01*
X16014320Y-39868663D01*
X15621337Y-39475680D01*
X15414487Y-39390000D01*
X15621337Y-39304320D01*
X16014320Y-38911337D01*
X16227000Y-38397881D01*
X16227000Y-37842119D01*
X16014320Y-37328663D01*
X15621337Y-36935680D01*
X15414487Y-36850000D01*
X15621337Y-36764320D01*
X16014320Y-36371337D01*
X16227000Y-35857881D01*
X16227000Y-35302119D01*
X16014320Y-34788663D01*
X15621337Y-34395680D01*
X15414487Y-34310000D01*
X15621337Y-34224320D01*
X16014320Y-33831337D01*
X16227000Y-33317881D01*
X16227000Y-32762119D01*
X16014320Y-32248663D01*
X15621337Y-31855680D01*
X15414487Y-31770000D01*
X15621337Y-31684320D01*
X16014320Y-31291337D01*
X16227000Y-30777881D01*
X16227000Y-30222119D01*
X16014320Y-29708663D01*
X15621337Y-29315680D01*
X15414487Y-29230000D01*
X15621337Y-29144320D01*
X16014320Y-28751337D01*
X16227000Y-28237881D01*
X16227000Y-27682119D01*
X16014320Y-27168663D01*
X15621337Y-26775680D01*
X15430353Y-26696572D01*
X15561143Y-26642397D01*
X15630608Y-26400213D01*
X14830000Y-25599605D01*
X14815858Y-25613748D01*
X14636253Y-25434143D01*
X14650395Y-25420000D01*
X15009605Y-25420000D01*
X15810213Y-26220608D01*
X16052397Y-26151143D01*
X16239144Y-25627698D01*
X16211362Y-25072632D01*
X16052397Y-24688857D01*
X15810213Y-24619392D01*
X15009605Y-25420000D01*
X14650395Y-25420000D01*
X14636253Y-25405858D01*
X14815858Y-25226253D01*
X14830000Y-25240395D01*
X15630608Y-24439787D01*
X15561143Y-24197603D01*
X15420607Y-24147465D01*
X15621337Y-24064320D01*
X16014320Y-23671337D01*
X16027300Y-23640000D01*
X18065199Y-23640000D01*
X21872560Y-27447362D01*
G36*
X41978663Y-34224320D02*
X42185513Y-34310000D01*
X41978663Y-34395680D01*
X41585680Y-34788663D01*
X41373000Y-35302119D01*
X41373000Y-35857881D01*
X41585680Y-36371337D01*
X41978663Y-36764320D01*
X42169647Y-36843428D01*
X42038857Y-36897603D01*
X41969392Y-37139787D01*
X42770000Y-37940395D01*
X42784143Y-37926253D01*
X42963748Y-38105858D01*
X42949605Y-38120000D01*
X42963748Y-38134143D01*
X42784143Y-38313748D01*
X42770000Y-38299605D01*
X41969392Y-39100213D01*
X42038857Y-39342397D01*
X42179393Y-39392535D01*
X41978663Y-39475680D01*
X41585680Y-39868663D01*
X41373000Y-40382119D01*
X41373000Y-40937881D01*
X41385980Y-40969217D01*
X38735001Y-43620198D01*
X38735001Y-37912302D01*
X41360856Y-37912302D01*
X41388638Y-38467368D01*
X41547603Y-38851143D01*
X41789787Y-38920608D01*
X42590395Y-38120000D01*
X41789787Y-37319392D01*
X41547603Y-37388857D01*
X41360856Y-37912302D01*
X38735001Y-37912302D01*
X38735001Y-37072170D01*
X41780757Y-34026414D01*
X41978663Y-34224320D01*
X41978663Y-34224320D01*
G37*
X41978663Y-34224320D02*
X42185513Y-34310000D01*
X41978663Y-34395680D01*
X41585680Y-34788663D01*
X41373000Y-35302119D01*
X41373000Y-35857881D01*
X41585680Y-36371337D01*
X41978663Y-36764320D01*
X42169647Y-36843428D01*
X42038857Y-36897603D01*
X41969392Y-37139787D01*
X42770000Y-37940395D01*
X42784143Y-37926253D01*
X42963748Y-38105858D01*
X42949605Y-38120000D01*
X42963748Y-38134143D01*
X42784143Y-38313748D01*
X42770000Y-38299605D01*
X41969392Y-39100213D01*
X42038857Y-39342397D01*
X42179393Y-39392535D01*
X41978663Y-39475680D01*
X41585680Y-39868663D01*
X41373000Y-40382119D01*
X41373000Y-40937881D01*
X41385980Y-40969217D01*
X38735001Y-43620198D01*
X38735001Y-37912302D01*
X41360856Y-37912302D01*
X41388638Y-38467368D01*
X41547603Y-38851143D01*
X41789787Y-38920608D01*
X42590395Y-38120000D01*
X41789787Y-37319392D01*
X41547603Y-37388857D01*
X41360856Y-37912302D01*
X38735001Y-37912302D01*
X38735001Y-37072170D01*
X41780757Y-34026414D01*
X41978663Y-34224320D01*
G36*
X40262974Y-13345259D02*
X39634259Y-13973974D01*
X39294000Y-14795431D01*
X39294000Y-15684569D01*
X39634259Y-16506026D01*
X40262974Y-17134741D01*
X41084431Y-17475000D01*
X41973569Y-17475000D01*
X42795026Y-17134741D01*
X43423741Y-16506026D01*
X43715000Y-15802865D01*
X43715000Y-21849343D01*
X43561337Y-21695680D01*
X43047881Y-21483000D01*
X42492119Y-21483000D01*
X41978663Y-21695680D01*
X41585680Y-22088663D01*
X41373000Y-22602119D01*
X41373000Y-23157881D01*
X41385980Y-23189218D01*
X39835199Y-24740000D01*
X38895993Y-24740000D01*
X39026153Y-24686086D01*
X39486086Y-24226153D01*
X39735000Y-23625222D01*
X39735000Y-22974778D01*
X39486086Y-22373847D01*
X39026153Y-21913914D01*
X38425222Y-21665000D01*
X37774778Y-21665000D01*
X37173847Y-21913914D01*
X36713914Y-22373847D01*
X36465000Y-22974778D01*
X36465000Y-23625222D01*
X36713914Y-24226153D01*
X37173847Y-24686086D01*
X37304007Y-24740000D01*
X34424500Y-24740000D01*
X34474264Y-24719387D01*
X34572927Y-24452532D01*
X33600000Y-23479605D01*
X32627073Y-24452532D01*
X32725736Y-24719387D01*
X32781220Y-24740000D01*
X30074848Y-24740000D01*
X30000000Y-24725112D01*
X29925152Y-24740000D01*
X29925148Y-24740000D01*
X29703463Y-24784096D01*
X29452071Y-24952071D01*
X29409671Y-25015527D01*
X28960199Y-25465000D01*
X28794126Y-25465000D01*
X28413720Y-25622569D01*
X28122569Y-25913720D01*
X27965000Y-26294126D01*
X27965000Y-26705874D01*
X28122569Y-27086280D01*
X28413720Y-27377431D01*
X28794126Y-27535000D01*
X29065000Y-27535000D01*
X29065000Y-27705874D01*
X29222569Y-28086280D01*
X29513720Y-28377431D01*
X29894126Y-28535000D01*
X30305874Y-28535000D01*
X30686280Y-28377431D01*
X30803711Y-28260000D01*
X33016922Y-28260000D01*
X32725736Y-28380613D01*
X32627073Y-28647468D01*
X33600000Y-29620395D01*
X34572927Y-28647468D01*
X34474264Y-28380613D01*
X34149611Y-28260000D01*
X37545428Y-28260000D01*
X37173847Y-28413914D01*
X36713914Y-28873847D01*
X36465000Y-29474778D01*
X36465000Y-30125222D01*
X36713914Y-30726153D01*
X37173847Y-31186086D01*
X37774778Y-31435000D01*
X38220199Y-31435000D01*
X36935000Y-32720199D01*
X36935000Y-32273690D01*
X36838327Y-32040301D01*
X36659698Y-31861673D01*
X36426309Y-31765000D01*
X36010750Y-31765000D01*
X35852000Y-31923750D01*
X35852000Y-32973000D01*
X35872000Y-32973000D01*
X35872000Y-33227000D01*
X35852000Y-33227000D01*
X35852000Y-33247000D01*
X35598000Y-33247000D01*
X35598000Y-33227000D01*
X35578000Y-33227000D01*
X35578000Y-32973000D01*
X35598000Y-32973000D01*
X35598000Y-31923750D01*
X35439250Y-31765000D01*
X35023691Y-31765000D01*
X34790302Y-31861673D01*
X34635509Y-32016465D01*
X34634718Y-32015282D01*
X34343713Y-31820839D01*
X34000450Y-31752560D01*
X33349550Y-31752560D01*
X33006287Y-31820839D01*
X32715282Y-32015282D01*
X32520839Y-32306287D01*
X32514133Y-32340000D01*
X31727440Y-32340000D01*
X31727440Y-32310000D01*
X31678157Y-32062235D01*
X31537809Y-31852191D01*
X31404306Y-31762987D01*
X31439698Y-31748327D01*
X31618327Y-31569699D01*
X31715000Y-31336310D01*
X31715000Y-31095750D01*
X31571782Y-30952532D01*
X32627073Y-30952532D01*
X32725736Y-31219387D01*
X33335461Y-31445908D01*
X33985460Y-31421856D01*
X34474264Y-31219387D01*
X34572927Y-30952532D01*
X33600000Y-29979605D01*
X32627073Y-30952532D01*
X31571782Y-30952532D01*
X31556250Y-30937000D01*
X30757000Y-30937000D01*
X30757000Y-30957000D01*
X30503000Y-30957000D01*
X30503000Y-30937000D01*
X29703750Y-30937000D01*
X29618219Y-31022531D01*
X29537809Y-30902191D01*
X29390000Y-30803427D01*
X29390000Y-30674848D01*
X29404888Y-30600000D01*
X29390000Y-30525152D01*
X29390000Y-30525148D01*
X29345904Y-30303463D01*
X29332693Y-30283690D01*
X29545000Y-30283690D01*
X29545000Y-30524250D01*
X29703750Y-30683000D01*
X30503000Y-30683000D01*
X30503000Y-29933750D01*
X30757000Y-29933750D01*
X30757000Y-30683000D01*
X31556250Y-30683000D01*
X31715000Y-30524250D01*
X31715000Y-30283690D01*
X31618327Y-30050301D01*
X31439698Y-29871673D01*
X31206309Y-29775000D01*
X30915750Y-29775000D01*
X30757000Y-29933750D01*
X30503000Y-29933750D01*
X30344250Y-29775000D01*
X30053691Y-29775000D01*
X29820302Y-29871673D01*
X29641673Y-30050301D01*
X29545000Y-30283690D01*
X29332693Y-30283690D01*
X29177929Y-30052071D01*
X29114473Y-30009671D01*
X28640263Y-29535461D01*
X31954092Y-29535461D01*
X31978144Y-30185460D01*
X32180613Y-30674264D01*
X32447468Y-30772927D01*
X33420395Y-29800000D01*
X33779605Y-29800000D01*
X34752532Y-30772927D01*
X35019387Y-30674264D01*
X35245908Y-30064539D01*
X35221856Y-29414540D01*
X35019387Y-28925736D01*
X34752532Y-28827073D01*
X33779605Y-29800000D01*
X33420395Y-29800000D01*
X32447468Y-28827073D01*
X32180613Y-28925736D01*
X31954092Y-29535461D01*
X28640263Y-29535461D01*
X26010331Y-26905530D01*
X25967929Y-26842071D01*
X25879420Y-26782931D01*
X25708247Y-26526753D01*
X25421152Y-26334922D01*
X25082500Y-26267560D01*
X24507500Y-26267560D01*
X24168848Y-26334922D01*
X23920000Y-26501197D01*
X23671152Y-26334922D01*
X23332500Y-26267560D01*
X22842362Y-26267560D01*
X19610263Y-23035461D01*
X31954092Y-23035461D01*
X31978144Y-23685460D01*
X32180613Y-24174264D01*
X32447468Y-24272927D01*
X33420395Y-23300000D01*
X33779605Y-23300000D01*
X34752532Y-24272927D01*
X35019387Y-24174264D01*
X35245908Y-23564539D01*
X35221856Y-22914540D01*
X35019387Y-22425736D01*
X34752532Y-22327073D01*
X33779605Y-23300000D01*
X33420395Y-23300000D01*
X32447468Y-22327073D01*
X32180613Y-22425736D01*
X31954092Y-23035461D01*
X19610263Y-23035461D01*
X18970331Y-22395530D01*
X18927929Y-22332071D01*
X18676537Y-22164096D01*
X18592943Y-22147468D01*
X32627073Y-22147468D01*
X33600000Y-23120395D01*
X34572927Y-22147468D01*
X34474264Y-21880613D01*
X33864539Y-21654092D01*
X33214540Y-21678144D01*
X32725736Y-21880613D01*
X32627073Y-22147468D01*
X18592943Y-22147468D01*
X18454852Y-22120000D01*
X18454847Y-22120000D01*
X18380000Y-22105112D01*
X18305153Y-22120000D01*
X16027300Y-22120000D01*
X16014320Y-22088663D01*
X15621337Y-21695680D01*
X15107881Y-21483000D01*
X14552119Y-21483000D01*
X14038663Y-21695680D01*
X13985000Y-21749343D01*
X13985000Y-19935750D01*
X31789000Y-19935750D01*
X31789000Y-20626309D01*
X31885673Y-20859698D01*
X32064301Y-21038327D01*
X32297690Y-21135000D01*
X32988250Y-21135000D01*
X33147000Y-20976250D01*
X33147000Y-19777000D01*
X31947750Y-19777000D01*
X31789000Y-19935750D01*
X13985000Y-19935750D01*
X13985000Y-18673691D01*
X31789000Y-18673691D01*
X31789000Y-19364250D01*
X31947750Y-19523000D01*
X33147000Y-19523000D01*
X33147000Y-18323750D01*
X33401000Y-18323750D01*
X33401000Y-19523000D01*
X33421000Y-19523000D01*
X33421000Y-19777000D01*
X33401000Y-19777000D01*
X33401000Y-20976250D01*
X33559750Y-21135000D01*
X34250310Y-21135000D01*
X34483699Y-21038327D01*
X34662327Y-20859698D01*
X34728904Y-20698967D01*
X34743375Y-20720625D01*
X35234582Y-21048839D01*
X35667744Y-21135000D01*
X35960256Y-21135000D01*
X36393418Y-21048839D01*
X36884625Y-20720625D01*
X37212839Y-20229418D01*
X37328092Y-19650000D01*
X37212839Y-19070582D01*
X36884625Y-18579375D01*
X36393418Y-18251161D01*
X35960256Y-18165000D01*
X35667744Y-18165000D01*
X35234582Y-18251161D01*
X34743375Y-18579375D01*
X34728904Y-18601033D01*
X34662327Y-18440302D01*
X34483699Y-18261673D01*
X34250310Y-18165000D01*
X33559750Y-18165000D01*
X33401000Y-18323750D01*
X33147000Y-18323750D01*
X32988250Y-18165000D01*
X32297690Y-18165000D01*
X32064301Y-18261673D01*
X31885673Y-18440302D01*
X31789000Y-18673691D01*
X13985000Y-18673691D01*
X13985000Y-15904262D01*
X14234259Y-16506026D01*
X14862974Y-17134741D01*
X15684431Y-17475000D01*
X16573569Y-17475000D01*
X17395026Y-17134741D01*
X18023741Y-16506026D01*
X18364000Y-15684569D01*
X18364000Y-14795431D01*
X18023741Y-13973974D01*
X17395026Y-13345259D01*
X16766706Y-13085000D01*
X40891294Y-13085000D01*
X40262974Y-13345259D01*
X40262974Y-13345259D01*
G37*
X40262974Y-13345259D02*
X39634259Y-13973974D01*
X39294000Y-14795431D01*
X39294000Y-15684569D01*
X39634259Y-16506026D01*
X40262974Y-17134741D01*
X41084431Y-17475000D01*
X41973569Y-17475000D01*
X42795026Y-17134741D01*
X43423741Y-16506026D01*
X43715000Y-15802865D01*
X43715000Y-21849343D01*
X43561337Y-21695680D01*
X43047881Y-21483000D01*
X42492119Y-21483000D01*
X41978663Y-21695680D01*
X41585680Y-22088663D01*
X41373000Y-22602119D01*
X41373000Y-23157881D01*
X41385980Y-23189218D01*
X39835199Y-24740000D01*
X38895993Y-24740000D01*
X39026153Y-24686086D01*
X39486086Y-24226153D01*
X39735000Y-23625222D01*
X39735000Y-22974778D01*
X39486086Y-22373847D01*
X39026153Y-21913914D01*
X38425222Y-21665000D01*
X37774778Y-21665000D01*
X37173847Y-21913914D01*
X36713914Y-22373847D01*
X36465000Y-22974778D01*
X36465000Y-23625222D01*
X36713914Y-24226153D01*
X37173847Y-24686086D01*
X37304007Y-24740000D01*
X34424500Y-24740000D01*
X34474264Y-24719387D01*
X34572927Y-24452532D01*
X33600000Y-23479605D01*
X32627073Y-24452532D01*
X32725736Y-24719387D01*
X32781220Y-24740000D01*
X30074848Y-24740000D01*
X30000000Y-24725112D01*
X29925152Y-24740000D01*
X29925148Y-24740000D01*
X29703463Y-24784096D01*
X29452071Y-24952071D01*
X29409671Y-25015527D01*
X28960199Y-25465000D01*
X28794126Y-25465000D01*
X28413720Y-25622569D01*
X28122569Y-25913720D01*
X27965000Y-26294126D01*
X27965000Y-26705874D01*
X28122569Y-27086280D01*
X28413720Y-27377431D01*
X28794126Y-27535000D01*
X29065000Y-27535000D01*
X29065000Y-27705874D01*
X29222569Y-28086280D01*
X29513720Y-28377431D01*
X29894126Y-28535000D01*
X30305874Y-28535000D01*
X30686280Y-28377431D01*
X30803711Y-28260000D01*
X33016922Y-28260000D01*
X32725736Y-28380613D01*
X32627073Y-28647468D01*
X33600000Y-29620395D01*
X34572927Y-28647468D01*
X34474264Y-28380613D01*
X34149611Y-28260000D01*
X37545428Y-28260000D01*
X37173847Y-28413914D01*
X36713914Y-28873847D01*
X36465000Y-29474778D01*
X36465000Y-30125222D01*
X36713914Y-30726153D01*
X37173847Y-31186086D01*
X37774778Y-31435000D01*
X38220199Y-31435000D01*
X36935000Y-32720199D01*
X36935000Y-32273690D01*
X36838327Y-32040301D01*
X36659698Y-31861673D01*
X36426309Y-31765000D01*
X36010750Y-31765000D01*
X35852000Y-31923750D01*
X35852000Y-32973000D01*
X35872000Y-32973000D01*
X35872000Y-33227000D01*
X35852000Y-33227000D01*
X35852000Y-33247000D01*
X35598000Y-33247000D01*
X35598000Y-33227000D01*
X35578000Y-33227000D01*
X35578000Y-32973000D01*
X35598000Y-32973000D01*
X35598000Y-31923750D01*
X35439250Y-31765000D01*
X35023691Y-31765000D01*
X34790302Y-31861673D01*
X34635509Y-32016465D01*
X34634718Y-32015282D01*
X34343713Y-31820839D01*
X34000450Y-31752560D01*
X33349550Y-31752560D01*
X33006287Y-31820839D01*
X32715282Y-32015282D01*
X32520839Y-32306287D01*
X32514133Y-32340000D01*
X31727440Y-32340000D01*
X31727440Y-32310000D01*
X31678157Y-32062235D01*
X31537809Y-31852191D01*
X31404306Y-31762987D01*
X31439698Y-31748327D01*
X31618327Y-31569699D01*
X31715000Y-31336310D01*
X31715000Y-31095750D01*
X31571782Y-30952532D01*
X32627073Y-30952532D01*
X32725736Y-31219387D01*
X33335461Y-31445908D01*
X33985460Y-31421856D01*
X34474264Y-31219387D01*
X34572927Y-30952532D01*
X33600000Y-29979605D01*
X32627073Y-30952532D01*
X31571782Y-30952532D01*
X31556250Y-30937000D01*
X30757000Y-30937000D01*
X30757000Y-30957000D01*
X30503000Y-30957000D01*
X30503000Y-30937000D01*
X29703750Y-30937000D01*
X29618219Y-31022531D01*
X29537809Y-30902191D01*
X29390000Y-30803427D01*
X29390000Y-30674848D01*
X29404888Y-30600000D01*
X29390000Y-30525152D01*
X29390000Y-30525148D01*
X29345904Y-30303463D01*
X29332693Y-30283690D01*
X29545000Y-30283690D01*
X29545000Y-30524250D01*
X29703750Y-30683000D01*
X30503000Y-30683000D01*
X30503000Y-29933750D01*
X30757000Y-29933750D01*
X30757000Y-30683000D01*
X31556250Y-30683000D01*
X31715000Y-30524250D01*
X31715000Y-30283690D01*
X31618327Y-30050301D01*
X31439698Y-29871673D01*
X31206309Y-29775000D01*
X30915750Y-29775000D01*
X30757000Y-29933750D01*
X30503000Y-29933750D01*
X30344250Y-29775000D01*
X30053691Y-29775000D01*
X29820302Y-29871673D01*
X29641673Y-30050301D01*
X29545000Y-30283690D01*
X29332693Y-30283690D01*
X29177929Y-30052071D01*
X29114473Y-30009671D01*
X28640263Y-29535461D01*
X31954092Y-29535461D01*
X31978144Y-30185460D01*
X32180613Y-30674264D01*
X32447468Y-30772927D01*
X33420395Y-29800000D01*
X33779605Y-29800000D01*
X34752532Y-30772927D01*
X35019387Y-30674264D01*
X35245908Y-30064539D01*
X35221856Y-29414540D01*
X35019387Y-28925736D01*
X34752532Y-28827073D01*
X33779605Y-29800000D01*
X33420395Y-29800000D01*
X32447468Y-28827073D01*
X32180613Y-28925736D01*
X31954092Y-29535461D01*
X28640263Y-29535461D01*
X26010331Y-26905530D01*
X25967929Y-26842071D01*
X25879420Y-26782931D01*
X25708247Y-26526753D01*
X25421152Y-26334922D01*
X25082500Y-26267560D01*
X24507500Y-26267560D01*
X24168848Y-26334922D01*
X23920000Y-26501197D01*
X23671152Y-26334922D01*
X23332500Y-26267560D01*
X22842362Y-26267560D01*
X19610263Y-23035461D01*
X31954092Y-23035461D01*
X31978144Y-23685460D01*
X32180613Y-24174264D01*
X32447468Y-24272927D01*
X33420395Y-23300000D01*
X33779605Y-23300000D01*
X34752532Y-24272927D01*
X35019387Y-24174264D01*
X35245908Y-23564539D01*
X35221856Y-22914540D01*
X35019387Y-22425736D01*
X34752532Y-22327073D01*
X33779605Y-23300000D01*
X33420395Y-23300000D01*
X32447468Y-22327073D01*
X32180613Y-22425736D01*
X31954092Y-23035461D01*
X19610263Y-23035461D01*
X18970331Y-22395530D01*
X18927929Y-22332071D01*
X18676537Y-22164096D01*
X18592943Y-22147468D01*
X32627073Y-22147468D01*
X33600000Y-23120395D01*
X34572927Y-22147468D01*
X34474264Y-21880613D01*
X33864539Y-21654092D01*
X33214540Y-21678144D01*
X32725736Y-21880613D01*
X32627073Y-22147468D01*
X18592943Y-22147468D01*
X18454852Y-22120000D01*
X18454847Y-22120000D01*
X18380000Y-22105112D01*
X18305153Y-22120000D01*
X16027300Y-22120000D01*
X16014320Y-22088663D01*
X15621337Y-21695680D01*
X15107881Y-21483000D01*
X14552119Y-21483000D01*
X14038663Y-21695680D01*
X13985000Y-21749343D01*
X13985000Y-19935750D01*
X31789000Y-19935750D01*
X31789000Y-20626309D01*
X31885673Y-20859698D01*
X32064301Y-21038327D01*
X32297690Y-21135000D01*
X32988250Y-21135000D01*
X33147000Y-20976250D01*
X33147000Y-19777000D01*
X31947750Y-19777000D01*
X31789000Y-19935750D01*
X13985000Y-19935750D01*
X13985000Y-18673691D01*
X31789000Y-18673691D01*
X31789000Y-19364250D01*
X31947750Y-19523000D01*
X33147000Y-19523000D01*
X33147000Y-18323750D01*
X33401000Y-18323750D01*
X33401000Y-19523000D01*
X33421000Y-19523000D01*
X33421000Y-19777000D01*
X33401000Y-19777000D01*
X33401000Y-20976250D01*
X33559750Y-21135000D01*
X34250310Y-21135000D01*
X34483699Y-21038327D01*
X34662327Y-20859698D01*
X34728904Y-20698967D01*
X34743375Y-20720625D01*
X35234582Y-21048839D01*
X35667744Y-21135000D01*
X35960256Y-21135000D01*
X36393418Y-21048839D01*
X36884625Y-20720625D01*
X37212839Y-20229418D01*
X37328092Y-19650000D01*
X37212839Y-19070582D01*
X36884625Y-18579375D01*
X36393418Y-18251161D01*
X35960256Y-18165000D01*
X35667744Y-18165000D01*
X35234582Y-18251161D01*
X34743375Y-18579375D01*
X34728904Y-18601033D01*
X34662327Y-18440302D01*
X34483699Y-18261673D01*
X34250310Y-18165000D01*
X33559750Y-18165000D01*
X33401000Y-18323750D01*
X33147000Y-18323750D01*
X32988250Y-18165000D01*
X32297690Y-18165000D01*
X32064301Y-18261673D01*
X31885673Y-18440302D01*
X31789000Y-18673691D01*
X13985000Y-18673691D01*
X13985000Y-15904262D01*
X14234259Y-16506026D01*
X14862974Y-17134741D01*
X15684431Y-17475000D01*
X16573569Y-17475000D01*
X17395026Y-17134741D01*
X18023741Y-16506026D01*
X18364000Y-15684569D01*
X18364000Y-14795431D01*
X18023741Y-13973974D01*
X17395026Y-13345259D01*
X16766706Y-13085000D01*
X40891294Y-13085000D01*
X40262974Y-13345259D01*
G04 #@! TD*
M02*
